<?xml version="1.0" encoding="UTF-8" standalone="no"?>
<!-- Created with Inkscape (http://www.inkscape.org/) -->

<svg
   width="210mm"
   height="210mm"
   viewBox="0 0 210 210"
   version="1.1"
   id="svg1"
   xml:space="preserve"
   inkscape:version="1.4.2 (f4327f4, 2025-05-13)"
   sodipodi:docname="Viditay - Negro.svg"
   xmlns:inkscape="http://www.inkscape.org/namespaces/inkscape"
   xmlns:sodipodi="http://sodipodi.sourceforge.net/DTD/sodipodi-0.dtd"
   xmlns="http://www.w3.org/2000/svg"
   xmlns:svg="http://www.w3.org/2000/svg"><sodipodi:namedview
     id="namedview1"
     pagecolor="#ffffff"
     bordercolor="#000000"
     borderopacity="0.25"
     inkscape:showpageshadow="2"
     inkscape:pageopacity="0.0"
     inkscape:pagecheckerboard="0"
     inkscape:deskcolor="#d1d1d1"
     inkscape:document-units="mm"
     inkscape:zoom="1.6000176"
     inkscape:cx="416.24543"
     inkscape:cy="51.561934"
     inkscape:window-width="1920"
     inkscape:window-height="1057"
     inkscape:window-x="1592"
     inkscape:window-y="-5"
     inkscape:window-maximized="1"
     inkscape:current-layer="layer1" /><defs
     id="defs1" /><g
     inkscape:label="Layer 1"
     inkscape:groupmode="layer"
     id="layer1"><path
       style="fill:#000000"
       d="m 46.172639,183.41167 c 0,-0.0575 0.04981,-0.10451 0.110678,-0.10451 0.06087,0 0.08161,0.047 0.04609,0.10451 -0.03552,0.0575 -0.08533,0.10451 -0.110678,0.10451 -0.02535,0 -0.04609,-0.047 -0.04609,-0.10451 z m 1.045102,-0.82276 c 0,-0.12382 0.898473,-0.74511 1.076468,-0.74437 0.06897,2.9e-4 -0.01569,0.11409 -0.188132,0.25291 -0.464856,0.3742 -0.888336,0.60849 -0.888336,0.49146 z m 1.410887,-1.12267 c 0.172442,-0.14667 0.59201,-0.50966 0.932372,-0.80665 0.340363,-0.29699 0.975263,-0.83393 1.410888,-1.1932 1.58735,-1.3091 2.265653,-1.87914 3.699633,-3.10915 0.804151,-0.68977 1.962959,-1.67739 2.575128,-2.19472 1.399909,-1.18302 2.701947,-2.32882 3.975457,-3.49842 0.546066,-0.50151 1.275025,-1.14656 1.619908,-1.43345 0.344884,-0.28688 1.144387,-0.99804 1.776674,-1.58034 l 1.149612,-1.05875 0.679316,4.9e-4 0.679316,4.9e-4 -0.417901,0.33616 c -0.229846,0.18488 -0.794201,0.66648 -1.254123,1.07022 -0.459921,0.40374 -1.325701,1.13269 -1.923956,1.61991 -0.598255,0.48721 -1.520328,1.26207 -2.049051,1.72192 -0.528723,0.45984 -1.354347,1.14177 -1.834719,1.51539 -0.480373,0.37363 -1.368939,1.09236 -1.974592,1.59719 -1.949504,1.62498 -5.192748,4.24671 -6.104515,4.9347 -0.719343,0.54279 -1.980716,1.52012 -2.561715,1.98486 -0.522085,0.4176 -0.855998,0.50013 -0.377732,0.0933 z M 156.74442,164.52979 c -1.04866,-0.0792 -2.29189,-0.26675 -3.06177,-0.46191 -1.65626,-0.41984 -2.34748,-0.89716 -2.58693,-1.78639 -0.25031,-0.92961 0.30065,-3.2291 1.25478,-5.23692 0.5012,-1.05468 0.9348,-1.59981 1.34399,-1.68968 0.27119,-0.0596 1.43397,0.19907 3.07249,0.68339 1.01851,0.30106 1.17338,0.63101 0.92093,1.96215 -0.12042,0.63499 -0.078,0.78359 0.26905,0.9417 0.59648,0.27178 3.28885,-0.009 4.01898,-0.41982 0.47225,-0.26541 0.96368,-1.11666 1.40867,-2.44005 0.33053,-0.98298 0.33564,-0.84352 -0.21628,-5.90483 -0.81568,-7.4801 -1.20455,-11.1191 -1.36216,-12.74674 -0.0917,-0.94651 -0.21066,-1.80318 -0.26447,-1.90373 -0.0538,-0.10055 -0.41675,-0.36907 -0.80654,-0.59671 -1.17127,-0.68406 -1.21609,-0.73629 -1.20642,-1.40576 0.01,-0.67406 0.4134,-1.61035 0.83836,-1.94463 0.25689,-0.20207 0.37336,-0.2067 3.62526,-0.14416 1.84792,0.0355 3.46564,0.10368 3.59495,0.15142 0.55011,0.2031 0.76912,1.01405 0.97035,3.5931 0.0628,0.80473 0.25724,2.85052 0.43212,4.54619 0.17488,1.69568 0.37837,3.81201 0.4522,4.70296 0.0738,0.89095 0.1402,1.64343 0.1475,1.67217 0.007,0.0287 0.59138,-1.09997 1.29797,-2.50825 0.70659,-1.40827 1.64157,-3.19852 2.07773,-3.97833 1.5249,-2.72631 1.76889,-3.27974 1.73385,-3.93277 l -0.0311,-0.57973 -0.52255,-0.20046 c -0.72349,-0.27755 -0.92265,-0.53921 -0.86129,-1.13157 0.0754,-0.72748 0.38233,-1.65162 0.65266,-1.96488 l 0.24438,-0.28319 4.36771,0.0204 c 3.05281,0.0143 4.43523,0.0565 4.59202,0.14044 0.5456,0.292 0.72647,1.36424 0.35344,2.09542 -0.16882,0.33092 -0.3431,0.47914 -0.82909,0.70512 -1.85895,0.86439 -3.31393,2.72273 -5.62714,7.18714 -2.01,3.87923 -4.10766,7.99637 -5.21262,10.23097 -2.18544,4.41968 -2.90007,5.78843 -3.46418,6.63496 -1.13136,1.69776 -3.21997,3.52756 -5.12311,4.48826 -1.99202,1.00557 -4.7232,1.63844 -6.49373,1.50472 z M 37.341527,162.72346 c -1.169964,-0.48393 -1.216376,-2.75341 -0.08338,-4.07706 0.442822,-0.51734 1.058759,-0.83412 1.628261,-0.83743 0.47657,-0.003 1.120353,0.24826 1.119545,0.43654 -10e-4,0.24202 -0.216077,0.91981 -0.291732,0.91952 -0.04041,-1.6e-4 -0.16753,-0.17652 -0.282491,-0.39192 -0.167908,-0.3146 -0.277282,-0.39818 -0.556075,-0.42493 -0.49392,-0.0474 -0.831904,0.21937 -1.14581,0.90437 -0.362081,0.79011 -0.440698,2.08644 -0.159501,2.63002 0.176951,0.34207 0.221419,0.36536 0.685639,0.35922 0.39471,-0.005 0.558304,-0.0659 0.79849,-0.29597 0.379825,-0.3639 0.564835,-0.16931 0.205314,0.21594 -0.514674,0.5515 -1.350913,0.79637 -1.91826,0.5617 z m 4.337173,-0.006 c 0,-0.058 0.541037,-1.18667 1.202303,-2.50825 1.086368,-2.17116 1.227455,-2.40286 1.463143,-2.40286 0.143462,0 0.26084,0.036 0.26084,0.08 0,0.0644 0.445828,3.86553 0.548341,4.67518 0.02304,0.18198 -0.03439,0.20902 -0.443831,0.20902 H 44.2392 l -0.02652,-0.47029 c -0.01459,-0.25867 -0.05199,-0.62315 -0.08312,-0.80996 -0.05622,-0.33737 -0.06066,-0.33966 -0.658973,-0.33966 h -0.602373 l -0.353435,0.83608 c -0.296616,0.70168 -0.392231,0.83609 -0.594758,0.83609 -0.132728,0 -0.241324,-0.0474 -0.241324,-0.10538 z m 2.323103,-2.63802 c -0.07783,-0.85492 -0.156238,-0.87443 -0.523237,-0.1302 l -0.334771,0.67888 h 0.453978 0.453979 z m 8.859488,2.69866 c 0,-0.0322 0.552598,-1.16589 1.227995,-2.51921 1.137913,-2.28009 1.246892,-2.45838 1.4856,-2.43044 0.25559,0.0299 0.259831,0.0485 0.542354,2.38163 0.156613,1.29332 0.287596,2.41027 0.291074,2.48212 0.0041,0.0855 -0.151302,0.13064 -0.450298,0.13064 -0.446462,0 -0.458063,-0.009 -0.521401,-0.39192 -0.03563,-0.21555 -0.0653,-0.59403 -0.06593,-0.84107 l -0.0012,-0.44915 -0.643754,0.0311 -0.643753,0.0311 -0.33214,0.78382 c -0.283371,0.66874 -0.372994,0.78869 -0.610369,0.8169 -0.153026,0.0182 -0.278229,0.007 -0.278229,-0.0256 z m 2.366945,-2.69866 c -0.03625,-0.30177 -0.0686,-0.64273 -0.07188,-0.7577 -0.0053,-0.18368 -0.708337,1.01158 -0.722338,1.228 -0.0028,0.0431 0.189598,0.0784 0.427527,0.0784 h 0.432598 z m 9.442707,2.64496 c 0,-0.0618 0.541036,-1.19361 1.202303,-2.51519 1.077458,-2.15335 1.228896,-2.40286 1.458407,-2.40286 0.299407,0 0.25635,-0.19328 0.616962,2.76952 0.139924,1.14961 0.218359,2.12868 0.174302,2.17571 -0.04406,0.047 -0.262662,0.0705 -0.485789,0.0523 l -0.405685,-0.0333 -0.03061,-0.81482 -0.03061,-0.81483 -0.647245,0.031 -0.647246,0.031 -0.336438,0.78382 c -0.279993,0.65233 -0.381059,0.78938 -0.602394,0.8169 -0.146275,0.0182 -0.265954,-0.0175 -0.265954,-0.0793 z m 2.366304,-2.48819 c -0.03563,-0.21555 -0.0653,-0.52125 -0.06593,-0.67932 -0.0018,-0.44982 -0.137722,-0.34334 -0.500294,0.39192 l -0.334986,0.67931 h 0.482995 0.482994 z m 3.710021,2.42602 c -0.374561,-0.16262 -0.384542,-0.2514 -0.107736,-0.95827 0.106857,-0.27288 0.122211,-0.27911 0.234314,-0.0951 0.271882,0.44624 0.620029,0.79596 0.792372,0.79596 0.403793,0 0.736669,-0.75741 0.517674,-1.17789 -0.06674,-0.12815 -0.280497,-0.36657 -0.475005,-0.52981 -0.843255,-0.70772 -0.88708,-1.64443 -0.114414,-2.4455 0.385592,-0.39976 0.879816,-0.52011 1.442979,-0.35138 0.510524,0.15295 0.551451,0.22562 0.414185,0.73538 -0.155543,0.57765 -0.284769,0.61008 -0.480604,0.12064 -0.09305,-0.23256 -0.262088,-0.44937 -0.379369,-0.4866 -0.288423,-0.0915 -0.595736,0.23467 -0.673704,0.71514 -0.05811,0.35807 -0.02547,0.41722 0.518812,0.94018 0.616665,0.59252 0.765226,0.9232 0.657265,1.463 -0.221987,1.10993 -1.334257,1.71389 -2.346769,1.27427 z m 9.065277,0.0822 c -0.01619,-0.10256 -0.03828,0.0326 0.323068,-1.97748 0.42774,-2.37943 0.438534,-2.26547 -0.206182,-2.1768 -0.477734,0.0657 -0.522551,0.0538 -0.522551,-0.13841 0,-0.53306 0.0241,-0.5409 1.662359,-0.5409 h 1.535486 l -0.04341,0.37179 -0.0434,0.37179 -0.552221,-0.069 c -0.663179,-0.0829 -0.568436,-0.29202 -0.990193,2.18604 -0.174838,1.02728 -0.343416,1.90908 -0.374617,1.95957 -0.06898,0.11161 -0.770949,0.12355 -0.78834,0.0134 z m 4.037036,-0.008 c -0.02271,-0.0227 0.508151,-1.14134 1.179683,-2.48585 1.060471,-2.12323 1.252444,-2.44456 1.460428,-2.44456 0.131704,0 0.258994,0.0588 0.282866,0.13063 0.03727,0.11217 0.578269,4.60725 0.577407,4.79756 -1.71e-4,0.0377 -0.200186,0.0585 -0.444479,0.0464 l -0.444168,-0.0221 -0.09452,-0.8041 -0.09452,-0.8041 h -0.595943 -0.595943 l -0.366704,0.81369 c -0.295021,0.65463 -0.411286,0.81369 -0.594764,0.81369 -0.125433,0 -0.246638,-0.0186 -0.269344,-0.0413 z m 2.350462,-2.35533 c 0,-0.13568 -0.03091,-0.47219 -0.06869,-0.7478 l -0.06868,-0.50111 -0.344284,0.66942 c -0.189357,0.36818 -0.346567,0.70469 -0.349356,0.7478 -0.0028,0.0431 0.183047,0.0784 0.41297,0.0784 0.369645,0 0.418041,-0.0286 0.418041,-0.24669 z m 3.69071,2.16067 c 0.03287,-0.16174 0.208325,-1.16412 0.389894,-2.22751 0.181569,-1.06339 0.349744,-2.03925 0.373721,-2.16858 0.04224,-0.22783 0.08133,-0.23515 1.254653,-0.23515 1.061388,0 1.203217,0.0204 1.147621,0.16531 -0.03489,0.0909 -0.06344,0.23201 -0.06344,0.31353 0,0.11455 -0.175029,0.14822 -0.770469,0.14822 h -0.770469 l -0.07061,0.44417 c -0.03884,0.24429 -0.09697,0.54998 -0.129197,0.67931 -0.05582,0.22403 -0.02925,0.23515 0.561703,0.23515 h 0.62029 l -0.04799,0.32697 -0.04799,0.32698 -0.608877,-0.0636 -0.608877,-0.0636 -0.06287,0.3376 c -0.03458,0.18568 -0.120598,0.71383 -0.191154,1.17368 l -0.128284,0.83608 -0.453714,0.0328 c -0.447398,0.0323 -0.452882,0.0287 -0.393945,-0.26128 z m 32.053037,-0.79049 c -0.0697,-0.58918 -0.20662,-1.69437 -0.30422,-2.45599 l -0.17746,-1.38476 h 0.50148 c 0.37325,0 0.50149,0.0396 0.50149,0.15479 0,0.49026 0.24555,2.84618 0.30888,2.96352 0.0704,0.13037 1.46779,-2.73107 1.46779,-3.00552 0,-0.062 0.14109,-0.11279 0.31353,-0.11279 0.17245,0 0.31353,0.0239 0.31353,0.0531 0,0.0292 -0.54103,1.13442 -1.2023,2.45599 -1.45377,2.90544 -1.52955,2.96402 -1.72272,1.33164 z m 4.23242,0.98515 c -0.0227,-0.0227 0.50815,-1.14134 1.17968,-2.48585 1.06047,-2.12323 1.25245,-2.44456 1.46043,-2.44456 0.1317,0 0.25899,0.0588 0.28287,0.13063 0.0373,0.11217 0.57827,4.60725 0.5774,4.79756 -1.7e-4,0.0377 -0.20018,0.0585 -0.44448,0.0464 l -0.44416,-0.0221 -0.0945,-0.8041 -0.0945,-0.8041 h -0.59595 -0.59594 l -0.3667,0.81369 c -0.29502,0.65463 -0.41129,0.81369 -0.59477,0.81369 -0.12543,0 -0.24663,-0.0186 -0.26934,-0.0413 z m 2.35046,-2.35533 c 0,-0.13568 -0.0309,-0.47219 -0.0687,-0.7478 l -0.0687,-0.50111 -0.34428,0.66942 c -0.18936,0.36818 -0.34657,0.70469 -0.34936,0.7478 -0.003,0.0431 0.18305,0.0784 0.41297,0.0784 0.36964,0 0.41804,-0.0286 0.41804,-0.24669 z m -80.786378,2.29784 c 0,-0.0319 0.164603,-0.96159 0.365785,-2.06589 0.201182,-1.1043 0.365786,-2.16412 0.365786,-2.35517 v -0.34735 h 0.997597 c 0.919831,0 1.017595,0.02 1.254123,0.25652 0.428804,0.42881 0.308563,1.25181 -0.248788,1.70286 -0.142007,0.11492 -0.126044,0.16716 0.134051,0.43864 0.353007,0.36846 0.393096,0.90974 0.111353,1.50347 -0.323235,0.68116 -0.682497,0.84857 -1.908678,0.88936 -0.589176,0.0196 -1.071229,0.01 -1.071229,-0.0224 z m 1.912319,-0.50962 c 0.223775,-0.16648 0.414174,-1.14267 0.287735,-1.47523 -0.101877,-0.26795 -0.303502,-0.37983 -0.684544,-0.37983 -0.257812,0 -0.34356,0.24278 -0.525995,1.48927 l -0.07266,0.49643 h 0.409933 c 0.225462,0 0.48895,-0.0588 0.585528,-0.13064 z m 0.218569,-2.43322 c 0.180818,-0.18082 0.308545,-0.73333 0.255781,-1.10644 -0.0294,-0.2079 -0.09525,-0.24884 -0.400237,-0.24884 -0.352205,0 -0.369317,0.0184 -0.486391,0.52255 -0.204213,0.87942 -0.185402,0.99285 0.164657,0.99285 0.168336,0 0.378121,-0.0721 0.46619,-0.16012 z m 9.384477,1.02233 c 0.219053,-1.07776 0.399115,-2.10065 0.400137,-2.2731 0.0026,-0.44406 0.132154,-0.59693 0.471945,-0.55704 0.273746,0.0321 0.340772,0.14789 0.980096,1.69261 0.780897,1.88678 0.689892,1.91788 1.009621,-0.34509 l 0.192895,-1.36528 H 62.6145 c 0.264767,0 0.295833,0.0304 0.239928,0.23515 -0.03532,0.12933 -0.237662,1.21101 -0.449648,2.40373 l -0.38543,2.16859 -0.320239,-10e-4 c -0.313789,-0.001 -0.333923,-0.0338 -0.999555,-1.61132 -0.373624,-0.88547 -0.709329,-1.55502 -0.74601,-1.48789 -0.03668,0.0671 -0.171882,0.73343 -0.300445,1.48068 -0.295395,1.71693 -0.262413,1.61991 -0.55067,1.61991 h -0.245052 z m 35.450467,1.72442 c 0.07912,-0.28563 0.640003,-3.3837 0.737914,-4.0759 l 0.07022,-0.49642 h 0.475074 c 0.393056,0 0.463967,0.0289 0.410741,0.16765 -0.06663,0.17363 -0.625614,3.26907 -0.748228,4.14339 l -0.06962,0.49643 h -0.470619 c -0.437674,0 -0.466059,-0.0165 -0.405484,-0.23515 z m 7.002676,0 c 0.0605,-0.21676 0.63637,-3.45213 0.75338,-4.23266 l 0.0509,-0.33966 0.96199,3.9e-4 c 1.15857,4.7e-4 1.49897,0.16215 1.84462,0.87617 0.6017,1.24295 0.0197,3.12824 -1.14986,3.72492 -0.32333,0.16495 -0.61522,0.20599 -1.46522,0.20599 -1.05054,0 -1.06078,-0.002 -0.99583,-0.23515 z m 2.09126,-0.30189 c 0.34433,-0.15688 0.56195,-0.63971 0.75883,-1.68359 0.19982,-1.05941 0.14087,-1.72577 -0.17529,-1.98179 -0.26596,-0.21535 -0.86468,-0.2485 -1.01809,-0.0564 -0.14469,0.18121 -0.69866,3.46614 -0.61937,3.67276 0.0768,0.20001 0.6627,0.22725 1.05392,0.049 z m 4.15648,-0.89998 c 0.15691,-0.79036 0.34465,-1.87204 0.41719,-2.40373 l 0.13188,-0.96672 h 1.21358 1.21357 l -0.0481,0.32768 -0.0481,0.32769 -0.75596,-0.0639 -0.75597,-0.0639 -0.11843,0.58972 c -0.179,0.89128 -0.19121,0.8684 0.46331,0.8684 0.57298,0 0.58125,0.004 0.54868,0.2874 -0.0319,0.2777 -0.0541,0.28741 -0.6561,0.28741 h -0.62304 l -0.0785,0.47029 c -0.0432,0.25867 -0.10726,0.63019 -0.14234,0.82562 l -0.0638,0.35533 0.7915,-0.0599 c 0.8333,-0.063 0.85225,-0.052 0.72563,0.42045 -0.0608,0.22681 -0.10623,0.23515 -1.28165,0.23515 h -1.21862 z m 4.82559,1.2053 c 0.0345,-0.13122 0.20975,-1.10863 0.38952,-2.17202 0.17977,-1.06339 0.34647,-2.03925 0.37045,-2.16858 0.0375,-0.2021 0.10896,-0.23515 0.50862,-0.23515 0.32855,0 0.4506,0.0383 0.41589,0.13063 -0.0857,0.22787 -0.67588,3.56078 -0.67588,3.81697 0,0.24134 0.0124,0.24424 0.73926,0.17262 l 0.73926,-0.0728 -0.0338,0.35392 -0.0338,0.35392 -1.24108,0.0296 -1.24108,0.0296 z m 19.43872,0.0788 c 0.0613,-0.15986 0.62917,-3.29799 0.75238,-4.15811 l 0.0711,-0.49642 h 0.46547 c 0.39497,0 0.45699,0.0277 0.40948,0.18289 -0.0787,0.25718 -0.68966,3.67995 -0.68966,3.86392 0,0.12558 0.13664,0.13862 0.80031,0.0764 0.72992,-0.0684 0.79427,-0.0592 0.73157,0.10414 -0.0378,0.0985 -0.0687,0.26935 -0.0687,0.37961 0,0.18659 -0.0876,0.20048 -1.2653,0.20048 -1.06771,0 -1.25614,-0.0239 -1.20662,-0.15294 z m 5.25612,-1.0228 c 0.12767,-0.64666 0.31652,-1.72834 0.41965,-2.40374 l 0.18752,-1.22799 h 0.45811 c 0.42267,0 0.45359,0.0182 0.39979,0.23515 -0.0748,0.30152 -0.69568,3.76005 -0.69582,3.87579 -6e-5,0.048 0.35972,0.0536 0.79951,0.0124 l 0.79962,-0.0749 -0.0666,0.2489 c -0.0366,0.1369 -0.0673,0.3077 -0.068,0.37955 -10e-4,0.097 -0.31831,0.13064 -1.23364,0.13064 h -1.23221 z m 5.07244,-0.26128 c 0.15692,-0.79036 0.34465,-1.87204 0.41719,-2.40373 l 0.13189,-0.96672 h 1.21357 1.21357 l -0.0481,0.32768 -0.0481,0.32769 -0.75596,-0.0639 -0.75596,-0.0639 -0.11844,0.58972 c -0.17899,0.89128 -0.1912,0.8684 0.46332,0.8684 0.57297,0 0.58125,0.004 0.54868,0.2874 -0.032,0.2777 -0.0541,0.28741 -0.65611,0.28741 h -0.62303 l -0.0786,0.47029 c -0.0432,0.25867 -0.10726,0.63019 -0.14234,0.82562 l -0.0638,0.35533 0.7915,-0.0599 c 0.83331,-0.063 0.85225,-0.052 0.72563,0.42045 -0.0608,0.22681 -0.10623,0.23515 -1.28164,0.23515 h -1.21863 z M 33.234277,161.234 c -0.170485,-0.17048 -0.157534,-0.40928 0.03728,-0.68741 0.278712,-0.39792 0.67339,-0.25341 0.67339,0.24657 0,0.15791 -0.361754,0.56625 -0.501649,0.56625 -0.04598,0 -0.140043,-0.0564 -0.209021,-0.12541 z m 42.749894,0.0562 c -0.17174,-0.0693 -0.167455,-0.57206 0.0069,-0.81051 0.07565,-0.10346 0.228496,-0.17083 0.339658,-0.14972 0.272904,0.0518 0.32817,0.56565 0.08924,0.82967 -0.188243,0.208 -0.220172,0.21757 -0.435804,0.13056 z m 71.737539,-4.6e-4 c -0.12892,-0.12892 -0.0711,-0.73964 0.0821,-0.86675 0.4405,-0.36558 0.79191,0.3063 0.37714,0.72107 -0.22523,0.22523 -0.34247,0.26242 -0.45921,0.14568 z m -52.22026,-3.89057 c 0,-0.10185 0.176361,-0.32538 0.391913,-0.49674 0.61565,-0.48942 0.642811,-0.4959 0.76219,-0.18191 0.135329,0.35594 0.02302,0.47549 -0.65768,0.70006 -0.467071,0.1541 -0.496423,0.15283 -0.496423,-0.0214 z m -33.997255,-0.11795 c -0.323257,-0.25428 -0.451078,-0.2597 -0.582587,-0.0247 -0.165832,0.29632 -0.261715,0.0615 -0.117276,-0.28718 0.191819,-0.46309 0.44026,-0.56425 0.762748,-0.31058 0.314185,0.24713 0.476578,0.26168 0.557825,0.0499 0.0557,-0.14515 0.351324,-0.22873 0.351324,-0.0993 0,0.16621 -0.34176,0.68188 -0.512464,0.77324 -0.149839,0.0802 -0.259448,0.056 -0.45957,-0.10141 z m 81.575825,-3.48371 c -0.78913,-0.70561 -1.2735,-0.77288 -2.77115,-0.3849 -0.73587,0.19064 -1.11736,0.22916 -1.94168,0.19605 -0.90082,-0.0362 -1.11046,-0.0828 -1.71951,-0.38267 -0.91467,-0.4503 -2.23004,-1.68457 -2.6587,-2.49479 -0.85556,-1.61714 -1.00522,-3.1319 -0.51782,-5.241 0.31069,-1.34437 0.68564,-2.10076 1.62637,-3.28089 1.71264,-2.14848 3.07705,-3.06847 5.46587,-3.68551 2.13392,-0.55121 2.66741,-0.6014 4.94618,-0.46539 1.37595,0.0821 2.07128,0.0854 2.26441,0.0105 0.33207,-0.12868 1.23668,-1.70155 1.23668,-2.15024 0,-0.17548 -0.11729,-0.40213 -0.30549,-0.59033 -0.27926,-0.27926 -0.3681,-0.3055 -1.03449,-0.3055 -0.83935,0 -1.41963,0.2539 -2.68319,1.17399 -0.84335,0.61411 -1.49615,0.92243 -2.46314,1.16335 -0.99291,0.24738 -1.49005,0.22129 -2.05135,-0.10766 -0.55787,-0.32693 -0.76375,-0.73126 -0.76375,-1.49994 0,-1.11725 0.97725,-2.25523 2.67062,-3.10985 0.90182,-0.45515 1.55125,-0.62261 3.59999,-0.92832 3.13939,-0.46845 5.88159,-0.32517 7.40909,0.38714 2.11722,0.98731 3.13356,2.46763 3.01022,4.38444 -0.0424,0.65896 -0.15429,1.03356 -0.70233,2.35148 -0.35854,0.86221 -0.7805,1.84983 -0.93768,2.19471 -0.15719,0.34488 -0.40971,0.89888 -0.56116,1.23109 -0.15145,0.33222 -0.27536,0.62717 -0.27536,0.65544 0,0.0778 -0.72535,1.91781 -0.83515,2.11854 -0.15191,0.27769 -0.52348,1.18611 -0.52348,1.27979 0,0.0468 -0.18972,0.4938 -0.4216,0.9934 -0.51685,1.11362 -0.83253,2.0319 -0.83253,2.42179 0,0.63568 0.76706,1.16952 1.68672,1.17387 0.31034,0.001 0.56939,0.0708 0.71975,0.19251 0.2188,0.17718 0.22578,0.21838 0.10173,0.60094 -0.22398,0.69069 -0.71915,1.5986 -0.93484,1.71404 -0.66949,0.3583 -4.75004,0.73126 -8.02656,0.73362 l -1.38446,0.001 z m -0.49673,-3.39525 c 0.22704,-0.1389 0.35356,-0.33341 0.45862,-0.70505 0.46159,-1.63288 1.76636,-4.79967 2.97841,-7.22883 0.4376,-0.87702 0.79563,-1.63622 0.79563,-1.68711 0,-0.15592 -0.29913,-0.21938 -1.03409,-0.21938 -0.79056,0 -1.46046,0.26343 -2.30201,0.90527 -0.85405,0.65138 -2.06485,2.29865 -2.67713,3.64221 -0.61211,1.3432 -0.81869,2.18433 -0.80819,3.29078 0.0105,1.11074 0.1063,1.45443 0.50165,1.80047 0.47844,0.41878 1.56122,0.52339 2.08711,0.20164 z m -23.14901,3.20852 c -0.75393,-0.12454 -1.7438,-0.59636 -2.16844,-1.03358 -0.18674,-0.19226 -0.44444,-0.61112 -0.57267,-0.9308 -0.20433,-0.5094 -0.23282,-0.76854 -0.2305,-2.09664 0.003,-1.71426 0.0764,-2.00227 1.22592,-4.80747 0.62599,-1.52767 3.11798,-7.9526 3.44203,-8.87436 0.24029,-0.68347 0.18393,-0.97142 -0.28116,-1.4365 -0.24571,-0.24571 -0.44517,-0.34918 -0.67315,-0.34918 -0.19101,0 -0.41515,-0.0912 -0.54611,-0.22212 -0.19537,-0.19538 -0.21597,-0.30819 -0.171,-0.93667 0.045,-0.62925 0.0996,-0.77849 0.45727,-1.25034 0.22338,-0.29469 0.54081,-0.60611 0.70539,-0.69204 0.17852,-0.0932 0.81389,-0.19272 1.57509,-0.24666 1.3665,-0.0968 2.49368,-0.29949 3.09917,-0.55717 0.45814,-0.19497 1.73089,-1.599 2.42988,-2.68051 0.27814,-0.43035 0.74844,-1.15869 1.0451,-1.61854 0.32857,-0.50929 0.66194,-0.89735 0.85293,-0.99284 0.23689,-0.11845 0.69673,-0.15677 1.88118,-0.15677 1.78429,0 2.23348,0.13233 2.59778,0.7653 l 0.19986,0.34726 -0.28055,0.85154 c -0.1543,0.46835 -0.63093,1.54699 -1.05916,2.39699 -0.75804,1.50462 -0.90626,2.01651 -0.68502,2.36573 0.0682,0.10767 0.6096,0.16491 2.20627,0.23327 1.3895,0.0595 2.16869,0.13443 2.26971,0.21826 0.10549,0.0876 0.13553,0.24041 0.0956,0.48647 -0.0743,0.45815 -0.98336,1.95794 -1.26416,2.08575 -0.11823,0.0538 -0.89928,0.0738 -1.75088,0.0449 -1.50024,-0.051 -1.55103,-0.0456 -2.10025,0.22309 -0.32024,0.15668 -0.82014,0.54514 -1.15985,0.90129 -0.63751,0.66835 -0.691,0.77043 -2.38348,4.54769 -3.32505,7.42084 -3.42678,7.66768 -3.42678,8.31487 0,1.00261 1.02496,0.96517 3.33362,-0.12177 1.28649,-0.60569 1.76062,-0.6592 2.09333,-0.23623 0.26126,0.33214 0.26813,0.47279 0.046,0.94094 -0.38145,0.80386 -1.77822,2.05216 -3.43717,3.07183 -1.07803,0.66261 -1.8532,0.98482 -3.10475,1.29054 -0.92445,0.22582 -1.34634,0.27175 -2.40373,0.26167 -0.70537,-0.007 -1.54115,-0.0549 -1.8573,-0.10717 z m -38.459747,-0.19414 c -0.114961,-0.11496 -0.20902,-0.28466 -0.20902,-0.37712 0,-0.12141 -0.0653,-0.15237 -0.235148,-0.11149 -0.889159,0.21401 -1.760301,0.31227 -2.847903,0.32122 -1.16322,0.01 -1.295786,-0.0102 -1.828929,-0.27265 -0.672669,-0.33114 -1.67356,-1.27321 -2.141828,-2.01595 -0.945635,-1.49991 -1.493549,-4.64722 -1.20991,-6.94993 0.138758,-1.1265 0.624978,-3.14327 0.99021,-4.10723 0.938651,-2.47741 2.462763,-4.92968 3.836454,-6.1728 2.634628,-2.3842 5.295308,-3.27042 8.087757,-2.69387 1.243949,0.25683 2.651129,0.91424 3.483498,1.62742 0.306467,0.26258 0.597199,0.47742 0.646072,0.47742 0.191325,0 0.514317,-0.62488 0.886478,-1.71503 0.5571,-1.63189 0.434709,-2.21121 -0.582606,-2.75771 -0.408958,-0.21969 -0.548808,-0.2407 -1.216998,-0.18285 -1.110264,0.0961 -1.701046,-0.27881 -1.701046,-1.07955 0,-0.49349 0.632627,-1.58915 1.15767,-2.00499 0.777814,-0.61604 0.795502,-0.61775 5.33142,-0.5136 2.265282,0.052 4.66867,0.0962 5.340861,0.0982 1.114805,0.003 1.245905,0.0243 1.492435,0.23883 0.20081,0.17472 0.28624,0.37289 0.33241,0.77109 0.0588,0.50727 0.0143,0.64144 -0.831675,2.50825 -0.491596,1.08476 -1.151777,2.56017 -1.46707,3.27868 -0.567338,1.29288 -0.944937,2.13158 -1.552739,3.44884 -0.172395,0.37362 -0.499274,1.10258 -0.726396,1.6199 -0.227122,0.51733 -0.458876,1.02423 -0.51501,1.12646 -0.05613,0.10222 -0.377532,0.80767 -0.714219,1.56765 -0.336687,0.75999 -1.209975,2.69862 -1.94064,4.30808 -2.037854,4.48884 -2.067178,4.56657 -2.080778,5.51615 -0.01283,0.8961 0.05675,1.01083 0.615414,1.01472 0.510837,0.004 1.106767,0.20994 1.371981,0.47516 0.18885,0.18885 0.247927,0.36219 0.247927,0.72745 0,0.42654 -0.05376,0.537 -0.486551,0.99968 -0.267603,0.28609 -0.585052,0.54328 -0.705444,0.57154 -0.157296,0.0369 -9.862918,0.467 -10.538657,0.467 -0.04345,0 -0.173059,-0.0941 -0.28802,-0.20902 z m -0.190527,-3.25774 c 0.510103,-0.21944 0.54293,-0.26002 0.993252,-1.22799 0.256143,-0.55058 0.740524,-1.68299 1.076403,-2.51645 0.723866,-1.79625 1.658199,-3.83909 2.773207,-6.06341 1.15631,-2.30671 1.513766,-3.18074 1.513766,-3.70136 0,-0.52947 -0.175896,-0.72075 -0.820688,-0.89247 -1.182771,-0.315 -3.474014,1.06906 -4.783987,2.88984 -1.32563,1.84253 -2.565303,5.11098 -2.976597,7.8479 -0.147321,0.98034 -0.01954,2.18706 0.300933,2.84205 0.163689,0.33455 1.046796,1.04883 1.296721,1.04883 0.0547,0 0.336844,-0.10212 0.62699,-0.22694 z m -45.532682,3.25999 c -2.19532,-0.0696 -2.38326,-0.10974 -2.761416,-0.59049 -0.176366,-0.22421 -0.217326,-0.42543 -0.218198,-1.07189 -5.9e-4,-0.43772 -0.116616,-2.34784 -0.257837,-4.2447 -0.14122,-1.89686 -0.308247,-4.15428 -0.371171,-5.01649 -0.12474,-1.70925 -0.406925,-4.36444 -0.716401,-6.7409 -0.108539,-0.83347 -0.298428,-2.45599 -0.421974,-3.60561 -0.277917,-2.58604 -0.513443,-3.52526 -1.004663,-4.00634 -0.407717,-0.39931 -1.238311,-0.74887 -1.779385,-0.74887 -1.009802,0 -1.606595,-0.98527 -1.141532,-1.8846 0.329923,-0.63801 0.169756,-0.62368 6.969096,-0.62325 6.009715,3.8e-4 6.207785,0.007 6.539682,0.20907 0.564274,0.34403 0.719501,1.12475 0.34556,1.738 -0.242653,0.39794 -0.793181,0.82233 -1.187943,0.91576 -0.615746,0.14574 -0.621817,0.53778 -0.06975,4.50474 0.231979,1.66694 0.466558,3.78327 0.521287,4.70296 0.05473,0.91969 0.146677,2.18949 0.204328,2.82178 0.05765,0.63229 0.107691,1.80803 0.1112,2.61275 0.0035,0.80473 0.04079,1.65126 0.08284,1.88119 l 0.07646,0.41804 0.275314,-0.41804 c 0.304526,-0.4624 1.192184,-1.90114 1.869908,-3.0308 0.241392,-0.40236 0.560102,-0.91969 0.708242,-1.14961 0.148141,-0.22992 0.323469,-0.51838 0.389617,-0.64101 0.105238,-0.1951 1.169938,-1.91619 1.608448,-2.60006 0.813134,-1.26812 3.480073,-5.56596 3.632425,-5.85376 0.201273,-0.38021 0.466107,-1.55495 0.458066,-2.03187 -0.0098,-0.58187 -0.186133,-1.02276 -0.441432,-1.10379 -0.107436,-0.0341 -0.337526,-0.23449 -0.511311,-0.44532 -0.422845,-0.51299 -0.443684,-1.24886 -0.0517,-1.82571 0.470857,-0.69293 0.264719,-0.67264 6.167705,-0.60714 5.958858,0.0661 5.749272,0.0382 6.071646,0.80972 0.198187,0.47432 0.105791,0.88895 -0.301453,1.35278 -0.40245,0.45836 -0.656738,0.58764 -1.717301,0.87304 -0.469968,0.12647 -0.921807,0.30803 -1.004087,0.40347 -0.326186,0.37836 -11.921155,17.70592 -13.263781,19.82144 -0.547205,0.86221 -1.402465,2.24959 -1.900577,3.08306 -0.498112,0.83346 -1.068426,1.66824 -1.267363,1.85505 l -0.361705,0.33966 -1.595315,-0.018 c -0.877424,-0.01 -2.535907,-0.0478 -3.685519,-0.0842 z m 15.568062,-0.11963 c -1.080424,-0.17541 -1.003712,-1.46264 0.15357,-2.57692 0.620436,-0.59739 0.841373,-0.70362 1.783825,-0.85768 0.746103,-0.12197 1.474526,-0.4293 1.935719,-0.81672 0.116215,-0.0976 0.573673,-0.67592 1.016573,-1.28511 0.736181,-1.01258 1.275767,-1.98728 2.217716,-4.00605 0.189625,-0.4064 0.726468,-1.53034 1.192984,-2.49764 0.466516,-0.9673 0.848211,-1.77212 0.848211,-1.78848 0,-0.0164 0.334955,-0.72987 0.744344,-1.58559 1.105453,-2.31065 1.24991,-2.66032 1.312111,-3.1761 0.08263,-0.68521 -0.144362,-0.92288 -0.996042,-1.04289 -0.801653,-0.11296 -1.06077,-0.31547 -1.059432,-0.82802 0.0013,-0.48156 0.494086,-1.34759 0.976086,-1.71523 l 0.367619,-0.28039 h 4.716803 c 3.035209,0 4.788485,0.0384 4.91787,0.10761 0.463462,0.24803 0.619976,1.03157 0.286358,1.43355 -0.119115,0.14353 -0.79005,1.59795 -1.458553,3.1618 -0.233429,0.54606 -0.487386,1.11042 -0.564349,1.25412 -0.07696,0.1437 -0.28842,0.59048 -0.469905,0.99285 -0.33848,0.75043 -1.79208,3.91889 -2.397312,5.2255 -0.186378,0.40237 -0.634054,1.38999 -0.994836,2.19472 -0.360782,0.80473 -0.825484,1.83023 -1.032671,2.27889 -0.382006,0.82722 -0.477305,1.46601 -0.275083,1.84386 0.05589,0.10444 0.42037,0.31685 0.809954,0.47204 1.032265,0.41119 1.178629,0.57988 1.178629,1.35836 0,0.80925 -0.305366,1.43522 -0.909573,1.86453 l -0.439277,0.31213 -6.730099,0.011 c -3.701554,0.006 -6.910612,-0.0183 -7.13124,-0.0541 z m 44.498069,-0.20735 c -0.285983,-0.10579 -0.547802,-0.49956 -0.546556,-0.82201 0.002,-0.50607 0.474708,-1.30305 1.107479,-1.86703 0.338538,-0.30174 0.709671,-0.56733 0.824741,-0.59021 0.11507,-0.0229 0.538425,-0.0971 0.94079,-0.16499 0.877206,-0.14795 1.615702,-0.52116 2.069673,-1.04594 1.327358,-1.53442 1.761128,-2.33404 5.296748,-9.76426 1.88089,-3.95274 1.88252,-3.95668 1.88262,-4.55466 1.3e-4,-0.67222 -0.10344,-0.76434 -0.99274,-0.88302 -0.54454,-0.0727 -0.88667,-0.20867 -1.01737,-0.40441 -0.26233,-0.39287 0.21867,-1.52697 0.89211,-2.10341 l 0.43109,-0.369 4.84657,0.0291 4.84656,0.0291 0.25216,0.29323 c 0.13869,0.16128 0.25216,0.42218 0.25216,0.57978 0,0.15761 -0.24138,0.77813 -0.5364,1.37894 -0.29502,0.60081 -0.68839,1.4451 -0.87415,1.8762 -0.18577,0.43111 -0.50254,1.13655 -0.70394,1.56766 -1.22039,2.61232 -2.93109,6.31188 -3.79361,8.20405 -0.41923,0.91969 -0.97776,2.14246 -1.24119,2.71726 -0.26342,0.57481 -0.47917,1.19161 -0.47945,1.37067 -7.5e-4,0.48239 0.34267,0.83778 1.0636,1.10064 0.91905,0.3351 1.13116,0.58361 1.12831,1.32194 -0.003,0.77484 -0.2711,1.3524 -0.83525,1.79921 l -0.44752,0.35445 -7.07738,0.0125 c -3.892556,0.007 -7.172631,-0.0227 -7.289055,-0.0658 z m 2.283219,-14.5941 c 0.588262,-1.38656 2.336674,-5.16983 2.632026,-5.69527 0.23911,-0.42537 1.69324,-2.00873 4.9882,-5.43147 7.2425,-7.52339 14.94717,-15.19789 18.55056,-18.47795 0.40236,-0.36626 0.91969,-0.85127 1.14961,-1.0778 1.11452,-1.09807 6.33264,-5.47718 7.57699,-6.3587 0.25866,-0.18324 0.85159,-0.62896 1.31761,-0.99048 0.46602,-0.36153 1.07741,-0.813019 1.35863,-1.003321 0.28123,-0.190301 0.9581,-0.653857 1.50417,-1.030123 0.83247,-0.57362 2.66679,-1.750831 3.23981,-2.079226 0.0862,-0.04941 0.55652,-0.323385 1.0451,-0.608828 0.48859,-0.285443 1.49972,-0.808247 2.24697,-1.161785 0.74725,-0.353539 1.47621,-0.705838 1.61991,-0.782886 1.11598,-0.598351 4.57971,-1.811978 6.28371,-2.201693 0.65382,-0.149533 1.44753,-0.339069 1.7638,-0.421191 0.76551,-0.198771 2.94916,-0.437461 4.75499,-0.519755 5.35277,-0.243935 10.74142,1.164267 16.31042,4.262356 0.73008,0.40615 3.15232,1.992101 3.72463,2.438678 0.21292,0.166147 0.70673,0.537233 1.09735,0.824636 0.83664,0.615561 2.95601,2.375708 4.20747,3.494328 1.9626,1.75427 6.82105,6.76724 8.03684,8.29243 0.19332,0.24251 0.56955,0.67656 0.83608,0.96454 0.46192,0.49912 1.98423,2.31751 2.70323,3.229 0.1856,0.23529 0.62193,0.78052 0.96963,1.21163 0.77066,0.95552 2.03951,2.60275 2.42604,3.14949 0.15636,0.22117 0.46206,0.6342 0.67932,0.91784 0.3629,0.47376 0.63706,0.8507 1.95544,2.68844 0.25329,0.35305 0.53715,0.77632 0.63081,0.94059 0.0937,0.16427 0.37629,0.58085 0.62805,0.92573 0.77063,1.05566 1.84547,2.77967 1.80628,2.89722 -0.0341,0.10243 -0.92781,-0.96042 -1.93638,-2.30296 -0.46387,-0.61748 -2.71335,-3.36011 -3.52526,-4.2981 -4.19782,-4.84972 -9.19042,-9.86493 -13.12345,-13.18291 -6.27892,-5.29703 -12.68962,-8.68722 -18.4809,-9.773331 -2.05379,-0.385171 -2.46866,-0.436353 -4.55617,-0.562083 -5.3434,-0.321832 -10.66986,0.787879 -16.96386,3.534244 -2.90415,1.26721 -7.82119,4.16458 -11.3267,6.67426 -2.29196,1.64088 -2.91679,2.09981 -3.57967,2.62929 -0.40533,0.32375 -1.06616,0.8383 -1.46852,1.14344 -1.11307,0.84412 -3.78941,3.0598 -5.38978,4.46207 -0.78721,0.68977 -1.73071,1.50653 -2.09666,1.81502 -1.01857,0.85865 -4.0063,3.52367 -4.94703,4.41271 -1.27491,1.20485 -1.1029,1.14009 -3.03117,1.14126 -1.53727,9.4e-4 -1.71801,0.0212 -2.19759,0.24591 -0.84052,0.3939 -1.38325,1.08024 -2.28622,2.89117 -0.62394,1.25133 -0.82063,1.75366 -0.86859,2.21831 l -0.062,0.60067 -1.16112,9.8e-4 c -1.09271,9.3e-4 -1.19266,0.0191 -1.69661,0.30812 -0.64899,0.37223 -1.5227,1.32755 -1.87813,2.05358 -0.23954,0.48929 -0.25992,0.64113 -0.24463,1.82281 l 0.0167,1.28906 -0.56188,0.52867 c -0.30904,0.29077 -1.49533,1.41047 -2.636188,2.48824 -1.140863,1.07776 -2.114383,1.95956 -2.163378,1.95956 -0.049,0 0.0057,-0.22339 0.12153,-0.49642 z m -32.479981,-9.03276 c -0.26424,-0.32962 -0.243956,-0.6031 0.108403,-1.46159 0.196654,-0.47912 0.588412,-1.29076 0.870573,-1.80364 0.738151,-1.34171 0.537113,-1.28137 4.487379,-1.34688 3.700712,-0.0614 3.738424,-0.0553 3.772195,0.60967 0.0169,0.33286 -0.139129,0.73763 -0.783827,2.03333 -0.538294,1.08185 -0.902614,1.68769 -1.099812,1.82893 -0.279251,0.2 -0.479043,0.21297 -3.769577,0.24469 -2.784471,0.0268 -3.496674,0.006 -3.585334,-0.10451 z m 44.840697,-0.45934 c -0.1721,-0.26266 -0.16916,-0.30407 0.0706,-0.99552 0.1376,-0.39681 0.53624,-1.247 0.88586,-1.88932 0.50722,-0.93183 0.70862,-1.20474 0.99658,-1.35042 0.31686,-0.1603 0.77652,-0.18674 3.76725,-0.21673 2.77141,-0.0278 3.43862,-0.007 3.57947,0.10929 0.34886,0.28903 0.20482,0.8221 -0.69372,2.56743 -0.72035,1.39922 -0.91427,1.69521 -1.21188,1.84977 -0.31621,0.16423 -0.7231,0.18485 -3.78445,0.19179 l -3.43015,0.008 z m -3.36504,-6.74694 c 0.93435,-1.1104 1.70056,-2.46586 2.19278,-3.87917 0.2441,-0.70086 0.24823,-0.70545 0.63537,-0.70545 0.38136,0 0.38739,0.006 0.28267,0.28741 -0.19937,0.53548 -1.26235,2.58535 -1.44972,2.79564 -0.10243,0.11496 -0.2318,0.2949 -0.28749,0.39987 -0.16649,0.31377 -1.21071,1.33401 -1.53965,1.50428 -0.28286,0.14642 -0.27031,0.11599 0.16604,-0.40258 z m -4.18912,-0.38884 c -0.92721,-0.96602 -1.0565,-1.15514 -1.77032,-2.58958 -0.839188,-1.68636 -0.837132,-1.6772 -0.38823,-1.72961 0.36091,-0.0421 0.36655,-0.0365 0.59105,0.58911 0.40676,1.13357 1.33255,2.91474 1.91718,3.68858 0.31484,0.41674 0.51963,0.7577 0.45509,0.7577 -0.0645,0 -0.42669,-0.32229 -0.80477,-0.7162 z m -3.352434,0.20426 c -1.278543,-0.47752 -2.622412,-1.17921 -3.689109,-1.92622 -0.342318,-0.23973 -0.781174,-0.54247 -0.975237,-0.67276 -0.567644,-0.3811 -2.508978,-2.29408 -3.394073,-3.3445 -0.769912,-0.91372 -2.256812,-3.03058 -2.170884,-3.09062 0.26219,-0.18322 0.637757,-0.3917 0.656903,-0.36465 0.01342,0.019 0.301164,0.48126 0.639429,1.02733 1.393659,2.2498 3.167415,4.30686 4.90688,5.69059 1.281795,1.01966 1.954141,1.44265 3.608051,2.26992 0.775988,0.38813 1.363854,0.70524 1.306377,0.70469 -0.05748,-5.6e-4 -0.457232,-0.13276 -0.888337,-0.29378 z m -2.508244,0.0198 c -0.143702,-0.0251 -0.849146,-0.23776 -1.567653,-0.47252 -6.843489,-2.23596 -12.461537,-6.63609 -15.822597,-12.39249 -0.379508,-0.64997 -0.690014,-1.22609 -0.690014,-1.28025 0,-0.0542 0.181776,-0.0985 0.403947,-0.0985 0.244724,0 0.507935,-0.0818 0.667765,-0.20751 0.312912,-0.24614 0.340324,-0.22242 0.783304,0.67781 1.34205,2.72733 3.365603,5.38538 5.738763,7.53816 2.760551,2.50421 5.311871,4.041 9.334474,5.62266 0.83215,0.32719 1.533675,0.61557 1.558944,0.64084 0.04814,0.0481 0.01754,0.046 -0.406933,-0.0282 z m 12.736948,-5.22281 c -0.81249,-0.50426 -0.80303,-1.67668 0.0175,-2.16135 0.80906,-0.47793 1.87702,0.13837 1.87702,1.08319 0,0.94694 -1.09855,1.57213 -1.89448,1.07816 z m -10.346507,-0.10451 c -0.812497,-0.50426 -0.803027,-1.67668 0.01746,-2.16135 0.809064,-0.47793 1.877017,0.13837 1.877017,1.08319 0,0.94694 -1.09854,1.57213 -1.894473,1.07816 z m 11.587797,-2.83348 c -0.21555,-0.0187 -0.39191,-0.0791 -0.39191,-0.13425 0,-0.0551 0.13753,-0.79303 0.30562,-1.63973 0.40155,-2.02262 0.81444,-5.12826 1.00707,-7.57491 l 0.0638,-0.80995 h 0.56788 c 0.53342,0 0.56498,0.0143 0.52004,0.23515 -0.0263,0.12933 -0.0766,0.6785 -0.11166,1.22038 -0.10179,1.57182 -0.64451,5.19884 -0.98634,6.59175 -0.10579,0.43111 -0.2516,1.07914 -0.324,1.44008 -0.0724,0.36093 -0.1602,0.66732 -0.1951,0.68085 -0.0349,0.0135 -0.23982,0.009 -0.45537,-0.009 z m -11.888034,-0.18977 c 0,-0.0351 -0.139591,-0.6818 -0.310201,-1.43701 -0.416737,-1.8447 -0.912361,-4.9447 -1.046623,-6.54637 -0.06023,-0.71851 -0.13644,-1.48274 -0.169355,-1.69829 l -0.05985,-0.39191 h 0.583992 c 0.321196,0 0.583993,0.0447 0.583993,0.0995 0,1.26109 0.761897,7.1478 1.151489,8.89684 0.113929,0.51147 0.207143,0.97748 0.207143,1.03557 0,0.0581 -0.211633,0.10562 -0.470296,0.10562 -0.258662,0 -0.470295,-0.0288 -0.470295,-0.0639 z m -11.195884,-1.5752 c -0.812497,-0.50425 -0.803028,-1.67668 0.01746,-2.16135 0.809064,-0.47793 1.87702,0.13837 1.87702,1.08319 0,0.94694 -1.098544,1.57213 -1.894476,1.07816 z m 33.247538,-1.44875 c 0,-0.5841 0.6103,-1.19706 1.19186,-1.19706 0.40366,0 0.33484,0.16599 -0.31731,0.76539 -0.79806,0.73352 -0.87455,0.77127 -0.87455,0.43167 z m -33.940327,-1.8431 c -0.877178,-1.983 -1.814409,-5.96739 -2.068084,-8.79191 l -0.07327,-0.815864 0.561511,0.03203 0.561511,0.03203 0.07881,0.836084 c 0.2713,2.87833 1.223153,7.08235 2.005409,8.85723 0.06683,0.15165 0.02659,0.1829 -0.235557,0.1829 -0.17389,0 -0.386771,0.0271 -0.473068,0.0602 -0.110578,0.0424 -0.216056,-0.0735 -0.357253,-0.39272 z m 35.680017,0.0467 c -0.47229,-0.0488 -0.48244,0.10569 0.12192,-1.85666 0.76146,-2.47248 1.24459,-5.18082 1.44016,-8.073414 l 0.0724,-1.07123 h 0.50145 c 0.27579,0 0.52995,0.04613 0.5648,0.102518 0.18635,0.301521 -0.41903,4.934836 -0.89213,6.827926 -0.47341,1.89438 -1.25397,4.22633 -1.38242,4.13007 -0.0129,-0.01 -0.20469,-0.0363 -0.42621,-0.0592 z m -49.030923,-0.90196 c -0.30996,-0.47306 -0.08621,-0.71701 1.062425,-1.15831 2.747943,-1.05576 2.581696,-0.97225 2.775685,-1.39433 0.559733,-1.21786 2.380613,-0.83498 2.380613,0.50058 0,0.92036 -1.137664,1.59593 -1.84878,1.09784 -0.206186,-0.14442 -0.356434,-0.10475 -1.979052,0.52255 -0.965759,0.37336 -1.862354,0.67884 -1.992433,0.67884 -0.13335,0 -0.307146,-0.10781 -0.398458,-0.24717 z M 8.4329886,107.24987 c 0.09911,-0.18055 1.8868254,-2.34601 3.5125624,-4.25475 0.459844,-0.5399 1.188141,-1.39657 1.618435,-1.90372 0.803486,-0.947 3.372748,-3.84135 4.483013,-5.050247 0.34314,-0.373624 0.850785,-0.932094 1.128099,-1.241045 2.199212,-2.450109 7.21135,-7.477234 8.920398,-8.947072 0.199466,-0.171548 0.791823,-0.688873 1.31635,-1.149612 1.532767,-1.346368 3.783998,-3.180977 4.779528,-3.895009 0.342256,-0.245479 0.638032,-0.45364 1.687011,-1.187283 4.289117,-2.999757 8.983169,-5.24984 13.53407,-6.487525 1.579193,-0.429485 2.954573,-0.669213 4.650703,-0.810615 0.517326,-0.04313 1.01405,-0.11071 1.103832,-0.150183 0.290521,-0.12773 3.868138,-0.128574 5.48031,-0.0013 2.105333,0.166216 4.98621,0.687403 6.897673,1.247876 1.674874,0.491101 4.173502,1.36398 4.723896,1.650262 0.183958,0.09568 0.388569,0.17397 0.454693,0.17397 0.06612,0 0.754469,0.305692 1.529658,0.679316 0.775188,0.373624 1.425954,0.679316 1.446146,0.679316 0.03093,0 1.184389,0.616047 3.028198,1.617325 0.480493,0.260931 1.835701,1.076726 2.638882,1.588528 0.301773,0.192296 0.548679,0.411495 0.548679,0.487109 0,0.07561 -0.11476,0.245291 -0.255022,0.37706 -0.140261,0.131769 -0.622315,0.704278 -1.071229,1.272242 -0.448915,0.567963 -0.888046,1.032705 -0.975847,1.032759 -0.0878,5.5e-5 -0.252405,-0.06446 -0.365786,-0.143357 -0.215711,-0.150111 -1.500328,-0.705014 -3.445963,-1.488518 -0.632286,-0.25462 -1.2907,-0.526614 -1.463142,-0.60443 -1.334177,-0.602058 -5.237161,-1.730078 -7.629244,-2.204963 -3.29217,-0.653573 -4.582831,-0.782884 -7.942775,-0.795785 -3.985202,-0.0153 -6.912715,0.330572 -10.398764,1.228571 -2.003521,0.516104 -2.413666,0.645187 -4.478153,1.409393 -2.793385,1.03402 -6.117051,2.636578 -8.742387,4.215278 -1.247836,0.750365 -4.171577,2.669088 -4.90785,3.220807 -0.170171,0.127516 -0.969674,0.720614 -1.776673,1.317996 -0.806999,0.597382 -1.589396,1.185252 -1.73866,1.306378 -0.149263,0.121125 -0.475375,0.384832 -0.724692,0.586014 -0.249318,0.201182 -0.738693,0.600933 -1.087502,0.888336 -0.348808,0.287403 -0.963288,0.790804 -1.365511,1.118668 -0.402223,0.327864 -0.902768,0.75113 -1.112322,0.940592 -0.209555,0.189461 -0.863522,0.767741 -1.45326,1.285067 -2.348049,2.059735 -7.292979,6.875951 -11.0943695,10.805581 -1.2192224,1.26035 -1.7160663,1.66623 -1.4529849,1.18696 z m 68.4847894,-3.02836 c -0.142845,-0.2777 -0.718202,-2.78398 -0.858274,-3.73867 -0.224015,-1.526831 -0.252299,-4.493101 -0.05855,-6.139999 0.236323,-2.008743 0.231035,-1.988082 0.475335,-1.857337 0.109769,0.05875 0.513463,0.106813 0.897097,0.106813 0.678423,0 0.695843,0.0067 0.636351,0.243706 -0.3077,1.225975 -0.409044,5.301881 -0.181036,7.281027 0.06953,0.60355 0.264948,1.69129 0.434258,2.4172 0.169309,0.72591 0.307836,1.37257 0.307836,1.43701 0,0.0718 -0.213782,0.11718 -0.551552,0.11718 -0.324875,0 -0.644965,0.0654 -0.778845,0.1592 -0.206674,0.14476 -0.235942,0.14239 -0.322624,-0.0261 z m 34.664952,-1.24963 c -0.8125,-0.50425 -0.80303,-1.67668 0.0174,-2.16135 0.5799,-0.34255 1.35544,-0.13332 1.70609,0.4603 0.63915,1.08199 -0.65809,2.3623 -1.72354,1.70105 z m -14.631431,-0.10451 c -0.812496,-0.50425 -0.803027,-1.67668 0.01746,-2.16135 0.579899,-0.34255 1.355435,-0.13332 1.70609,0.4603 0.639148,1.08199 -0.658089,2.3623 -1.723546,1.70105 z m 34.893661,-2.35841 c 0.19704,-1.154499 0.19597,-5.472301 -0.002,-7.028307 -0.0846,-0.666098 -0.10771,-1.200244 -0.0549,-1.269996 0.0502,-0.06621 0.20892,-0.149928 0.3528,-0.186037 0.91352,-0.229279 3.22064,-1.596016 4.19976,-2.48794 1.46331,-1.332983 2.7489,-3.043243 3.32624,-4.425016 0.14587,-0.349121 0.16274,-0.358165 0.38189,-0.204671 0.1261,0.08832 0.3824,0.16059 0.56956,0.16059 h 0.34028 l -0.27216,0.757699 c -1.07454,2.991558 -3.31065,5.669287 -6.11458,7.322171 l -0.91982,0.542221 0.076,0.679316 c 0.13286,1.186691 0.0849,5.246816 -0.0652,5.518153 -0.12622,0.228187 -1.72376,1.484027 -1.88781,1.484027 -0.0427,0 -0.0113,-0.38799 0.0696,-0.86221 z m -20.18199,-4.702955 c -0.037,-2.313594 -0.0967,-4.594529 -0.13278,-5.068744 l -0.0655,-0.862209 h 0.53125 c 0.51876,0 0.53249,0.008 0.58444,0.339658 0.23345,1.490599 0.44074,6.99965 0.3264,8.674346 l -0.0767,1.123484 h -0.54991 -0.5499 z m -14.859321,2.97897 c -0.08612,-1.263486 -0.0016,-4.527057 0.177352,-6.845847 l 0.118948,-1.541525 h 0.559383 c 0.463634,0 0.55913,0.03131 0.557907,0.182892 -8.12e-4,0.100591 -0.04931,0.982396 -0.10778,1.959567 -0.05847,0.97717 -0.107721,3.034714 -0.109452,4.57232 l -0.0031,2.795648 H 97.438528 96.880196 Z M 84.410076,98.477943 c -0.812496,-0.504253 -0.803027,-1.676677 0.01746,-2.161349 0.579899,-0.342554 1.355435,-0.133319 1.70609,0.460293 0.639148,1.081992 -0.658089,2.362301 -1.723546,1.701056 z M 123.81042,97.11931 c -0.8125,-0.504253 -0.80303,-1.676677 0.0175,-2.161349 0.57989,-0.342554 1.35543,-0.133319 1.70608,0.460294 0.63915,1.081992 -0.65808,2.362301 -1.72354,1.701055 z M 84.619019,95.470394 c -0.07864,-0.07864 0.09498,-1.882414 0.332344,-3.452883 0.323963,-2.143398 1.247792,-5.631442 1.48402,-5.603124 0.04322,0.0052 0.260759,0.03855 0.483428,0.07416 l 0.404852,0.06474 -0.195566,0.641909 c -0.575555,1.889157 -1.095685,4.541554 -1.288927,6.572863 -0.03144,0.330514 -0.08407,0.859597 -0.116943,1.17574 l -0.05978,0.574806 h -0.497612 c -0.273687,0 -0.519306,-0.02169 -0.54582,-0.04821 z m 39.309201,-1.555069 c 0,-0.212714 -0.0784,-0.262028 -0.60093,-0.377825 -1.27977,-0.283626 -3.65925,-1.3441 -4.75245,-2.118045 -1.4002,-0.991301 -2.91216,-2.422298 -3.78502,-3.582352 -0.6292,-0.836239 -1.57947,-2.432991 -1.49701,-2.515456 0.0304,-0.0304 0.5228,0.499624 1.09421,1.177835 1.28877,1.529633 2.72105,2.825402 4.24448,3.839937 1.98224,1.320081 3.31074,1.85182 5.24447,2.099128 0.2874,0.03676 0.60092,0.08831 0.69671,0.11457 0.22319,0.06118 0.40064,0.571481 0.40064,1.152152 v 0.454701 h -0.52255 c -0.47824,0 -0.52255,-0.02075 -0.52255,-0.244645 z m 4.18379,-1.877943 c 0.0306,-0.03381 0.4417,-0.2547 0.91355,-0.490867 1.37842,-0.689925 2.82512,-1.856769 4.07959,-3.290434 0.36362,-0.415561 0.48316,-0.493942 0.62084,-0.407093 0.0938,0.05916 0.18679,0.156381 0.20668,0.216054 0.0611,0.183279 -1.40917,1.672211 -2.36182,2.391803 -1.0494,0.792679 -2.3733,1.477252 -3.04418,1.574109 -0.25866,0.03734 -0.44526,0.04024 -0.41466,0.0064 z M 76.87759,91.784586 c -0.155277,-0.09631 -0.35976,-0.318902 -0.454407,-0.494651 -0.152131,-0.282489 -0.3436,-0.378746 -1.651118,-0.830066 -0.813467,-0.280787 -1.537818,-0.556512 -1.609669,-0.612721 -0.203649,-0.159317 -0.153698,-0.650402 0.08844,-0.869538 0.216404,-0.195843 0.237961,-0.191694 1.763474,0.339433 l 1.544392,0.5377 0.300603,-0.198178 c 0.800689,-0.527868 1.92051,0.08704 1.92051,1.054568 0,0.951815 -1.098708,1.57183 -1.902229,1.073453 z m 47.36416,0.02071 c 0,-0.0305 0.16314,-0.198682 0.36252,-0.373746 0.66388,-0.582888 2.49151,-3.253581 2.80709,-4.101957 0.0564,-0.151654 0.13461,-0.178304 0.35837,-0.122143 0.15742,0.03951 0.30157,0.08719 0.32034,0.105961 0.0618,0.06176 -1.13778,1.971716 -1.71301,2.727512 -0.71861,0.944187 -1.64246,1.819821 -1.92003,1.819821 -0.1184,0 -0.21528,-0.02495 -0.21528,-0.05545 z m -2.59737,-0.709843 c -0.0631,-0.07603 -0.19687,-0.440506 -0.29728,-0.809954 -0.14328,-0.527182 -0.18226,-1.087763 -0.18115,-2.605162 0.002,-2.329457 0.0354,-2.508245 0.47334,-2.508245 0.29343,0 0.31501,0.02374 0.26134,0.287403 -0.35873,1.762321 -0.35846,4.406324 5.7e-4,5.591295 0.0652,0.215224 -0.0925,0.242652 -0.25682,0.04466 z m -2.81588,-1.47189 c -1.33415,-1.247944 -2.55383,-4.351526 -2.70762,-6.889786 l -0.0623,-1.027428 0.30307,0.03458 c 0.29954,0.03418 0.30335,0.0431 0.32745,0.766152 0.0368,1.102852 0.32138,2.71258 0.66008,3.733366 0.44854,1.351822 0.90309,2.194709 1.96716,3.647816 0.24529,0.334958 0.026,0.215992 -0.48789,-0.264701 z m -21.66818,-0.02899 c -0.812497,-0.504253 -0.803028,-1.676677 0.01746,-2.161348 0.579898,-0.342555 1.355434,-0.13332 1.70609,0.460293 0.639148,1.081992 -0.658089,2.362301 -1.723546,1.701055 z m 14.10888,-0.522551 c -0.8125,-0.504253 -0.80303,-1.676677 0.0174,-2.161348 0.5799,-0.342555 1.35544,-0.133319 1.70609,0.460293 0.63915,1.081992 -0.65809,2.362301 -1.72354,1.701055 z m -32.639994,-0.08863 c -0.113066,-0.08552 -0.425338,-0.153441 -0.705444,-0.153441 -0.378419,0 -0.502576,-0.03896 -0.502576,-0.157725 0,-0.227754 0.85585,-2.189273 1.276379,-2.925326 1.036267,-1.813784 1.839315,-2.989867 2.94365,-4.311045 0.348336,-0.416735 0.681798,-0.756321 0.741027,-0.754636 0.05923,0.0017 0.265929,0.14693 0.459333,0.322767 l 0.351645,0.319704 -0.322866,0.434932 c -1.595286,2.149008 -3.129657,4.993716 -3.771837,6.992946 -0.139645,0.434742 -0.176779,0.453084 -0.469311,0.231824 z m 55.600734,-1.780814 c -0.41929,-0.419296 0.0768,-1.147197 0.61481,-0.902067 0.33599,0.153083 0.42819,0.492507 0.22007,0.810139 -0.19356,0.295397 -0.58798,0.338827 -0.83488,0.09193 z m -36.742654,-0.69798 c 7.9e-5,-0.07185 0.07318,-0.530389 0.162443,-1.018974 0.08927,-0.488586 0.207117,-1.194029 0.261894,-1.567653 0.115202,-0.785782 0.566842,-2.832454 0.800982,-3.629766 0.115932,-0.394784 0.260869,-0.623234 0.521543,-0.82206 0.198547,-0.151439 0.454691,-0.422743 0.569208,-0.602897 0.123196,-0.193808 0.185797,-0.242206 0.153313,-0.118532 -0.209371,0.797148 -0.926436,4.551812 -1.107743,5.800316 -0.334268,2.301811 -0.248466,2.090204 -0.847536,2.090204 -0.3418,0 -0.514199,-0.04381 -0.514104,-0.130638 z m 30.433224,-0.09928 c -0.069,-0.06898 -0.12541,-0.247689 -0.12541,-0.397139 0,-0.350614 0.17802,-0.52255 0.54104,-0.52255 0.19425,0 0.34684,0.0864 0.46142,0.261275 0.15858,0.242032 0.15858,0.280519 0,0.522551 -0.18653,0.284677 -0.65558,0.357337 -0.87705,0.135863 z m -16.89165,-0.736797 c -0.0392,-0.244292 -0.13742,-0.937979 -0.2182,-1.541525 -0.0808,-0.603546 -0.31335,-1.89521 -0.51684,-2.870364 -0.20348,-0.975153 -0.36996,-1.831852 -0.36996,-1.903775 0,-0.218635 0.90388,0.461169 1.03049,0.775024 0.0641,0.158952 0.18949,0.641725 0.2786,1.07283 0.0891,0.431104 0.23173,1.052983 0.31693,1.381952 0.13492,0.520928 0.29972,1.475362 0.53281,3.085858 l 0.0643,0.444169 h -0.5234 -0.5234 z m -24.179099,-0.03247 c -0.86109,-0.603132 -0.625952,-1.946973 0.394149,-2.252603 1.004555,-0.300972 1.904118,0.837235 1.412719,1.787497 -0.226965,0.438902 -0.557835,0.628215 -1.097954,0.628215 -0.262232,0 -0.580635,-0.07326 -0.708914,-0.163109 z m 48.335089,-0.01428 c -0.22473,-0.05837 -0.18459,-0.227437 0.26804,-1.128989 0.43192,-0.860305 0.7809,-1.878654 1.11028,-3.239816 l 0.27819,-1.149612 0.34266,-0.0332 0.34265,-0.0332 -0.0659,0.398987 c -0.28289,1.713595 -1.63046,5.28532 -1.97947,5.246588 -0.0601,-0.0067 -0.1935,-0.03401 -0.29648,-0.06076 z m -6.25913,-0.80417 -0.28027,-0.120431 0.31642,-0.729255 c 0.17403,-0.401091 0.58809,-1.528759 0.92013,-2.505929 0.59949,-1.764247 0.606,-1.776902 0.93057,-1.809422 0.246,-0.02465 0.32686,0.0094 0.32686,0.137815 0,0.406838 -1.5426,4.659727 -1.81228,4.996399 -0.0975,0.121732 -0.17587,0.127748 -0.40143,0.03082 z M 121.629,84.465504 c -0.0862,-0.02696 -0.21555,-0.12315 -0.28741,-0.213745 -0.44497,-0.561062 0.3826,-1.17729 0.86508,-0.644154 0.34356,0.37963 -0.0827,1.012691 -0.57767,0.857899 z m 20.38561,-0.192022 c -0.45263,-0.09971 -0.70772,-0.113763 -0.7786,-0.04288 -0.37149,0.371493 -1.1497,-0.159014 -0.90472,-0.616755 0.24845,-0.464236 0.78154,-0.49307 1.02641,-0.05552 0.05,0.08931 0.43392,0.240332 0.86668,0.340905 0.52967,0.123094 0.77695,0.229193 0.77695,0.333366 0,0.207237 -0.19491,0.215313 -0.98672,0.04088 z M 88.321879,82.74415 87.987725,82.636769 88.348752,81.944865 c 1.323384,-2.53625 3.768101,-5.465944 5.950831,-7.131345 0.916207,-0.699057 1.201867,-0.836081 1.201867,-0.576507 0,0.07865 -0.411509,0.49336 -0.914464,0.921579 -2.0339,1.731671 -3.975766,4.253814 -5.51699,7.165598 -0.15973,0.301773 -0.318216,0.543878 -0.352191,0.538009 -0.03397,-0.0059 -0.212142,-0.05899 -0.395926,-0.118049 z m 33.452561,-0.124369 c -0.0745,-0.194222 0.58546,-2.796515 1.12195,-4.423743 0.4089,-1.240256 0.43141,-1.28025 0.72079,-1.28025 0.16429,0 0.32326,0.03972 0.35326,0.08827 0.03,0.04855 -0.0421,0.342483 -0.16032,0.653189 -0.28767,0.756336 -0.90144,2.863922 -1.15232,3.956894 -0.11157,0.486052 -0.25336,0.944591 -0.31509,1.018975 -0.14975,0.180436 -0.49704,0.172287 -0.56827,-0.01333 z m 18.84177,-0.661376 c 0.0472,-0.330514 0.0859,-1.282863 0.0859,-2.116332 0,-0.833469 -0.0387,-1.785818 -0.0859,-2.116331 -0.0852,-0.596041 -0.0838,-0.600934 0.17886,-0.600934 0.28928,0 0.3524,0.152489 0.58397,1.410888 0.13208,0.717688 0.22137,3.047745 0.13918,3.631729 -0.0543,0.386089 -0.0621,0.391913 -0.52154,0.391913 h -0.46638 z m -24.67555,-1.13095 c -0.21821,-0.218208 -0.20767,-0.495634 0.0269,-0.707909 0.34691,-0.313948 0.95849,-0.115083 0.95849,0.311669 0,0.511699 -0.62044,0.761187 -0.98538,0.39624 z M 83.461732,80.497486 c -0.412721,-0.255987 -0.643345,-0.746615 -0.581709,-1.237527 0.04783,-0.380939 -0.01562,-0.507246 -0.874706,-1.741241 -0.509451,-0.73178 -0.926274,-1.422107 -0.926274,-1.534061 0,-0.444276 0.644467,-0.708844 0.959254,-0.393794 0.07596,0.07602 0.51434,0.685461 0.974185,1.354315 0.731824,1.064453 0.873167,1.216636 1.133487,1.220415 0.637256,0.0093 1.217992,0.609272 1.217992,1.258439 0,0.951815 -1.098708,1.57183 -1.902229,1.073454 z m 32.788678,-1.276514 c -0.18998,-0.307388 0.71693,-3.460546 1.44707,-5.031191 0.35482,-0.763277 0.3802,-0.790841 0.68683,-0.745837 0.34882,0.05119 0.39448,0.181033 0.17451,0.496177 -0.4327,0.619901 -1.31184,3.177626 -1.54368,4.491065 -0.071,0.402364 -0.17891,0.766123 -0.23975,0.808353 -0.15648,0.108606 -0.45286,0.09812 -0.52498,-0.01857 z m 20.65798,-0.02686 c -0.069,-0.06898 -0.12541,-0.247689 -0.12541,-0.397139 0,-0.350614 0.17802,-0.522551 0.54104,-0.522551 0.19424,0 0.34683,0.08641 0.46141,0.261276 0.15859,0.242032 0.15859,0.280519 0,0.522551 -0.18652,0.284677 -0.65557,0.357336 -0.87704,0.135863 z m -6.13977,-0.442386 c -0.19199,-0.293012 -0.0846,-0.603047 0.2757,-0.795867 0.29196,-0.156251 0.72217,0.1239 0.72217,0.470273 0,0.56195 -0.69452,0.788564 -0.99787,0.325594 z M 98.176912,78.395842 c -0.0472,-0.07637 -0.168689,-0.10187 -0.294754,-0.06186 -0.183836,0.05835 -0.206034,0.03284 -0.15547,-0.178642 0.288605,-1.20708 0.199825,-1.736746 -0.719705,-4.2938 -0.594085,-1.652048 -0.886191,-2.693815 -0.75533,-2.693815 0.202021,0 3.148221,-1.433143 3.649205,-1.775112 0.350252,-0.239081 0.650382,-0.41954 0.666962,-0.40102 0.0166,0.01852 0.19511,0.36288 0.39676,0.765245 0.20165,0.402364 0.63922,1.107808 0.97237,1.567652 0.33316,0.459845 0.76346,1.067027 0.95623,1.349293 l 0.35048,0.513212 -0.34388,0.360375 c -0.18914,0.198206 -1.03524,0.921646 -1.88022,1.607645 -1.707223,1.386012 -2.038704,1.750173 -2.467783,2.711079 -0.189277,0.423877 -0.323269,0.613231 -0.374865,0.529746 z m 12.782228,-0.543384 c -0.27699,-0.759663 -0.92199,-1.507998 -2.22379,-2.580052 -1.76603,-1.454359 -2.26041,-1.926728 -2.25634,-2.155876 0.002,-0.123411 0.37708,-0.74171 0.8331,-1.373997 0.45601,-0.632286 1.00513,-1.502334 1.22027,-1.933438 0.21515,-0.431105 0.40264,-0.80146 0.41667,-0.823012 0.014,-0.02155 0.27436,0.125351 0.57853,0.326451 0.65564,0.433463 1.67203,0.949704 2.93065,1.488517 0.75274,0.322248 0.91446,0.432026 0.91446,0.620749 0,0.263607 -0.42452,1.525663 -1.0219,3.037998 -0.71228,1.803213 -0.84997,2.662136 -0.58218,3.631729 0.0351,0.126924 -0.009,0.182893 -0.14465,0.182893 -0.10733,0 -0.24723,0.05207 -0.31087,0.115713 -0.0846,0.08461 -0.17975,-0.05991 -0.35395,-0.537675 z m -25.324152,0.22312 -0.29063,-0.303353 0.55848,-0.4425 c 2.118601,-1.678629 6.712609,-4.176304 7.681534,-4.176304 0.367661,0 0.02333,0.241706 -1.309454,0.919175 -2.219516,1.128208 -3.906808,2.248777 -5.569557,3.69887 -0.383102,0.334105 -0.715268,0.607464 -0.738146,0.607464 -0.02288,0 -0.172381,-0.136508 -0.332227,-0.303352 z m 51.535602,-0.493484 c -0.0408,-0.04075 -0.0741,-0.361412 -0.0741,-0.712594 0,-1.268038 -0.49964,-4.028022 -0.84653,-4.676193 -0.0853,-0.159392 -0.0601,-0.189498 0.15863,-0.189498 0.23606,0 0.28871,0.08949 0.57092,0.970511 0.40739,1.271782 0.63289,2.518929 0.66543,3.680192 0.0246,0.877384 0.012,0.942644 -0.18697,0.971128 -0.11733,0.0168 -0.24666,-0.0028 -0.2874,-0.04355 z m -5.69683,-1.842046 c 0.1688,-0.819099 0.36407,-1.912536 0.43392,-2.429862 0.12099,-0.895925 0.13926,-0.940592 0.38482,-0.940592 0.25113,0 0.25693,0.0176 0.22369,0.679317 -0.0428,0.851501 -0.27178,2.430664 -0.49635,3.422708 -0.16991,0.750582 -0.17472,0.757699 -0.51225,0.757699 h -0.34073 z m 8.6768,0.595008 c -0.27542,-0.192908 -0.30271,-0.588026 -0.0576,-0.833178 0.13013,-0.130133 0.27701,-0.158359 0.57559,-0.110614 0.31118,0.04976 0.52048,0.0035 0.93535,-0.206731 0.35318,-0.178974 0.5696,-0.235696 0.63807,-0.167233 0.1646,0.164609 -0.009,0.335614 -0.61269,0.60246 -0.30878,0.13656 -0.56143,0.295913 -0.56143,0.354118 0,0.150814 -0.39277,0.523869 -0.55155,0.523869 -0.0734,0 -0.23803,-0.07321 -0.36578,-0.162691 z m -16.47615,-0.21056 c -0.37649,-0.376491 -0.0856,-0.915671 0.46556,-0.86297 0.28195,0.02696 0.38067,0.09554 0.45862,0.318592 0.18684,0.534659 -0.51845,0.950106 -0.92418,0.544378 z m -19.1089,-1.298912 c -0.0334,-0.08622 -0.10927,-0.453146 -0.16867,-0.81539 -0.1222,-0.745206 -0.44014,-1.317718 -1.57854,-2.842467 -1.49338,-2.000216 -2.08724,-3.7119 -2.08997,-6.023919 -0.002,-1.641005 0.38824,-3.469594 0.98766,-4.62874 l 0.17901,-0.346174 0.31193,0.378417 c 0.26824,0.325427 0.37345,0.378417 0.75135,0.378417 0.24169,0 0.5375,-0.06869 0.65737,-0.152643 0.1984,-0.138968 0.23957,-0.129604 0.45951,0.10451 0.33885,0.360692 1.01042,0.357519 1.44341,-0.0068 0.18881,-0.158868 0.3401,-0.221287 0.37998,-0.156766 0.0364,0.05897 0.31796,0.107208 0.6256,0.107208 0.49438,0 0.59029,-0.03677 0.82569,-0.316521 l 0.26633,-0.316522 0.14834,0.290394 c 0.29484,0.57719 0.68757,1.802717 0.84697,2.64301 0.21036,1.108949 0.20924,3.020753 -0.002,4.053039 -0.3194,1.558051 -0.62963,2.164975 -2.53976,4.968605 -0.68794,1.009732 -0.79691,1.27637 -0.90291,2.209309 -0.0609,0.53628 -0.0895,0.598906 -0.20265,0.444168 -0.16677,-0.228067 -0.23881,-0.227391 -0.29386,0.0028 -0.0362,0.151204 -0.0543,0.155731 -0.10442,0.02613 z m 35.16465,-0.229923 c -0.069,-0.06898 -0.12541,-0.163851 -0.12541,-0.210833 0,-0.205659 -1.12575,-2.055025 -1.74482,-2.866369 -0.37301,-0.48886 -0.65515,-0.91188 -0.62699,-0.940046 0.15562,-0.155619 2.09731,2.450789 2.66776,3.581042 0.25356,0.502393 0.15297,0.759709 -0.17054,0.436206 z m -15.2501,-0.0679 c -0.22484,-0.06587 -0.2082,-0.116318 0.5393,-1.635618 0.42422,-0.862209 0.88256,-1.744064 1.01853,-1.959677 0.23562,-0.373591 0.25803,-0.384467 0.4767,-0.231302 l 0.22947,0.160722 -0.61027,1.224149 c -0.33564,0.673282 -0.74048,1.518084 -0.89964,1.877338 -0.29152,0.658034 -0.33173,0.688127 -0.75409,0.564388 z m -5.86096,-1.813285 c -0.16499,-0.164992 -0.16133,-0.676628 0.005,-0.730777 0.0718,-0.02336 0.29524,-0.01663 0.49642,0.01495 0.28117,0.04413 0.37369,0.113144 0.39994,0.298317 0.0188,0.132495 -0.0222,0.308856 -0.0912,0.391913 -0.15198,0.183129 -0.63754,0.198468 -0.81041,0.0256 z m -69.729196,-2.63971 v -2.138063 l -0.788116,-0.03052 -0.788115,-0.03052 1.206156,-0.940121 1.206156,-0.940121 v -1.698762 -1.698761 h 1.045102 1.045102 v 0.836082 c 0,0.459845 0.02538,0.836081 0.05639,0.836081 0.03102,0 0.501693,-0.358163 1.045951,-0.795918 0.698756,-0.56202 1.027701,-0.766693 1.119348,-0.696469 0.07138,0.0547 0.727093,0.577463 1.457132,1.161703 0.730039,0.584241 1.379018,1.062256 1.442177,1.062256 0.06316,0 0.712138,-0.478015 1.442176,-1.062256 0.730039,-0.58424 1.385748,-1.107007 1.457132,-1.161703 0.09165,-0.07022 0.420592,0.134449 1.119348,0.696469 0.544258,0.437755 1.014936,0.795918 1.045952,0.795918 0.03101,0 0.05639,-0.376236 0.05639,-0.836081 v -0.836082 h 1.045102 1.045102 v 1.698761 1.698762 l 1.206156,0.940121 1.206157,0.940121 -0.788116,0.03052 -0.788116,0.03052 v 1.940373 1.940372 l -0.236226,-0.05929 c -0.54244,-0.136144 -2.927503,-0.485922 -3.3134,-0.485922 -0.456995,0 -0.452888,0.0067 -0.575959,-0.940591 -0.123078,-0.947344 -0.810579,-1.696843 -1.283087,-1.398793 -0.416619,0.262797 -0.596697,0.669109 -0.635293,1.43342 l -0.03816,0.755594 -1.965308,-0.0032 -1.965307,-0.0032 -0.03801,-0.752397 c -0.0537,-1.062903 -0.500595,-1.646657 -1.099393,-1.436071 -0.43346,0.15244 -0.772847,0.846925 -0.853642,1.746799 l -0.06714,0.747842 -0.365786,0.07319 c -0.201182,0.04026 -0.718507,0.130148 -1.149612,0.199763 -0.431104,0.06961 -1.144384,0.214696 -1.585065,0.322402 -0.440682,0.107706 -0.828676,0.195829 -0.862209,0.195829 -0.03353,0 -0.06097,-0.962128 -0.06097,-2.138063 z m 66.030236,1.427482 c -0.52475,-0.677279 -0.37489,-0.588569 -3.53314,-2.091462 -0.60355,-0.287204 -1.36912,-0.726587 -1.70127,-0.976405 l -0.60392,-0.454215 0.0535,-0.470296 c 0.0294,-0.258662 0.0836,-1.109899 0.12039,-1.891636 0.0916,-1.946707 -0.1849,-3.476141 -0.9474,-5.241184 -0.0604,-0.139867 -0.0294,-0.182893 0.1319,-0.182893 0.25234,0 0.75205,-0.56087 0.75205,-0.8441 0,-0.159185 0.0744,-0.201002 0.35776,-0.201002 0.54769,0 1.00087,-0.430097 1.00087,-0.949882 0,-0.224813 0.04,-0.408751 0.0889,-0.408751 0.1865,0 1.45403,1.043014 2.07493,1.707394 1.18513,1.268127 2.02145,2.717651 2.49482,4.324065 0.31316,1.062742 0.3631,2.237454 0.21233,4.994367 -0.0912,1.667735 -0.0907,1.673884 0.18379,2.322202 0.329,0.777048 0.33136,0.798245 0.0734,0.660214 -0.16766,-0.08973 -0.20742,-0.07039 -0.23515,0.114334 -0.0278,0.185215 -0.11523,0.116659 -0.52387,-0.41075 z m -20.881833,0.331999 c 0,-0.138873 -0.02837,-0.146014 -0.156765,-0.03946 -0.231908,0.192467 -0.201052,-0.0061 0.118221,-0.760848 0.269469,-0.636994 0.273172,-0.677305 0.184547,-2.008672 -0.150933,-2.2674 -0.109789,-4.291549 0.10303,-5.068744 0.428819,-1.566007 1.465595,-3.350889 2.650319,-4.562712 0.845819,-0.865164 1.856698,-1.647504 2.007974,-1.55401 0.06004,0.03711 0.109163,0.273657 0.109163,0.525668 0,0.562908 0.256726,0.783585 0.911591,0.783585 0.420913,0 0.447043,0.01726 0.447043,0.295313 0,0.29709 0.36689,0.749789 0.60767,0.749789 0.16721,0 0.15587,0.211495 -0.036,0.670652 -0.0879,0.210457 -0.27891,0.815828 -0.42439,1.345269 -0.34408,1.252165 -0.44958,3.566406 -0.22017,4.829496 0.0835,0.459845 0.13066,0.872397 0.10476,0.916783 -0.0668,0.114475 -1.055251,0.826934 -1.521227,1.096476 -0.215589,0.124707 -0.968062,0.479175 -1.672163,0.787707 -1.635635,0.716724 -2.165952,1.052166 -2.635204,1.666845 -0.392462,0.514093 -0.578419,0.619176 -0.578419,0.326862 z m 28.571083,-0.315661 c -0.87757,-0.669865 -1.44297,-0.839526 -4.31757,-1.295592 -0.77205,-0.122489 -1.57155,-0.278582 -1.77667,-0.346873 l -0.37294,-0.124165 0.0523,-1.04266 c 0.0287,-0.573463 0.0523,-1.703996 0.0523,-2.512296 v -1.469636 l 1.35864,0.0024 c 0.74724,0.0013 1.8485,-0.06079 2.44723,-0.13803 1.00352,-0.129459 1.09883,-0.126465 1.21931,0.0383 0.15286,0.209047 0.37134,1.172777 0.66912,2.95153 0.11726,0.700465 0.30618,1.574606 0.41983,1.942538 0.19386,0.627648 0.31691,0.846609 0.9213,1.639373 l 0.24226,0.317773 h -0.22832 c -0.17687,0 -0.21601,0.0471 -0.17367,0.20902 0.0301,0.114961 0.0391,0.20902 0.0202,0.20902 -0.019,0 -0.25891,-0.17132 -0.53323,-0.380712 z m -36.095817,0.119437 c 0,-0.09024 -0.09439,-0.156765 -0.222414,-0.156765 -0.21614,0 -0.214663,-0.0096 0.05235,-0.339658 0.788847,-0.975149 0.963312,-1.461454 1.377892,-3.84075 0.290762,-1.668697 0.509716,-2.595432 0.645224,-2.730939 0.04865,-0.04865 0.792088,-0.01364 1.652076,0.07782 0.935527,0.09949 1.903737,0.141224 2.410344,0.103903 l 0.84673,-0.06238 0.0735,2.168007 c 0.04042,1.192403 0.08266,2.33261 0.09386,2.533792 l 0.02036,0.365786 -0.697731,0.174335 c -0.383753,0.09589 -1.2538,0.252797 -1.933439,0.348695 -1.285403,0.181371 -2.742631,0.509292 -3.111853,0.700262 -0.117732,0.06089 -0.410091,0.269102 -0.649688,0.462686 -0.489109,0.395179 -0.557217,0.419039 -0.557217,0.195205 z m 45.417147,-0.111975 c -0.24619,-0.246183 -0.20351,-0.641297 0.09,-0.833635 0.29302,-0.191989 0.60305,-0.08459 0.79587,0.275697 0.26294,0.491299 -0.48285,0.960991 -0.8859,0.557938 z m 3.47461,-0.515086 c -0.18959,-0.416094 0.0285,-0.783827 0.46489,-0.783827 0.23203,0 0.46492,-0.101781 0.70768,-0.309283 0.38233,-0.326797 0.72763,-0.411506 0.72763,-0.178504 0,0.0766 -0.18812,0.29045 -0.41804,0.475221 -0.22993,0.184771 -0.41804,0.420501 -0.41804,0.523844 0,0.514078 -0.85437,0.732904 -1.06412,0.272549 z m -8.56685,-1.143047 c -0.28759,-0.631207 0.44263,-1.091579 0.91083,-0.574229 0.17852,0.19726 0.18193,0.240669 0.0391,0.496423 -0.22597,0.404519 -0.78034,0.449928 -0.94989,0.07781 z m 5.31121,-0.02398 c -0.0383,-0.03832 -0.0697,-0.271153 -0.0697,-0.517407 0,-0.615336 -0.19321,-1.472621 -0.44475,-1.973419 l -0.20998,-0.418041 0.23398,0.209021 c 0.44347,0.396179 0.66138,0.978973 0.88899,2.377607 0.0548,0.336434 0.036,0.391913 -0.13256,0.391913 -0.10798,0 -0.22769,-0.03135 -0.26601,-0.06967 z m 1.80275,-1.203181 c -0.55089,-0.567717 -0.95965,-1.018225 -0.90837,-1.001129 0.1978,0.06593 1.40466,1.077832 1.74337,1.461732 0.202,0.228952 0.315,0.439805 0.26128,0.487523 -0.0521,0.04628 -0.54496,-0.379956 -1.09628,-0.948126 z m -5.93786,-0.181612 c -0.18372,-0.116321 0.0321,-0.412179 0.76028,-1.042451 0.54071,-0.467978 0.89626,-0.674738 1.34559,-0.782477 0.39344,-0.09434 0.36441,0.0968 -0.0359,0.236344 -0.17782,0.06199 -0.67694,0.466339 -1.10916,0.89856 -0.43222,0.432222 -0.79231,0.785138 -0.80019,0.784258 -0.008,-8.8e-4 -0.0802,-0.04329 -0.16063,-0.09423 z m -4.42887,-0.595046 c -0.0899,-0.08985 0.11033,-0.458732 0.24895,-0.458732 0.0594,0 0.0931,0.102133 0.0747,0.226962 -0.0343,0.232814 -0.20228,0.353139 -0.32365,0.23177 z m 1.38761,-0.32924 c -0.0862,-0.02696 -0.21555,-0.123149 -0.2874,-0.213744 -0.44498,-0.561062 0.38259,-1.177291 0.86507,-0.644154 0.34356,0.37963 -0.0827,1.01269 -0.57767,0.857898 z m 1.35864,-0.958164 c 0,-0.0534 0.2469,-0.14404 0.54868,-0.20141 0.6495,-0.123477 1.89415,-0.228306 1.81905,-0.153207 -0.0556,0.05555 -2.01439,0.450778 -2.2371,0.45137 -0.0719,1.91e-4 -0.13063,-0.04335 -0.13063,-0.09675 z m -3.0308,-0.362014 c 0,-0.180393 0.22912,-0.273522 0.66174,-0.26898 l 0.33111,0.0035 -0.24673,0.205544 c -0.28606,0.238312 -0.74612,0.275283 -0.74612,0.05996 z m 7.65078,-0.391901 c -0.54195,-0.347016 -0.80204,-0.945318 -0.79258,-1.823179 0.0112,-1.035963 0.3319,-1.596607 1.43851,-2.514528 0.46636,-0.386841 0.96399,-0.800277 1.10584,-0.918746 0.1701,-0.142059 0.12443,-0.04783 -0.13412,0.276741 -0.46824,0.587803 -0.97439,1.64569 -1.06461,2.225126 l -0.0651,0.418041 0.22095,-0.470296 c 0.24244,-0.516013 1.24888,-2.090204 1.33636,-2.090204 0.0633,0 -0.0475,2.118994 -0.13122,2.508245 -0.0309,0.143701 0.046,0.04964 0.17096,-0.209021 0.15028,-0.311153 0.24358,-0.745122 0.27573,-1.28246 0.0267,-0.44669 0.0801,-0.83161 0.11851,-0.855378 0.13793,-0.08524 0.56394,2.406359 0.49024,2.867246 -0.1252,0.782957 -0.69152,1.604903 -1.33978,1.944519 -0.42386,0.222056 -1.22228,0.18477 -1.62969,-0.07611 z m -4.7494,0.04553 c 0.13,-0.025 0.31812,-0.02405 0.41804,0.0021 0.0999,0.02616 -0.006,0.04661 -0.23637,0.04545 -0.22992,-0.0012 -0.31167,-0.02256 -0.18167,-0.04756 z M 86.147334,64.062464 c 0.0493,-0.155323 0.01964,-0.21045 -0.113212,-0.21045 -0.166329,0 -0.165401,-0.01614 0.01221,-0.212395 0.105718,-0.116817 0.344109,-0.306271 0.529758,-0.421008 0.435973,-0.269446 0.843195,-0.912888 1.518546,-2.399415 0.710392,-1.56366 1.266367,-2.485947 1.963933,-3.257901 1.514038,-1.675493 3.954536,-2.913236 6.381157,-3.236318 0.971827,-0.12939 1.166611,-0.09617 0.952045,0.162365 -0.07308,0.08806 -0.111893,0.381991 -0.09327,0.706434 0.0285,0.496704 0.06748,0.577955 0.367516,0.766183 0.31115,0.195197 0.335926,0.252864 0.339658,0.790587 0.0022,0.319017 0.05311,0.629117 0.113104,0.689111 0.07576,0.07577 -0.04388,0.233761 -0.391747,0.517325 -1.729369,1.409686 -3.012974,3.195897 -3.724026,5.182194 -0.22061,0.616265 -0.256901,0.657941 -0.647875,0.744015 -0.227796,0.05015 -1.190163,0.0568 -2.138593,0.01478 -3.291066,-0.145816 -3.959182,-0.125631 -4.579818,0.138366 -0.54426,0.23151 -0.554744,0.23207 -0.48938,0.02613 z m 36.631276,-0.07441 c -0.56313,-0.259496 -0.60453,-0.263135 -2.03795,-0.179185 -0.80473,0.04713 -2.20224,0.08788 -3.10558,0.09055 -1.89087,0.0056 -1.80831,0.04324 -2.16613,-0.987991 -0.30293,-0.873048 -0.83748,-1.860414 -1.4711,-2.717265 -0.48356,-0.653929 -1.70284,-1.895391 -2.34495,-2.387611 -0.26675,-0.204484 -0.29171,-0.26433 -0.18289,-0.438573 0.0693,-0.110976 0.12601,-0.409344 0.12601,-0.663039 0,-0.39036 0.0579,-0.519169 0.37672,-0.83798 0.3302,-0.330205 0.37038,-0.425045 0.32539,-0.768149 -0.0282,-0.215289 -0.0857,-0.49725 -0.12763,-0.626581 -0.0703,-0.216626 -0.0445,-0.235019 0.32779,-0.233511 1.15775,0.0047 3.37042,0.696194 4.67871,1.462188 1.99343,1.167146 3.09066,2.451584 4.19479,4.910518 0.7516,1.673828 1.12389,2.238597 1.81145,2.747995 0.43768,0.324267 0.5403,0.445241 0.40098,0.472698 -0.1316,0.02593 -0.16833,0.09649 -0.1236,0.237422 0.0797,0.251139 0.0258,0.244703 -0.68201,-0.08148 z M 85.677492,61.559258 c -0.488586,-0.161791 -1.429177,-0.505135 -2.090204,-0.762986 -1.634629,-0.637631 -2.157095,-0.748531 -3.140193,-0.666543 -0.778955,0.06496 -0.810223,0.05906 -0.757402,-0.142927 0.03095,-0.118348 0.0039,-0.210686 -0.0616,-0.210686 -0.312243,0 -0.04943,-0.208457 0.536489,-0.425537 0.743881,-0.275602 1.572062,-0.999713 2.621099,-2.291728 1.168315,-1.438921 1.875483,-2.194714 2.053515,-2.194714 0.09701,0 0.719079,0.390785 1.382387,0.86841 0.663309,0.477626 1.552958,1.048845 1.976999,1.269376 0.424041,0.22053 0.785244,0.41228 0.802673,0.42611 0.01743,0.01383 -0.192351,0.371446 -0.466179,0.794701 -0.273828,0.423256 -0.751112,1.333911 -1.060631,2.023678 -0.773721,1.724247 -0.705373,1.674313 -1.79695,1.312846 z M 122.0514,60.168029 c -0.4541,-0.93406 -0.98345,-1.927878 -1.17633,-2.208485 l -0.3507,-0.510194 0.86556,-0.445386 c 0.47605,-0.244962 1.37642,-0.826635 2.00081,-1.292606 0.6244,-0.465972 1.20224,-0.847221 1.28411,-0.847221 0.1942,0 0.95423,0.794351 2.26251,2.364699 0.87814,1.054042 1.90568,2.024729 2.14333,2.024729 0.0306,0 0.28294,0.0974 0.56067,0.216448 0.43458,0.186284 0.47867,0.231152 0.31639,0.321967 -0.15208,0.08511 -0.16393,0.13518 -0.0613,0.258885 0.11089,0.133609 0.007,0.14511 -0.80415,0.08928 -1.07368,-0.07387 -1.4441,0.0141 -3.64871,0.866575 -1.12682,0.435717 -2.37454,0.859601 -2.53026,0.859601 -0.02,0 -0.40787,-0.764231 -0.86196,-1.698291 z m -17.74256,0.161362 c -0.40147,-0.612728 -0.11859,-1.807397 0.42797,-1.807397 0.41757,0 0.64085,0.364138 0.64085,1.045102 0,0.448394 -0.0516,0.662093 -0.19909,0.825109 -0.27798,0.307162 -0.64466,0.280679 -0.86973,-0.06281 z m -1.65236,-0.101823 c -0.13481,-0.134813 -0.16481,-0.305773 -0.12914,-0.735905 0.0768,-0.925977 0.65792,-1.445441 1.13452,-1.014125 0.33956,0.307297 0.2318,1.238684 -0.1924,1.662879 -0.30585,0.30585 -0.56635,0.333776 -0.81298,0.08715 z m 3.51722,0.0052 c -0.51785,-0.362719 -0.70962,-1.43139 -0.32574,-1.815269 0.29374,-0.293743 0.56529,-0.260351 0.87489,0.107586 0.45368,0.539175 0.49006,1.546487 0.0641,1.774466 -0.26067,0.139506 -0.32939,0.132022 -0.61323,-0.06678 z m -5.0784,-0.598609 c -0.63952,-0.467631 0.39851,-2.216365 1.09451,-1.843877 0.47892,0.25631 0.29401,1.197572 -0.34008,1.731125 -0.3466,0.291643 -0.48209,0.311892 -0.75443,0.112752 z m 6.61777,-0.09318 c -0.52867,-0.430215 -0.80774,-1.228413 -0.56109,-1.604847 0.5126,-0.78233 1.83519,0.589872 1.42862,1.482207 -0.12939,0.28398 -0.58936,0.349004 -0.86753,0.12264 z M 99.70478,58.56809 c -0.286924,-0.200969 -0.294638,-0.516792 -0.02349,-0.961516 0.38638,-0.633716 1.16247,-0.938548 1.5085,-0.592513 0.22591,0.225914 0.20586,0.475259 -0.0709,0.881934 -0.44313,0.651095 -1.03944,0.934512 -1.414093,0.672095 z m 9.00346,-0.398131 c -0.36979,-0.369792 -0.45655,-0.527965 -0.45655,-0.832404 0,-0.271893 0.0592,-0.407561 0.21414,-0.490463 0.52437,-0.280636 1.56254,0.508243 1.56254,1.18734 0,0.752345 -0.63783,0.817826 -1.32013,0.135527 z m -10.107542,-1.09321 c -0.229617,-0.253724 -0.218081,-0.454903 0.04529,-0.789718 0.540482,-0.687111 1.767452,-0.828017 1.767452,-0.202975 0,0.393825 -0.17064,0.629962 -0.664299,0.919261 -0.533565,0.31269 -0.910123,0.336767 -1.148438,0.07343 z m 11.306452,-0.01598 c -0.44314,-0.23897 -0.81938,-0.677106 -0.81938,-0.954194 0,-0.299091 0.45977,-0.545906 0.87264,-0.468452 0.39417,0.07395 1.06699,0.629121 1.15849,0.955915 0.14921,0.53291 -0.57311,0.811125 -1.21175,0.466731 z m -20.780822,-0.50788 c -0.814147,-0.349101 -1.328008,-0.664071 -2.514119,-1.541024 -1.488977,-1.100878 -1.998373,-1.368295 -2.762255,-1.4501 -0.698831,-0.07484 -0.920967,-0.190614 -0.601724,-0.313613 0.167623,-0.06458 0.165472,-0.07974 -0.02673,-0.188419 -0.201865,-0.114138 -0.200076,-0.120696 0.05226,-0.191574 0.143702,-0.04037 0.454531,-0.07808 0.690732,-0.08381 0.532816,-0.01293 1.212202,-0.368353 2.71315,-1.419413 1.540603,-1.078829 2.02835,-1.345966 3.133598,-1.716258 2.162986,-0.724667 4.696289,-0.610142 7.1011,0.321025 1.158848,0.448717 1.181626,0.474798 0.735701,0.842367 -0.328377,0.270676 -0.369915,0.360392 -0.369915,0.798956 0,0.271722 0.05308,0.547121 0.117959,0.611999 0.0876,0.0876 0.06071,0.190736 -0.104511,0.400781 -0.137968,0.175399 -0.222468,0.4331 -0.222468,0.678466 0,0.43507 0.02021,0.424494 -1.092797,0.57193 -1.792861,0.237495 -4.095929,1.305128 -5.520624,2.559195 -0.2602,0.229037 -0.512904,0.415159 -0.561565,0.413604 -0.04866,-0.0016 -0.394165,-0.133906 -0.767789,-0.294114 z m 30.046682,-0.07828 c -1.57056,-1.380219 -3.90927,-2.411343 -6.13998,-2.707075 -0.49265,-0.06531 -0.49642,-0.0688 -0.49642,-0.459232 0,-0.282838 -0.0723,-0.461323 -0.25715,-0.635003 -0.23412,-0.219939 -0.24348,-0.261109 -0.10451,-0.459512 0.084,-0.119861 0.15264,-0.401788 0.15264,-0.626503 0,-0.330858 -0.069,-0.473609 -0.36253,-0.750481 -0.43301,-0.408387 -0.41467,-0.431778 0.67606,-0.862061 2.5419,-1.002759 5.3634,-1.06107 7.62191,-0.157522 0.86314,0.34531 1.4788,0.706982 2.72841,1.602837 1.26252,0.905098 2.10799,1.350503 2.59343,1.366245 0.20972,0.0068 0.52239,0.04358 0.69483,0.08173 0.28454,0.06295 0.29538,0.0798 0.11722,0.182193 -0.13094,0.07525 -0.15704,0.137096 -0.0784,0.185711 0.24919,0.154012 0.0943,0.245196 -0.53526,0.315004 -0.76372,0.08469 -1.36412,0.393031 -2.74339,1.408888 -0.51733,0.381018 -1.18067,0.845085 -1.47409,1.031259 -0.49683,0.315233 -1.71224,0.863699 -1.89429,0.854821 -0.0442,-0.0022 -0.26858,-0.169244 -0.4985,-0.371302 z m -21.137188,-0.92995 c -0.447638,-0.323276 -0.25672,-0.879088 0.390979,-1.138246 0.557992,-0.223264 0.967756,-0.21397 1.2675,0.02875 0.208099,0.168508 0.229332,0.24103 0.142216,0.485748 -0.141285,0.396888 -0.537831,0.662489 -1.095251,0.733586 -0.342777,0.04372 -0.534056,0.01394 -0.705444,-0.109836 z m 12.197578,-0.07958 c -0.38547,-0.194383 -0.47186,-0.29229 -0.49831,-0.564767 -0.0738,-0.760058 1.10713,-0.90166 1.8348,-0.220008 0.29957,0.280625 0.30081,0.648552 0.003,0.857231 -0.32544,0.227947 -0.7939,0.202604 -1.33937,-0.07246 z M 97.743668,53.77153 c -0.316195,-0.316195 -0.323386,-0.509122 -0.02919,-0.783205 0.579329,-0.539726 1.967383,-0.289094 1.967383,0.355238 0,0.658543 -1.398756,0.9674 -1.938189,0.427967 z m 12.474772,0.096 c -0.54558,-0.296238 -0.48066,-0.728938 0.15898,-1.05971 0.59973,-0.31013 1.63664,0.0293 1.63664,0.535745 0,0.581544 -1.09899,0.902229 -1.79562,0.523965 z M 98.251512,52.256584 c -0.482566,-0.294241 -0.611852,-0.582716 -0.403601,-0.900547 0.352258,-0.537613 1.837848,-0.221215 2.000294,0.426019 0.157685,0.628287 -0.852263,0.928439 -1.596693,0.474528 z m 11.631098,0.06803 c -0.12299,-0.08993 -0.17385,-0.23879 -0.15061,-0.440792 0.10047,-0.873188 2.07304,-1.113006 2.07304,-0.252033 0,0.243501 -0.32946,0.591091 -0.69029,0.72828 -0.37498,0.142564 -1.01382,0.124182 -1.23214,-0.03546 z M 84.289769,51.180153 c -0.228263,-0.244293 -0.829398,-0.965029 -1.335856,-1.601636 -0.872933,-1.097261 -2.193152,-2.448134 -2.39258,-2.448134 -0.05061,0 -0.319251,-0.0974 -0.596974,-0.216448 -0.434584,-0.186284 -0.478676,-0.231153 -0.3164,-0.321967 0.142177,-0.07957 0.160314,-0.139544 0.07374,-0.243859 -0.09418,-0.11348 0.08789,-0.135439 1.01318,-0.122201 1.086342,0.01554 1.174296,-5.58e-4 2.382113,-0.436059 3.592336,-1.295283 3.56281,-1.289513 3.836065,-0.74967 0.101834,0.201182 0.423056,0.883111 0.713827,1.515398 0.290772,0.632286 0.721021,1.444948 0.956109,1.805914 0.235089,0.360967 0.409239,0.667311 0.387002,0.680765 -0.02224,0.01345 -0.32261,0.158055 -0.667493,0.321337 -0.344884,0.163281 -1.073843,0.6065 -1.619908,0.98493 -1.586188,1.099247 -1.854449,1.275798 -1.938522,1.275798 -0.0436,0 -0.26604,-0.199876 -0.494303,-0.444168 z m 39.054121,-0.504182 c -0.74201,-0.521593 -1.68826,-1.111873 -2.10278,-1.311735 l -0.75368,-0.363385 0.34651,-0.491066 c 0.46076,-0.652993 0.80391,-1.302995 1.41785,-2.68578 l 0.51042,-1.149612 0.36682,0.02217 c 0.20175,0.01219 1.08724,0.287858 1.96776,0.612585 2.47244,0.911808 2.89835,1.010876 3.99921,0.930226 0.82677,-0.06057 0.91994,-0.05023 0.80416,0.08928 -0.10741,0.129416 -0.097,0.176837 0.0577,0.263708 0.1787,0.100313 0.17763,0.109962 -0.0203,0.182328 -1.30013,0.475273 -1.81351,0.9041 -3.24097,2.707167 -0.87629,1.106868 -1.8096,2.142459 -1.93085,2.142459 -0.04,0 -0.67984,-0.426758 -1.42185,-0.94835 z m -24.027818,0.279435 c -0.43786,-0.192979 -0.888337,-0.674241 -0.888337,-0.949047 0,-0.287611 0.307477,-0.576752 0.613326,-0.576752 0.323989,0 1.013439,0.370147 1.208699,0.648916 0.26077,0.372307 0.2122,0.80095 -0.10441,0.921324 -0.342042,0.130044 -0.446023,0.124471 -0.829278,-0.04444 z m 9.967878,-0.05204 c -0.24129,-0.195388 -0.24228,-0.204135 -0.0652,-0.575522 0.23096,-0.484331 0.7374,-0.792836 1.30234,-0.793337 0.94636,-8.39e-4 0.78902,0.870537 -0.25241,1.397894 -0.43665,0.221114 -0.68486,0.213795 -0.98475,-0.02904 z m -8.92758,-1.146652 c -0.447029,-0.271854 -0.883533,-0.820978 -0.883533,-1.111488 0,-0.308144 0.258009,-0.574373 0.556143,-0.573862 0.74452,0.0013 1.66489,1.269774 1.1944,1.646185 -0.27023,0.216197 -0.55477,0.229051 -0.86701,0.03916 z m 8.02074,0.07003 c -0.26624,-0.266234 -0.1458,-0.794795 0.27756,-1.218158 0.45479,-0.454793 0.85185,-0.577749 1.16266,-0.360045 0.36801,0.257761 0.27589,0.725673 -0.24551,1.24707 -0.47331,0.47331 -0.92684,0.599012 -1.19471,0.331133 z M 96.912337,49.410348 c -1.776005,-0.670681 -4.142644,-0.901754 -6.034983,-0.589241 l -0.745226,0.123072 -0.455581,-0.514985 c -0.269992,-0.305196 -0.710407,-1.047163 -1.081119,-1.821362 -1.39088,-2.904724 -1.472343,-3.04312 -2.081855,-3.536833 -0.600517,-0.486428 -0.788414,-0.727855 -0.471961,-0.60642 0.146018,0.05603 0.172344,0.02734 0.128555,-0.140112 -0.0708,-0.270745 -0.01544,-0.26587 0.722315,0.06361 0.6084,0.271707 0.627608,0.273368 2.129336,0.184078 2.61401,-0.155423 4.119367,-0.110576 5.04664,0.150348 1.666131,0.468828 3.09746,1.292045 4.403442,2.5326 0.695661,0.66081 1.83702,2.044916 1.83702,2.227724 0,0.03608 -0.15826,0.0656 -0.351693,0.0656 -0.197548,0 -0.472384,0.09494 -0.627061,0.216605 -0.230098,0.180995 -0.27537,0.300232 -0.27537,0.725263 v 0.508657 l -0.39053,0.03244 c -0.308505,0.02562 -0.434723,0.102932 -0.600934,0.368069 -0.115722,0.184598 -0.233918,0.333606 -0.262658,0.33113 -0.02874,-0.0025 -0.428492,-0.146582 -0.888337,-0.320236 z m 14.683683,0.194242 c 0,-0.231397 -0.46615,-0.593024 -0.76444,-0.593024 -0.25829,0 -0.28066,-0.0337 -0.28066,-0.422791 0,-0.581202 -0.35464,-0.935841 -0.93584,-0.935841 -0.23254,0 -0.42279,-0.0293 -0.42279,-0.06511 0,-0.151744 0.96481,-1.394415 1.53434,-1.976229 1.3157,-1.344065 2.91045,-2.327652 4.5795,-2.824486 1.0759,-0.320268 2.46672,-0.377933 5.17326,-0.214487 1.49992,0.09058 1.52203,0.0887 2.16543,-0.183607 0.78484,-0.33217 0.79323,-0.332771 0.70358,-0.05029 -0.0567,0.178761 -0.0368,0.211555 0.0975,0.160046 0.32769,-0.125748 0.1629,0.13262 -0.31953,0.500985 -0.64754,0.494435 -0.89083,0.873441 -1.67534,2.609972 -0.71745,1.58809 -1.16187,2.382276 -1.65327,2.954425 l -0.31587,0.367777 -0.95729,-0.13082 c -2.01306,-0.275097 -4.3119,-0.01682 -6.06744,0.681696 -0.74934,0.298154 -0.86111,0.313961 -0.86111,0.121786 z m -4.33469,-0.630537 c -0.43019,-0.314563 -0.0981,-1.392761 0.54458,-1.768109 0.95123,-0.555547 1.13309,0.878609 0.20992,1.655408 -0.34662,0.29166 -0.48208,0.311895 -0.7545,0.112701 z m -5.83101,-0.228222 c -0.55648,-0.556476 -0.73839,-1.395317 -0.35542,-1.638929 0.44157,-0.280886 1.25288,0.320722 1.38544,1.027346 0.15312,0.8162 -0.46085,1.180751 -1.03002,0.611583 z m 1.52299,-0.413637 c -0.2789,-0.195345 -0.58652,-1.088865 -0.49728,-1.444406 0.26818,-1.068534 1.42365,-0.482977 1.42365,0.721465 0,0.753427 -0.41758,1.07931 -0.92637,0.722941 z m 2.84832,-0.07545 c -0.28982,-0.413782 -0.1626,-1.149735 0.28053,-1.622782 0.57399,-0.612747 1.16072,0.01992 0.90243,0.973087 -0.21627,0.798052 -0.83936,1.14026 -1.18296,0.649695 z m -1.49279,-0.259553 c -0.40147,-0.612728 -0.11859,-1.807397 0.42797,-1.807397 0.41757,0 0.64085,0.364138 0.64085,1.045102 0,0.448395 -0.0516,0.662093 -0.19909,0.825109 -0.27798,0.307163 -0.64466,0.28068 -0.86973,-0.06281 z m -4.20175,-1.745819 C 99.517953,45.487737 98.190424,44.23 97.426815,43.712004 96.672629,43.2004 95.77244,42.742655 94.897306,42.425751 c -0.361019,-0.130732 -0.67991,-0.275737 -0.708646,-0.322233 -0.02874,-0.0465 -0.100895,-0.482244 -0.160353,-0.96833 -0.08429,-0.689075 -0.07207,-1.211176 0.05546,-2.36974 0.235815,-2.14235 0.217714,-2.799805 -0.09771,-3.549227 -0.313716,-0.745357 -0.31527,-0.762794 -0.06076,-0.682014 0.140359,0.04455 0.211184,0.0083 0.236064,-0.120918 0.02589,-0.134444 0.163001,-0.01501 0.504923,0.439824 0.45395,0.603857 0.534731,0.657022 2.457313,1.61723 2.268707,1.133076 2.770586,1.45718 3.670113,2.370091 1.56684,1.590152 2.68871,4.051603 2.92095,6.408765 l 0.0669,0.679317 -0.64297,-0.03561 c -0.67643,-0.03747 -0.90629,0.06002 -1.04861,0.444738 -0.0652,0.176324 -0.15866,0.203013 -0.62419,0.178305 -0.38804,-0.0206 -0.60146,0.01979 -0.73284,0.138689 -0.1732,0.156742 -0.21426,0.130286 -0.62589,-0.403267 z m 8.71941,0.460973 c -0.0355,-0.05748 -0.32192,-0.10451 -0.63642,-0.10451 -0.52629,0 -0.59829,-0.03014 -0.904,-0.378321 -0.32244,-0.367239 -0.34928,-0.37677 -0.91623,-0.325362 l -0.58405,0.05296 0.0841,-0.785305 c 0.27063,-2.52592 1.29005,-4.698245 3.00442,-6.402238 0.97231,-0.966423 1.73985,-1.463868 3.45085,-2.236517 1.55761,-0.70338 2.1895,-1.121353 2.61514,-1.729817 0.38182,-0.54584 0.52255,-0.642696 0.52255,-0.359657 0,0.106348 0.0575,0.145883 0.15676,0.10779 0.20723,-0.07952 0.19485,0.100588 -0.0429,0.624104 -0.31864,0.701649 -0.34537,1.180611 -0.16036,2.873585 0.16881,1.544761 0.1666,3.558878 -0.004,3.981086 -0.0395,0.09764 -0.31469,0.257063 -0.61144,0.354277 -0.73415,0.2405 -1.86014,0.809049 -2.69523,1.360911 -0.76546,0.505842 -2.19203,1.872624 -2.71583,2.601994 -0.3451,0.48055 -0.44971,0.54837 -0.56303,0.365019 z m -4.58635,-1.38476 c -0.40866,-2.796788 -1.03925,-4.388108 -2.42539,-6.120567 l -0.69374,-0.867063 0.18094,-0.490636 c 0.28472,-0.772075 0.73974,-1.538089 1.74904,-2.944473 1.15393,-1.607912 1.28987,-1.872459 1.38397,-2.69329 0.0712,-0.62073 0.18009,-0.809931 0.30086,-0.522551 0.0379,0.0902 0.0962,0.06593 0.18825,-0.07838 0.12711,-0.199236 0.1366,-0.194343 0.20272,0.10451 0.0382,0.172442 0.0749,0.491765 0.0817,0.709608 0.0164,0.52575 0.2857,1.03789 1.30291,2.477953 0.86715,1.227605 1.84476,3.015158 1.84476,3.373103 0,0.109539 -0.20586,0.44181 -0.45748,0.738381 -1.36214,1.605527 -2.29473,3.804269 -2.52265,5.947622 l -0.075,0.705444 h -0.50564 c -0.49061,0 -0.50712,-0.01009 -0.55527,-0.339658 z m -16.041189,-3.6492 C 88.076567,41.35646 87.808282,39.984288 87.660885,38.926333 87.414302,37.156459 87.155906,36.305062 86.661517,35.633482 86.150598,34.939447 86.134906,34.90269 86.349539,34.90269 c 0.08222,0 0.164525,-0.09489 0.182893,-0.21087 0.02972,-0.187684 0.0966,-0.15867 0.608202,0.263855 0.713644,0.58939 1.35576,0.798029 3.710112,1.205507 1.886603,0.326522 2.521379,0.474843 2.603941,0.60843 0.02805,0.04538 -0.02096,0.71381 -0.108907,1.485401 -0.08795,0.77159 -0.140168,1.8551 -0.116052,2.4078 l 0.04385,1.004909 -1.995241,0.0698 c -1.097383,0.03839 -2.218014,0.09644 -2.490292,0.12899 -0.450637,0.05388 -0.503487,0.037 -0.589082,-0.18813 z m 31.705619,0.120311 c -0.34488,-0.04409 -1.29107,-0.08526 -2.10263,-0.0915 l -1.47556,-0.01134 -0.0716,-1.959566 c -0.0394,-1.077762 -0.0808,-2.194153 -0.0921,-2.480869 -0.0205,-0.521183 -0.0204,-0.521333 0.39757,-0.65926 0.22993,-0.07588 1.20857,-0.274662 2.17477,-0.441743 2.42231,-0.418883 2.84622,-0.552759 3.63541,-1.1481 0.57016,-0.430113 0.67428,-0.476206 0.70201,-0.310749 0.0179,0.10685 0.10296,0.208922 0.189,0.226826 0.11627,0.02419 0.0463,0.179923 -0.27229,0.606267 -0.53711,0.718714 -0.76512,1.46856 -1.09667,3.606694 -0.14262,0.91969 -0.31903,1.907311 -0.39203,2.194714 -0.13061,0.514208 -0.1394,0.52276 -0.55077,0.535666 -0.22992,0.0072 -0.70022,-0.02295 -1.0451,-0.06704 z M 99.916624,37.05501 c -0.344232,-0.239559 -1.318268,-0.761347 -2.164523,-1.159528 l -1.538646,-0.723965 0.0637,-0.398366 c 0.03504,-0.219101 0.363458,-1.231936 0.729827,-2.250745 0.923178,-2.567199 0.977809,-2.878771 0.726112,-4.141166 -0.05171,-0.259352 -0.03355,-0.292777 0.125856,-0.231608 0.108759,0.04173 0.220574,0.01601 0.268674,-0.06182 0.111551,-0.180494 0.224838,-0.03672 0.447124,0.567457 0.244005,0.663209 0.901739,1.369997 2.408972,2.588631 2.02437,1.636758 2.19008,1.801019 2.1152,2.096752 -0.0356,0.140613 -0.43995,0.761437 -0.89856,1.37961 -0.4586,0.618172 -1.01924,1.494381 -1.24584,1.94713 l -0.41202,0.82318 z m 8.632946,-0.411647 c -0.23436,-0.468785 -0.74351,-1.299117 -1.13145,-1.845183 -1.19183,-1.677644 -1.14606,-1.426428 -0.39253,-2.154333 0.35821,-0.34603 1.07456,-0.977823 1.59189,-1.403985 1.37059,-1.129063 1.98819,-1.810881 2.25703,-2.491697 0.27676,-0.700886 0.38528,-0.844468 0.49907,-0.660352 0.0471,0.07625 0.16023,0.103431 0.26429,0.0635 0.18931,-0.07265 0.1892,-0.01986 -0.002,1.016108 -0.0802,0.434371 0.22394,1.544619 0.89281,3.259434 0.34056,0.873123 0.67693,1.817059 0.74748,2.097635 0.12043,0.478977 0.11439,0.520603 -0.0989,0.681464 -0.12492,0.09423 -0.75013,0.403718 -1.38935,0.687751 -0.63923,0.284034 -1.53349,0.760678 -1.98724,1.059209 l -0.82502,0.542783 z"
       id="path1" /></g></svg>
