<?xml version="1.0" encoding="UTF-8" standalone="no"?>
<!-- Created with Inkscape (http://www.inkscape.org/) -->

<svg
   width="210mm"
   height="210mm"
   viewBox="0 0 210 210"
   version="1.1"
   id="svg1"
   xml:space="preserve"
   inkscape:version="1.4.2 (f4327f4, 2025-05-13)"
   sodipodi:docname="Viditay - Color.svg"
   xmlns:inkscape="http://www.inkscape.org/namespaces/inkscape"
   xmlns:sodipodi="http://sodipodi.sourceforge.net/DTD/sodipodi-0.dtd"
   xmlns="http://www.w3.org/2000/svg"
   xmlns:svg="http://www.w3.org/2000/svg"><sodipodi:namedview
     id="namedview1"
     pagecolor="#ffffff"
     bordercolor="#000000"
     borderopacity="0.25"
     inkscape:showpageshadow="2"
     inkscape:pageopacity="0.0"
     inkscape:pagecheckerboard="0"
     inkscape:deskcolor="#d1d1d1"
     inkscape:document-units="mm"
     inkscape:zoom="1"
     inkscape:cx="397"
     inkscape:cy="394.5"
     inkscape:window-width="1920"
     inkscape:window-height="1057"
     inkscape:window-x="1592"
     inkscape:window-y="-5"
     inkscape:window-maximized="1"
     inkscape:current-layer="g7"
     showgrid="false" /><defs
     id="defs1" /><g
     inkscape:label="Layer 1"
     inkscape:groupmode="layer"
     id="layer1"><path
       id="path1"
       style="fill:#475f1c;fill-opacity:1"
       d="m 126.42277,65.850303 c -0.0758,-3.81e-4 -0.15514,0.0056 -0.22014,0.01809 -0.0343,0.0066 -0.0544,0.01336 -0.0605,0.01912 l -5.2e-4,5.17e-4 -5.1e-4,5.17e-4 v 5.16e-4 5.17e-4 l -5.2e-4,5.17e-4 v 5.17e-4 5.17e-4 5.16e-4 l 5.2e-4,5.17e-4 v 5.17e-4 l 5.1e-4,5.17e-4 v 5.16e-4 l 5.2e-4,5.17e-4 c 0.0145,0.01216 0.10039,0.02097 0.24185,0.0217 0.1559,7.86e-4 0.25565,-0.0092 0.27233,-0.02325 l 5.2e-4,-5.17e-4 5.2e-4,-5.17e-4 v -5.16e-4 l 5.1e-4,-5.17e-4 v -5.17e-4 -5.17e-4 l 5.2e-4,-5.17e-4 v -5.16e-4 l -5.2e-4,-5.17e-4 v -5.17e-4 -5.17e-4 l -5.1e-4,-5.16e-4 -5.2e-4,-5.17e-4 c -0.004,-0.0047 -0.0159,-0.01019 -0.0362,-0.0155 -0.05,-0.01308 -0.12215,-0.01977 -0.19792,-0.02015 z m -2.45979,0.0956 c -0.43262,-0.0045 -0.66198,0.08832 -0.66198,0.268717 0,0.215323 0.46015,0.178367 0.74621,-0.05994 l 0.24701,-0.205672 z m 4.57543,0.251147 c -0.34882,0.0036 -1.17066,0.08568 -1.65778,0.178284 -0.30178,0.05737 -0.54881,0.148138 -0.54881,0.201538 0,0.0534 0.0589,0.09683 0.13075,0.09664 0.22271,-5.92e-4 2.18147,-0.395586 2.23707,-0.451136 l 5.1e-4,-5.16e-4 5.2e-4,-5.17e-4 c 2.6e-4,-3.73e-4 3e-4,-7.51e-4 5.2e-4,-0.001 1.7e-4,-2.77e-4 7.1e-4,-0.0016 0.001,-0.0021 l 5.2e-4,-5.16e-4 v -5.17e-4 -5.17e-4 -5.17e-4 c -1e-5,-1.25e-4 -1e-5,-7.08e-4 0,-0.001 v -5.17e-4 -5.17e-4 c -1.4e-4,-2.34e-4 -8.6e-4,-0.0013 -0.001,-0.0015 l -5.1e-4,-5.17e-4 c -0.0124,-0.01092 -0.0719,-0.01592 -0.16278,-0.01499 z m 1.75906,0.411861 c -0.0444,-1.62e-4 -0.10348,0.0076 -0.17725,0.02532 -0.44933,0.107739 -0.80442,0.314403 -1.34513,0.782381 -0.72818,0.630272 -0.9444,0.926509 -0.76068,1.04283 0.0804,0.05094 0.15271,0.09317 0.16071,0.09405 0.008,8.8e-4 0.36825,-0.352226 0.80047,-0.784448 0.43222,-0.432221 0.93116,-0.836663 1.10898,-0.898653 0.32525,-0.11338 0.40531,-0.26078 0.2129,-0.261483 z m 1.12758,0.326078 0.21033,0.418063 c 0.25154,0.500798 0.44441,1.358187 0.44441,1.973523 0,0.246254 0.0315,0.478961 0.0698,0.517281 0.0383,0.03832 0.15815,0.06976 0.26613,0.06976 0.16856,0 0.18709,-0.05527 0.13229,-0.391707 -0.22761,-1.398634 -0.44536,-1.981454 -0.88883,-2.377633 z m -7.59023,0.470256 c -0.13862,0 -0.33898,0.369037 -0.24908,0.458887 0.12137,0.121369 0.28919,0.0013 0.32349,-0.231511 0.0184,-0.124829 -0.015,-0.227376 -0.0744,-0.227376 z m 9.20926,0.234611 c -0.0513,-0.0171 0.35758,0.433255 0.90847,1.000972 0.55132,0.56817 1.04395,0.994543 1.09605,0.948263 0.0537,-0.04772 -0.059,-0.258874 -0.26096,-0.487826 -0.33871,-0.3839 -1.54576,-1.395479 -1.74356,-1.461409 z m 4.20284,2.93212 c -0.006,6.67e-4 -0.0103,0.0031 -0.0139,0.0067 h -5.2e-4 v 5.16e-4 l -5.2e-4,5.17e-4 c -0.0182,0.03979 0.26069,0.457739 0.62787,0.938961 0.61907,0.811344 1.74512,2.660316 1.74512,2.865975 0,0.04698 0.056,0.14186 0.12505,0.21084 0.32351,0.323503 0.42409,0.06624 0.17053,-0.436149 -0.55708,-1.103763 -2.42154,-3.615188 -2.65358,-3.587378 z m -10.91716,0.03669 c -0.0807,-0.0014 -0.14471,0.09052 -0.29198,0.324011 -0.13597,0.215613 -0.59432,1.097362 -1.01854,1.959571 -0.7475,1.5193 -0.76382,1.569689 -0.53898,1.635559 0.42236,0.123739 0.46244,0.09373 0.75396,-0.564307 0.15916,-0.359254 0.56404,-1.204123 0.89968,-1.877405 l 0.6103,-1.224214 -0.22944,-0.160714 c -0.082,-0.05744 -0.13661,-0.09168 -0.185,-0.0925 z m 10.07897,1.395264 c -0.21873,0 -0.24395,0.03026 -0.15865,0.189652 0.34689,0.648171 0.84646,3.408163 0.84646,4.676201 0,0.351182 0.0331,0.671868 0.0739,0.712618 0.0407,0.04075 0.16999,0.06021 0.28732,0.04341 0.19897,-0.02848 0.21167,-0.09362 0.18707,-0.971 -0.0325,-1.161263 -0.25769,-2.408614 -0.66508,-3.680396 -0.28221,-0.881021 -0.33496,-0.970483 -0.57102,-0.970483 z m -75.761269,0.167431 c -1.612172,-0.127274 -5.189765,-0.126179 -5.480286,0.0016 -0.08978,0.03947 -0.586482,0.107248 -1.103808,0.150378 -1.69613,0.141402 -3.071686,0.380802 -4.650879,0.810287 -4.550901,1.237685 -9.244941,3.487702 -13.534058,6.487459 -1.048979,0.733643 -1.344979,0.942045 -1.687235,1.187524 -0.99553,0.714032 -3.246787,2.548485 -4.779554,3.894853 -0.524527,0.460739 -1.116732,0.978253 -1.316198,1.149801 -1.709048,1.469838 -6.721174,6.496631 -8.920386,8.94674 -0.277314,0.308951 -0.784957,0.867644 -1.128097,1.241268 -1.110265,1.208897 -3.679444,4.103339 -4.48293,5.050339 -0.430294,0.50715 -1.158662,1.36386 -1.618506,1.90376 -1.625737,1.90874 -3.413337,4.07397 -3.512447,4.25452 -0.2630814,0.47927 0.2339189,0.0734 1.4531413,-1.187 3.8013907,-3.92963 8.7458477,-8.745815 11.0938967,-10.80555 0.589738,-0.517326 1.244103,-1.095732 1.453658,-1.285193 0.209554,-0.189462 0.709854,-0.612647 1.112077,-0.940511 0.402223,-0.327864 1.017,-0.831392 1.365808,-1.118795 0.348809,-0.287403 0.837954,-0.687136 1.087272,-0.888318 0.249317,-0.201182 0.57524,-0.464886 0.724503,-0.586011 0.149264,-0.121126 0.931913,-0.708998 1.738912,-1.30638 0.806999,-0.597382 1.606465,-1.190233 1.776636,-1.317749 0.736273,-0.551719 3.659875,-2.470627 4.907711,-3.220992 2.625336,-1.5787 5.949234,-3.181226 8.742619,-4.215246 2.064487,-0.764206 2.474758,-0.893113 4.478279,-1.409217 3.486049,-0.897999 6.41313,-1.243649 10.398332,-1.228349 3.359944,0.0129 4.651014,0.141728 7.943184,0.795301 2.392083,0.474885 6.294815,1.602975 7.628992,2.205033 0.172442,0.07782 0.830674,0.349994 1.46296,0.604614 1.945635,0.783504 3.23059,1.338171 3.446301,1.488282 0.113381,0.0789 0.278069,0.143715 0.365869,0.14366 0.0878,-5.4e-5 0.526736,-0.465049 0.975651,-1.033012 0.448914,-0.567964 0.930992,-1.140505 1.071253,-1.272274 0.140262,-0.131769 0.254765,-0.301111 0.254765,-0.376721 0,-0.07561 -0.246514,-0.295012 -0.548287,-0.487308 -0.803181,-0.511802 -2.158623,-1.327603 -2.639116,-1.588534 -1.843809,-1.001278 -2.997309,-1.617472 -3.028239,-1.617472 -0.02019,0 -0.670718,-0.305405 -1.445906,-0.679029 -0.775189,-0.373624 -1.463503,-0.679545 -1.529623,-0.679545 -0.06612,0 -0.270794,-0.07795 -0.454752,-0.173633 -0.550394,-0.286282 -3.048869,-1.159444 -4.723743,-1.650545 -1.911463,-0.560473 -4.792437,-1.08177 -6.89777,-1.247986 z m 71.645239,0.198438 c -0.24556,0 -0.264,0.04459 -0.38499,0.940511 -0.0699,0.517326 -0.26528,1.610727 -0.43408,2.429826 l -0.30696,1.489315 h 0.34107 c 0.33753,0 0.3422,-0.007 0.51211,-0.757577 0.22457,-0.992044 0.45329,-2.571546 0.49609,-3.423047 0.0332,-0.661717 0.0279,-0.679028 -0.22324,-0.679028 z M 93.584469,73.15373 c -0.968925,0 -5.563101,2.497344 -7.681702,4.175973 l -0.558622,0.44235 0.290938,0.303341 c 0.159846,0.166844 0.309399,0.30334 0.332279,0.30334 0.02288,0 0.354838,-0.273093 0.73794,-0.607198 1.662749,-1.450093 3.35017,-2.570791 5.569686,-3.698999 1.332784,-0.677469 1.677142,-0.918807 1.309481,-0.918807 z m 24.652761,0.276986 c -0.18089,0.0045 -0.25121,0.138964 -0.5395,0.759127 -0.73014,1.570645 -1.63744,4.723829 -1.44746,5.031217 0.0721,0.11669 0.36855,0.12721 0.52503,0.0186 0.0608,-0.04223 0.16878,-0.405856 0.23978,-0.80822 0.23184,-1.313439 1.11087,-3.871297 1.54357,-4.491198 0.21997,-0.315144 0.17468,-0.444904 -0.17414,-0.496094 -0.0575,-0.0084 -0.10554,-0.01447 -0.14728,-0.01344 z m -22.830134,0.684196 c -0.145899,0.0031 -0.477533,0.218064 -1.107426,0.698665 -2.18273,1.665401 -4.627674,4.595098 -5.951058,7.131348 l -0.360701,0.691947 0.33383,0.107487 c 0.183784,0.05906 0.361871,0.111923 0.395841,0.117823 h 5.17e-4 5.17e-4 c 3.76e-4,-8e-6 7.38e-4,1.4e-5 0.001,0 0.03881,-0.0055 0.19438,-0.243252 0.350366,-0.537952 1.541224,-2.911784 3.483076,-5.433783 5.516976,-7.165454 0.502955,-0.428219 0.914673,-0.843258 0.914673,-0.921908 0,-0.08112 -0.02825,-0.123348 -0.09457,-0.121956 z m 28.210164,2.800863 c -0.28938,0 -0.31199,0.04029 -0.72089,1.280542 -0.53649,1.627228 -1.19639,4.22928 -1.12189,4.423502 0.0712,0.185617 0.41869,0.193872 0.56844,0.01344 0.0617,-0.07438 0.20314,-0.533007 0.31471,-1.019059 0.25088,-1.092972 0.86471,-3.200529 1.15238,-3.956865 0.11822,-0.310706 0.1902,-0.60464 0.1602,-0.65319 -0.03,-0.04855 -0.18866,-0.08837 -0.35295,-0.08837 z m 17.17776,0.209289 c -0.26266,0 -0.264,0.0044 -0.1788,0.60048 0.0472,0.330513 0.0858,1.283198 0.0858,2.116667 0,0.833469 -0.0386,1.785636 -0.0858,2.11615 l -0.0858,0.600997 h 0.46612 c 0.45944,0 0.46712,-0.0056 0.52142,-0.391708 0.0822,-0.583984 -0.007,-2.914131 -0.13901,-3.631819 -0.23157,-1.258399 -0.29467,-1.410767 -0.58395,-1.410767 z m -40.841948,1.551843 c -0.02227,0.0041 -0.07479,0.06845 -0.149862,0.186552 -0.114517,0.180154 -0.37041,0.451109 -0.568957,0.602548 -0.260674,0.198826 -0.405483,0.427388 -0.521415,0.822172 -0.23414,0.797312 -0.685783,2.84397 -0.800985,3.629752 -0.05478,0.373624 -0.172729,1.079277 -0.261999,1.567863 -0.08926,0.488585 -0.162702,0.947209 -0.162781,1.019059 -9.5e-5,0.08683 0.17238,0.130225 0.51418,0.130225 0.59907,0 0.513226,0.212016 0.847494,-2.089795 0.181307,-1.248504 0.898571,-5.003531 1.107942,-5.800679 0.0093,-0.03557 0.01022,-0.05739 0.0047,-0.06511 l -5.16e-4,-5.17e-4 -5.17e-4,-5.16e-4 -5.17e-4,-5.17e-4 -5.17e-4,-5.17e-4 c -2.15e-4,-8.6e-5 -0.0013,-4.5e-4 -0.0015,-5.17e-4 h -5.17e-4 c -9.81e-4,-1.07e-4 -0.003,-2.09e-4 -0.0041,0 z M 109.9628,79.31046 c -0.025,0.0017 -0.0388,0.01505 -0.0388,0.04237 0,0.07192 0.16652,0.928607 0.37,1.90376 0.20349,0.975154 0.43597,2.26708 0.51677,2.870626 0.0808,0.603546 0.17887,1.297216 0.21807,1.541508 l 0.0713,0.4439 h 0.52348 0.52348 l -0.0646,-0.4439 c -0.23309,-1.610496 -0.39786,-2.565189 -0.53278,-3.086117 -0.0852,-0.328969 -0.22768,-0.950724 -0.31678,-1.381828 -0.0891,-0.431105 -0.21443,-0.91385 -0.27853,-1.072802 -0.11079,-0.274624 -0.81693,-0.82958 -0.99167,-0.817522 z m 21.0044,0.335381 c -0.0422,-0.0017 -0.093,5.55e-4 -0.15451,0.0067 -0.32457,0.03252 -0.33121,0.04546 -0.9307,1.809709 -0.33204,0.97717 -0.74632,2.104699 -0.92035,2.50579 l -0.31626,0.729155 0.28008,0.120406 c 0.22556,0.09693 0.30403,0.09073 0.40153,-0.03101 0.26968,-0.336672 1.81229,-4.589239 1.81229,-4.996077 0,-0.09631 -0.0456,-0.139498 -0.17208,-0.144694 z m 6.55929,0.39119 -0.34262,0.03307 -0.34261,0.03307 -0.27802,1.149801 c -0.32938,1.361162 -0.67861,2.379807 -1.11053,3.240112 -0.45263,0.901552 -0.49241,1.070243 -0.26768,1.128613 0.10298,0.02675 0.23601,0.05428 0.29611,0.06098 0.34901,0.03873 1.69683,-3.533113 1.97972,-5.246708 z M 82.379468,80.68138 c -0.06668,0.0088 -0.395563,0.344253 -0.738456,0.754476 -1.104335,1.321178 -1.907223,2.497064 -2.94349,4.310848 -0.420529,0.736053 -1.276408,2.697649 -1.276408,2.925403 0,0.118765 0.124393,0.157613 0.502812,0.157613 0.280106,0 0.592317,0.06796 0.705383,0.153479 0.292532,0.22126 0.329577,0.203232 0.469222,-0.23151 0.64218,-1.99923 2.176577,-4.843847 3.771863,-6.992855 l 0.322978,-0.435116 -0.351917,-0.319877 c -0.193404,-0.175837 -0.400173,-0.320761 -0.459403,-0.322461 -6.95e-4,-1.9e-5 -0.0019,-2.5e-5 -0.0026,0 z m 33.679082,1.024744 0.0625,1.027844 c 0.15379,2.53826 1.37318,5.641558 2.70733,6.889502 0.51389,0.480693 0.73311,0.599541 0.48782,0.264583 -1.06407,-1.453107 -1.51826,-2.296017 -1.9668,-3.647839 -0.3387,-1.020786 -0.62363,-2.630253 -0.66043,-3.733105 -0.0241,-0.723052 -0.0276,-0.732182 -0.32711,-0.766362 z m 23.80113,3.10627 c -0.065,0.0047 -0.10614,0.09192 -0.19275,0.299207 -0.57734,1.381773 -1.8631,3.09207 -3.32641,4.425053 -0.97912,0.891924 -3.28623,2.258941 -4.19975,2.48822 -0.14388,0.03611 -0.30275,0.119825 -0.35295,0.186035 -0.0528,0.06975 -0.0293,0.603592 0.0553,1.26969 0.19797,1.556006 0.1991,5.874014 0.002,7.028511 h -5.1e-4 c -0.0778,0.45587 -0.10896,0.8325 -0.0734,0.86093 3e-4,1.8e-4 7.4e-4,3.8e-4 0.001,5.2e-4 4.7e-4,1.3e-4 0.002,4.1e-4 0.003,5.1e-4 0.16405,0 1.76152,-1.25596 1.88774,-1.484144 0.1501,-0.271337 0.19849,-4.331318 0.0656,-5.518009 l -0.0765,-0.679028 0.91984,-0.542603 c 2.80393,-1.652884 5.04033,-4.330476 6.11487,-7.322034 l 0.27234,-0.757576 h -0.34055 c -0.18716,0 -0.44337,-0.07239 -0.56947,-0.160714 -0.089,-0.06236 -0.14467,-0.09776 -0.18914,-0.09457 z m -18.22059,0.359668 c -0.43794,0 -0.47136,0.178917 -0.47336,2.508374 -10e-4,1.517399 0.0381,2.077827 0.18139,2.605009 0.10041,0.369448 0.23403,0.73374 0.29713,0.80977 0.16432,0.197992 0.32204,0.170782 0.25684,-0.04444 -0.35903,-1.184971 -0.35925,-3.829069 -5.2e-4,-5.59139 0.0537,-0.263663 0.0319,-0.287321 -0.26148,-0.287321 z m -8.34471,0.148312 -5.2e-4,5.16e-4 -5.2e-4,5.17e-4 h -5.1e-4 c -0.0825,0.08247 0.86786,1.67937 1.49706,2.515609 0.87286,1.160054 2.38458,2.590909 3.78478,3.58221 1.0932,0.773945 3.47292,1.834591 4.75269,2.118217 0.52253,0.115797 0.60099,0.165041 0.60099,0.377755 0,0.223895 0.0442,0.244946 0.52245,0.244946 h 0.52245 v -0.454753 c 0,-0.580671 -0.1773,-1.091204 -0.40049,-1.152384 -0.0958,-0.02626 -0.4092,-0.07744 -0.6966,-0.114205 -1.93373,-0.247308 -3.2624,-0.779532 -5.24464,-2.099613 -1.52343,-1.014535 -2.95593,-2.309926 -4.2447,-3.839559 -0.56025,-0.664965 -1.04457,-1.187753 -1.09193,-1.179256 z m -26.864513,1.09399 c -0.244965,0.02612 -1.157031,3.476622 -1.478463,5.603275 -0.237364,1.570469 -0.41092,3.373863 -0.33228,3.452503 0.02651,0.02652 0.272016,0.04857 0.545703,0.04857 h 0.497645 l 0.05994,-0.575158 c 0.03287,-0.316143 0.08535,-0.845125 0.116789,-1.175639 0.193242,-2.031309 0.713255,-4.683569 1.28881,-6.572726 l 0.195854,-0.641821 -0.405143,-0.06459 c -0.222669,-0.03561 -0.439955,-0.06921 -0.483175,-0.07441 -0.0018,-2.22e-4 -0.0038,-2.06e-4 -0.0057,0 z m 41.169063,0.765844 c -0.0996,-1.95e-4 -0.14881,0.04508 -0.18759,0.149345 -0.31558,0.848376 -2.14318,3.519187 -2.80706,4.102075 -0.19938,0.175064 -0.36277,0.343121 -0.36277,0.373621 0,0.0305 0.0971,0.05529 0.21549,0.05529 0.27757,0 1.20169,-0.87534 1.9203,-1.819527 0.57523,-0.755796 1.77436,-2.665722 1.71256,-2.727482 -0.0188,-0.01877 -0.16246,-0.06643 -0.31988,-0.105937 -0.0699,-0.01755 -0.12578,-0.0273 -0.17105,-0.02739 z m 6.02289,0.637171 c -0.10875,0.0049 -0.24405,0.127062 -0.51677,0.438733 -1.25447,1.433665 -2.70091,2.600313 -4.07933,3.290238 -0.47185,0.236167 -0.88304,0.457116 -0.91364,0.490926 -2.4e-4,2.65e-4 -8.4e-4,0.0013 -0.001,0.0015 -3.3e-4,5.2e-4 -7.6e-4,0.0011 -10e-4,0.0016 -6e-5,1.21e-4 -8e-4,7.06e-4 -0.001,0.001 v 5.17e-4 5.17e-4 5.17e-4 5.16e-4 5.17e-4 5.17e-4 5.17e-4 5.16e-4 5.17e-4 l 5.1e-4,5.17e-4 v 5.17e-4 l 5.2e-4,5.16e-4 c 0.0188,0.0216 0.19018,0.01614 0.41651,-0.01654 0.67088,-0.09686 1.99486,-0.781385 3.04426,-1.574064 0.95265,-0.719592 2.42323,-2.208823 2.36213,-2.392102 -0.0199,-0.05967 -0.11291,-0.156848 -0.20671,-0.216008 -0.0344,-0.02171 -0.0681,-0.03315 -0.10438,-0.03152 z m -22.15731,2.057755 0.0656,0.861963 c 0.0361,0.474215 0.0958,2.755347 0.13281,5.068941 l 0.0672,4.206462 h 0.54984 0.55035 l 0.0765,-1.123446 c 0.11434,-1.674696 -0.0931,-7.183807 -0.32659,-8.674406 -0.0519,-0.331658 -0.0657,-0.339514 -0.58446,-0.339514 z m -14.364494,0.522449 -0.118856,1.541508 c -0.178952,2.31879 -0.263886,5.582608 -0.177766,6.846094 l 0.077,1.122929 h 0.558106 0.558622 l 0.0031,-2.795695 c 0.0017,-1.537606 0.05057,-3.595161 0.109037,-4.572331 0.05847,-0.977171 0.107192,-1.858979 0.108004,-1.95957 0.0012,-0.151582 -0.09447,-0.182935 -0.558106,-0.182935 z m 60.532744,0.259932 c -1.80583,0.08229 -3.98924,0.320578 -4.75475,0.519349 -0.31627,0.08212 -1.11042,0.27163 -1.76424,0.421163 -1.704,0.389715 -5.16735,1.603581 -6.28333,2.201932 -0.1437,0.07705 -0.87281,0.429359 -1.62006,0.782898 -0.74725,0.353538 -1.7583,0.876243 -2.24689,1.161686 -0.48858,0.285443 -0.95922,0.559339 -1.04542,0.608749 -0.57302,0.328395 -2.40712,1.505839 -3.23959,2.079459 -0.54607,0.376266 -1.22307,0.839611 -1.5043,1.029912 -0.28122,0.190302 -0.89256,0.642027 -1.35858,1.003557 -0.46602,0.36152 -1.05908,0.8074 -1.31774,0.99064 -1.24435,0.88152 -6.46228,5.26019 -7.5768,6.35826 -0.22992,0.22653 -0.74744,0.71171 -1.1498,1.07797 -3.60339,3.28006 -11.30779,10.95456 -18.55029,18.47795 -3.29496,3.42274 -4.74922,5.00634 -4.98833,5.43171 -0.295348,0.52544 -2.043617,4.3087 -2.631879,5.69526 -0.110401,0.26023 -0.165167,0.47494 -0.127641,0.49454 0.0014,5.9e-4 0.0044,0.001 0.0062,0.002 0.049,0 1.022313,-0.88181 2.163176,-1.95957 1.140854,-1.07777 2.326974,-2.19745 2.636014,-2.48822 l 0.56224,-0.52865 -0.017,-1.28881 c -0.0153,-1.18168 0.005,-1.33386 0.24494,-1.82315 0.35543,-0.72603 1.22894,-1.68139 1.87793,-2.05362 0.50395,-0.28902 0.60382,-0.30706 1.69653,-0.30799 l 1.16117,-0.001 0.062,-0.60048 c 0.048,-0.46465 0.24475,-0.96714 0.86869,-2.21847 0.90297,-1.81093 1.44564,-2.4974 2.28616,-2.8913 0.47958,-0.22471 0.66053,-0.24452 2.1978,-0.24546 1.92827,-10e-4 1.75591,0.0633 3.03082,-1.14153 0.94073,-0.88904 3.92893,-3.554 4.9475,-4.41265 0.36595,-0.30849 1.30931,-1.12511 2.09652,-1.81488 1.60037,-1.40227 4.27678,-3.61814 5.38985,-4.46226 0.40236,-0.30514 1.0628,-0.81985 1.46813,-1.1436 0.66288,-0.52948 1.28766,-0.98842 3.57962,-2.6293 3.50551,-2.50968 8.42281,-5.4068 11.32696,-6.67401 6.294,-2.746359 11.62042,-3.85598 16.96382,-3.534148 2.08751,0.12573 2.50252,0.176551 4.55631,0.561722 5.79128,1.086111 12.20213,4.476536 18.48105,9.773566 3.93303,3.31798 8.92541,8.33345 13.12323,13.18317 0.81191,0.93799 3.06149,3.68045 3.52536,4.29793 0.98507,1.31126 1.86118,2.35484 1.93322,2.30735 5.2e-4,-4.4e-4 0.001,-9.7e-4 0.002,-0.002 3.7e-4,-6.5e-4 0.001,-0.002 0.002,-0.003 0.0392,-0.11755 -1.03546,-1.84132 -1.80609,-2.89698 -0.25176,-0.34488 -0.53469,-0.76177 -0.62839,-0.92604 -0.0937,-0.16427 -0.37768,-0.58746 -0.63097,-0.94051 -1.31838,-1.83774 -1.59253,-2.21445 -1.95543,-2.68821 -0.21726,-0.28364 -0.52267,-0.6966 -0.67903,-0.91777 -0.38653,-0.54674 -1.65555,-2.19416 -2.42621,-3.14968 -0.3477,-0.43111 -0.78385,-0.97652 -0.96945,-1.21181 -0.719,-0.91149 -2.24128,-2.72963 -2.7032,-3.22875 -0.26653,-0.28798 -0.6428,-0.72229 -0.83612,-0.9648 -1.21579,-1.52519 -6.07412,-6.53773 -8.03672,-8.292 -1.25146,-1.11862 -3.37085,-2.878795 -4.20749,-3.494356 -0.39062,-0.287403 -0.88469,-0.658609 -1.09761,-0.824756 -0.57231,-0.446577 -2.99424,-2.03246 -3.72432,-2.43861 -5.569,-3.098089 -10.95786,-4.506208 -16.31063,-4.262273 z m -81.285999,1.778186 c -0.123914,0.0072 -0.161088,0.338047 -0.345715,1.907378 -0.193749,1.646898 -0.165621,4.612842 0.05839,6.139681 0.140072,0.95469 0.715501,3.46109 0.858346,3.73879 0.08668,0.16849 0.115787,0.17059 0.322461,0.0258 0.13388,-0.0938 0.453888,-0.15916 0.778763,-0.15916 0.33777,0 0.551905,-0.045 0.551905,-0.11679 0,-0.0644 -0.138683,-0.71121 -0.307992,-1.43712 -0.16931,-0.72591 -0.364552,-1.81387 -0.434082,-2.41742 -0.228008,-1.979154 -0.126832,-6.054721 0.180868,-7.280696 0.05949,-0.237006 0.04229,-0.243913 -0.636137,-0.243913 -0.383634,0 -0.787334,-0.04822 -0.897103,-0.10697 -0.05344,-0.0286 -0.09501,-0.05163 -0.129708,-0.04961 z m 47.715949,5.485971 -0.0724,1.071252 c -0.19557,2.892596 -0.67876,5.600926 -1.44022,8.073406 -0.60436,1.96235 -0.59424,1.80794 -0.12195,1.85674 0.22152,0.0229 0.41343,0.0494 0.42633,0.0594 0.12845,0.0963 0.90893,-2.23612 1.38234,-4.1305 0.4731,-1.89309 1.07829,-6.525971 0.89194,-6.827492 -0.0348,-0.05639 -0.28904,-0.102836 -0.56483,-0.102836 z m -39.455988,1.346687 0.07338,0.815971 c 0.253675,2.82452 1.190912,6.80923 2.06809,8.79223 0.141197,0.31922 0.246507,0.43514 0.357085,0.39274 0.0863,-0.0331 0.299466,-0.0605 0.473356,-0.0605 0.262147,0 0.301957,-0.0313 0.235127,-0.18294 -0.782256,-1.77488 -1.733745,-5.97901 -2.005045,-8.85734 l -0.07906,-0.836122 -0.561206,-0.03204 z m 12.444202,4.401281 0.05943,0.39223 c 0.03291,0.21555 0.109268,0.97957 0.169498,1.69808 0.134262,1.60167 0.629711,4.70167 1.046448,6.54637 0.17061,0.75521 0.310575,1.40202 0.310575,1.43712 0,2.8e-4 -2.5e-5,7.6e-4 0,10e-4 v 5.2e-4 5.1e-4 5.2e-4 c 0.01266,0.0336 0.219677,0.0615 0.470256,0.0615 0.258663,0 0.470255,-0.0478 0.470255,-0.10593 0,-0.0581 -0.09329,-0.52413 -0.207222,-1.0356 -0.389592,-1.74904 -1.151351,-7.63552 -1.151351,-8.89661 0,-0.0548 -0.262748,-0.0997 -0.583944,-0.0997 z m 14.458546,0.1049 -0.0641,0.80977 c -0.19263,2.44665 -0.6051,5.55212 -1.00665,7.57474 -0.16809,0.8467 -0.30593,1.58459 -0.30593,1.63969 0,0.0552 0.17668,0.11566 0.39223,0.13436 v 5.1e-4 c 0.21555,0.018 0.42037,0.0223 0.45527,0.009 0.0354,-0.018 0.12298,-0.32247 0.19482,-0.68058 0.0724,-0.36094 0.21822,-1.00911 0.32401,-1.44022 0.34183,-1.39291 0.88471,-5.02003 0.9865,-6.59185 0.0351,-0.54188 0.0853,-1.09075 0.11162,-1.22008 0.0449,-0.22085 0.0136,-0.23513 -0.51986,-0.23513 z m -31.734494,3.73466 c -0.06502,0.003 -0.136355,0.054 -0.237195,0.13333 -0.15983,0.12571 -0.422936,0.20773 -0.66766,0.20773 -0.222171,0 -0.403593,0.0445 -0.403593,0.0987 0,0.0542 0.310373,0.63005 0.689881,1.28002 3.36106,5.7564 8.978801,10.15657 15.82229,12.39253 0.718507,0.23476 1.424161,0.44722 1.567863,0.47232 0.300323,0.0525 0.404083,0.0683 0.421679,0.0563 h 5.17e-4 l 5.17e-4,-5.2e-4 5.17e-4,-5.2e-4 v -5.1e-4 l 5.16e-4,-5.2e-4 v -5.2e-4 -5.1e-4 c 1.1e-5,-2e-4 7e-6,-0.001 0,-0.002 -6.39e-4,-0.005 -0.0073,-0.0135 -0.01705,-0.0233 -0.02527,-0.0253 -0.726411,-0.3136 -1.558561,-0.64079 -4.022603,-1.58166 -6.57428,-3.1187 -9.334831,-5.62291 -2.37316,-2.15278 -4.396618,-4.81071 -5.738668,-7.53804 -0.290705,-0.59078 -0.402397,-0.80405 -0.5333,-0.81132 -0.0043,-2.4e-4 -0.0086,-2e-4 -0.01292,0 z m 9.699666,5.16403 c -0.058,10e-4 -0.403253,0.19513 -0.649056,0.3669 -3.36e-4,2.3e-4 -0.0013,10e-4 -0.0015,0.002 -0.06101,0.0913 1.40858,2.18263 2.172477,3.08922 0.885095,1.05042 2.826464,2.96339 3.394108,3.34449 0.194063,0.13029 0.632816,0.4331 0.975134,0.67283 1.066697,0.74701 2.410638,1.44846 3.689181,1.92598 0.431105,0.16102 0.830838,0.29296 0.888318,0.29352 0.05748,5.5e-4 -0.530393,-0.31622 -1.306381,-0.70435 -1.65391,-0.82727 -2.326253,-1.25048 -3.608048,-2.27014 -1.739465,-1.38373 -3.513535,-3.44081 -4.907194,-5.69061 -0.338265,-0.54607 -0.625818,-1.00833 -0.639238,-1.02733 l -5.16e-4,-5.1e-4 h -5.17e-4 l -5.17e-4,-5.2e-4 -5.17e-4,-5.2e-4 c -0.0013,-3.9e-4 -0.0038,-5.6e-4 -0.0057,-5.1e-4 z m 10.943518,4.86275 c -0.0465,7.7e-4 -0.10183,0.007 -0.1695,0.015 -0.4489,0.0524 -0.451096,0.0433 0.38809,1.72961 0.71382,1.43444 0.84323,1.62349 1.77044,2.58951 0.37808,0.39391 0.7401,0.71624 0.8046,0.71624 0.003,0 0.006,-0.001 0.008,-0.003 0.0336,-0.0345 -0.16488,-0.36156 -0.4625,-0.75551 -0.58463,-0.77384 -1.51044,-2.55457 -1.9172,-3.68814 -0.18241,-0.50831 -0.22029,-0.60743 -0.42168,-0.6041 z m 9.00617,0.13797 c -0.38714,0 -0.391,0.005 -0.6351,0.7059 -0.49222,1.41331 -1.25829,2.76844 -2.19264,3.87884 -0.26249,0.31195 -0.3712,0.44797 -0.35501,0.47439 0.0126,0.0153 0.0781,-0.0146 0.18862,-0.0718 0.32894,-0.17027 1.37346,-1.19053 1.53995,-1.5043 0.0557,-0.10497 0.18489,-0.28502 0.28732,-0.39998 0.18737,-0.21029 1.25016,-2.2597 1.44953,-2.79518 0.10472,-0.28141 0.0987,-0.28784 -0.28267,-0.28784 z m -43.656251,48.91743 -1.149284,1.05885 c -0.632287,0.5823 -1.431752,1.29339 -1.776636,1.58027 -0.344883,0.28689 -1.07399,0.93199 -1.620056,1.4335 -1.27351,1.1696 -2.575559,2.31548 -3.975468,3.4985 -0.612169,0.51733 -1.770886,1.50492 -2.575037,2.19469 -1.43398,1.23001 -2.112165,1.80027 -3.699515,3.10937 -0.435625,0.35927 -1.070921,0.89622 -1.411284,1.19321 -0.340362,0.29699 -0.759801,0.66 -0.932243,0.80667 -0.478266,0.40683 -0.14433,0.32407 0.377755,-0.0935 0.580999,-0.46474 1.842258,-1.4421 2.561601,-1.98489 0.911767,-0.68799 4.155033,-3.30961 6.104537,-4.93459 0.605653,-0.50483 1.494183,-1.22368 1.974556,-1.59731 0.480372,-0.37362 1.306307,-1.05532 1.83503,-1.51516 0.528723,-0.45985 1.450716,-1.23516 2.048971,-1.72237 0.598255,-0.48722 1.463992,-1.2158 1.923913,-1.61954 0.459922,-0.40374 1.024341,-0.88534 1.254187,-1.07022 l 0.418063,-0.33641 -0.679545,-5.2e-4 z m -17.482654,15.25333 c -0.196988,0.0181 -1.067635,0.62226 -1.067635,0.74414 0,0.11703 0.423462,-0.11724 0.888318,-0.49144 0.172442,-0.13882 0.257072,-0.25241 0.188102,-0.2527 -0.0028,-1e-5 -0.0057,-2.8e-4 -0.0088,0 z m -2.001945,1.46245 c -0.06087,0 -0.110588,0.0469 -0.110588,0.10438 0,0.0575 0.02064,0.10439 0.04599,0.10439 0.02535,0 0.07507,-0.0469 0.110588,-0.10439 0.03552,-0.0575 0.01488,-0.10438 -0.04599,-0.10438 z"
       sodipodi:nodetypes="ccccccccccsscscccsssssccccccccsccccssscsssssccssscccscssssscsscccccccscsssscssssssssssssssssssssssssssssssssssssssscssssssssssssssccssssscccsssssssscsssssccccsscssssssssscsssssccscssscsssssssscccccccssssscscccsscsssscccsssccccssccccsssssssccscccscscscsssscccccccscccccsssscsscssccccssssscssssscccsssccscccscsssssssssscsscscccccccccccccsssssccccccccscccccccccsscsssssscsssssssssccsccsssccsscssssssssssssssccsscssssssssssssssssssssssssccsscssscccssscccccccsssccccsscsscccsscccsscsscccssssccccccccscsssssccscssssssssccccccscsssssssssscssscsccsssssssssssssscccccssscsssssssscsscscsscssscccccssssssscssssssccccsssssssssss" /><path
       d="m 104.73676,46.189945 c -0.54656,0 -0.82935,1.194397 -0.42788,1.807125 0.22507,0.34349 0.59173,0.370209 0.86971,0.06305 0.14749,-0.163016 0.19896,-0.376878 0.19896,-0.825273 0,-0.680964 -0.22322,-1.044898 -0.64079,-1.044898 z m -1.75803,0.13901 c -0.22481,0.01173 -0.42817,0.182966 -0.52245,0.558622 -0.0892,0.355541 0.21823,1.249528 0.49713,1.444873 0.50879,0.356369 0.92604,0.03047 0.92604,-0.722953 0,-0.752776 -0.45126,-1.264005 -0.85525,-1.280542 -0.0151,-6.2e-4 -0.0305,-7.82e-4 -0.0455,0 z m 3.57187,0.06305 c -0.14437,-0.0041 -0.30675,0.06951 -0.46819,0.241846 -0.44313,0.473047 -0.57042,1.208858 -0.2806,1.62264 0.3436,0.490565 0.9666,0.148479 1.18287,-0.649573 0.18565,-0.685089 -0.0651,-1.204393 -0.43408,-1.214913 z m -5.24567,0.644922 c -0.0831,0.0038 -0.16097,0.02588 -0.22996,0.06976 -0.38297,0.243612 -0.20095,1.082701 0.35553,1.639177 0.56917,0.569168 1.18303,0.204351 1.02991,-0.611849 -0.11184,-0.596214 -0.70702,-1.117415 -1.15548,-1.097091 z m 6.88898,0.04444 c -0.10978,-2.52e-4 -0.23946,0.03774 -0.38809,0.12454 -0.64268,0.375348 -0.97486,1.453805 -0.54467,1.768368 0.27242,0.199194 0.40786,0.178488 0.75448,-0.113172 0.77892,-0.655424 0.77111,-1.778378 0.17828,-1.779736 z m -8.16487,0.99012 c -0.298142,-5.11e-4 -0.556042,0.265465 -0.556042,0.573609 0,0.29051 0.436119,0.839706 0.883152,1.11156 0.31224,0.189891 0.5969,0.176923 0.86713,-0.03927 0.47049,-0.376411 -0.44972,-1.644595 -1.19424,-1.645895 z m 9.47229,0.07235 c -0.24883,-0.0039 -0.5338,0.151901 -0.84646,0.464572 -0.42336,0.423363 -0.54375,0.952296 -0.27751,1.21853 0.26787,0.267879 0.72094,0.142064 1.19425,-0.331246 0.5214,-0.521397 0.61399,-0.989191 0.24598,-1.246952 -0.0971,-0.06803 -0.20316,-0.103137 -0.31626,-0.104904 z m -10.460347,1.28571 c -0.305849,0 -0.613399,0.289098 -0.613399,0.576709 0,0.274806 0.450458,0.756317 0.888318,0.949296 0.383255,0.168912 0.487362,0.174486 0.829408,0.04444 0.31661,-0.120374 0.36515,-0.549084 0.10438,-0.921391 -0.19526,-0.278769 -0.884718,-0.649056 -1.208707,-0.649056 z M 110.5209,49.53445 c -0.56494,5.01e-4 -1.07128,0.308902 -1.30224,0.793233 -0.17708,0.371387 -0.17618,0.380288 0.0651,0.575676 0.29989,0.242835 0.5483,0.250053 0.98495,0.02894 1.04143,-0.527357 1.19854,-1.398687 0.25218,-1.397848 z m -11.927952,1.54926 c -0.321305,-0.011 -0.613077,0.07073 -0.745174,0.272334 -0.208251,0.317831 -0.07897,0.60648 0.403593,0.900721 0.74443,0.453911 1.754483,0.15338 1.596802,-0.474907 -0.101529,-0.404521 -0.719711,-0.679821 -1.255221,-0.698148 z m 12.401312,0.01085 c -0.55694,0.0072 -1.20594,0.297931 -1.26246,0.789099 -0.0232,0.202002 0.0279,0.35087 0.1509,0.4408 0.21832,0.159642 0.85698,0.17822 1.23196,0.03566 0.36083,-0.137189 0.6904,-0.484619 0.6904,-0.72812 0,-0.376676 -0.37763,-0.543014 -0.8108,-0.537435 z m -0.10801,1.594734 c -0.18154,0.0039 -0.35908,0.04081 -0.50901,0.118339 -0.63964,0.330772 -0.70422,0.763646 -0.15864,1.059884 0.69663,0.378264 1.79523,0.05754 1.79523,-0.523999 0,-0.379834 -0.58293,-0.665855 -1.12758,-0.654224 z m -12.294852,0.0041 c -0.328856,0.001 -0.659701,0.09268 -0.876949,0.295073 -0.294196,0.274083 -0.286739,0.466703 0.02946,0.782898 0.539433,0.539433 1.937866,0.230662 1.937866,-0.427881 0,-0.402708 -0.542279,-0.6518 -1.090373,-0.65009 z m 11.906252,1.54771 c -0.44851,-2.84e-4 -0.80426,0.231858 -0.76275,0.659391 0.0264,0.272477 0.11321,0.369924 0.49868,0.564307 0.54547,0.275064 1.01401,0.30081 1.33945,0.07286 0.29781,-0.208679 0.29647,-0.576687 -0.003,-0.857312 -0.31835,-0.298222 -0.72344,-0.439029 -1.07228,-0.439249 z m -11.340395,0.0052 c -0.209658,-0.0048 -0.451709,0.04856 -0.730705,0.160197 -0.647699,0.259158 -0.838312,0.814639 -0.390674,1.137915 0.171388,0.123776 0.362607,0.153791 0.705384,0.110071 0.55742,-0.0711 0.953738,-0.336917 1.095023,-0.733805 0.08712,-0.244718 0.06599,-0.317251 -0.14211,-0.485759 -0.149872,-0.12136 -0.32726,-0.183863 -0.536918,-0.188619 z m 10.646895,1.377694 c -0.36459,-5.57e-4 -0.71623,0.220953 -0.71623,0.482658 0,0.277088 0.37593,0.714977 0.81907,0.953947 0.63864,0.344394 1.36102,0.06627 1.21181,-0.466638 -0.0915,-0.326794 -0.76442,-0.882064 -1.15859,-0.956014 -0.0516,-0.0097 -0.10397,-0.01387 -0.15606,-0.01395 z m -9.934794,0.06098 c -0.397885,0.0017 -0.91916,0.215531 -1.223181,0.602031 -0.263371,0.334815 -0.275092,0.535891 -0.04547,0.789615 0.238315,0.263337 0.614685,0.23931 1.14825,-0.07338 0.493665,-0.289299 0.664565,-0.525499 0.664565,-0.919324 0,-0.273456 -0.23469,-0.400299 -0.544159,-0.398942 z m 8.873874,1.104326 c -0.1011,-0.0039 -0.19557,0.01403 -0.2775,0.05788 -0.15494,0.0829 -0.21394,0.218516 -0.21394,0.490409 0,0.304439 0.0865,0.462716 0.4563,0.832508 0.6823,0.682299 1.32034,0.616436 1.32034,-0.135909 0,-0.572988 -0.73925,-1.223964 -1.2852,-1.244885 z m -7.91683,0.0801 c -0.0203,-5.56e-4 -0.0411,-1.12e-4 -0.062,10e-4 -0.36765,0.02015 -0.8175,0.300709 -1.083136,0.736389 -0.271148,0.444724 -0.263153,0.760212 0.02377,0.961181 0.374656,0.262417 0.970736,-0.0207 1.413866,-0.671793 0.27676,-0.406675 0.29671,-0.656203 0.0708,-0.882117 -0.0946,-0.09462 -0.22113,-0.1408 -0.36329,-0.144694 z m 6.75153,0.835091 c -0.16307,-0.0075 -0.31368,0.06038 -0.42581,0.231511 -0.24665,0.376434 0.0325,1.174855 0.5612,1.60507 0.27817,0.226364 0.73774,0.161506 0.86713,-0.122474 0.31764,-0.697136 -0.42012,-1.687374 -1.00252,-1.714107 z m -5.59139,0.03411 c -0.67278,-0.0042 -1.47098,1.471701 -0.89142,1.895491 0.27234,0.19914 0.40788,0.178988 0.75448,-0.112655 0.63409,-0.533553 0.81895,-1.47485 0.34003,-1.73116 -0.0652,-0.03492 -0.13349,-0.05124 -0.20309,-0.05168 z m 4.23902,0.481624 c -0.12506,0.0027 -0.24925,0.06889 -0.37776,0.197404 -0.38388,0.383879 -0.19177,1.452674 0.32608,1.815393 0.28384,0.198802 0.35221,0.206169 0.61288,0.06666 0.42596,-0.227979 0.3896,-1.235394 -0.0641,-1.774569 -0.17415,-0.206965 -0.33633,-0.308312 -0.49712,-0.304891 z m -2.93109,0.103353 c -0.36811,0.0075 -0.70928,0.473404 -0.76688,1.167887 -0.0357,0.430132 -0.006,0.60106 0.12868,0.735873 0.24663,0.246626 0.50753,0.219033 0.81338,-0.08682 0.4242,-0.424195 0.5318,-1.35565 0.19224,-1.662947 -0.11915,-0.107829 -0.24472,-0.156511 -0.36742,-0.153996 z m 1.44229,0.198437 c -0.54656,0 -0.82935,1.194397 -0.42788,1.807125 v 5.17e-4 c 0.22507,0.343489 0.59173,0.36969 0.86971,0.06253 0.14749,-0.163016 0.19896,-0.376878 0.19896,-0.825272 0,-0.680964 -0.22322,-1.044898 -0.64079,-1.044898 z m -55.010596,4.07572 v 1.699122 1.698604 l -1.206128,0.939994 -1.206128,0.939995 0.788065,0.03049 0.788066,0.031 v 2.137854 c 0,1.175935 0.02745,2.137854 0.06098,2.137854 0.03353,0 0.421281,-0.08815 0.861963,-0.195853 0.440681,-0.107706 1.153812,-0.252334 1.584916,-0.321944 0.431105,-0.06961 0.948619,-0.159728 1.149801,-0.199988 l 0.365869,-0.07338 0.06718,-0.747758 c 0.0808,-0.899874 0.420235,-1.594223 0.853695,-1.746663 0.598798,-0.210586 1.045458,0.373185 1.099158,1.436088 l 0.03824,0.752409 1.965255,0.0031 1.965255,0.0031 0.03824,-0.755509 c 0.0386,-0.764311 0.218485,-1.170708 0.635104,-1.433505 0.472508,-0.29805 1.160048,0.451537 1.283126,1.398881 0.123071,0.947291 0.119197,0.940511 0.576192,0.940511 0.385897,0 2.770536,0.350132 3.312976,0.486276 l 0.236678,0.05891 v -1.94045 -1.939934 l 0.788065,-0.031 0.788066,-0.03049 -1.206128,-0.939995 -1.206128,-0.939994 V 64.29686 62.597738 h -1.045414 -1.044897 v 0.836125 c 0,0.441995 -0.02438,0.807438 -0.05374,0.835091 l -5.17e-4,5.17e-4 -5.16e-4,5.17e-4 h -5.17e-4 -5.17e-4 -5.17e-4 c -0.03102,0 -0.501673,-0.358062 -1.045931,-0.795817 -0.698756,-0.56202 -1.027661,-0.766819 -1.119311,-0.696599 -0.07138,0.0547 -0.727237,0.577447 -1.457276,1.161687 -0.730038,0.584241 -1.379129,1.062467 -1.442289,1.062467 -0.06316,0 -0.71225,-0.478226 -1.442289,-1.062467 -0.730039,-0.58424 -1.385379,-1.106987 -1.456759,-1.161687 -0.09165,-0.07022 -0.420555,0.134579 -1.119311,0.696599 -0.544258,0.437755 -1.014911,0.795817 -1.045931,0.795817 h -5.17e-4 -5.17e-4 -5.17e-4 c -2.4e-4,-9.1e-5 -7.93e-4,-3.8e-4 -0.001,-5.17e-4 l -5.17e-4,-5.17e-4 -5.17e-4,-5.16e-4 c -0.02904,-0.03282 -0.05323,-0.396145 -0.05323,-0.834575 v -0.836125 h -1.044898 z m 75.371626,3.875216 c -0.39433,0.01301 -0.73169,0.444747 -0.41186,0.84801 0.0718,0.0906 0.20112,0.186981 0.28732,0.213941 0.49497,0.154792 0.9213,-0.478199 0.57774,-0.857829 -0.13569,-0.149945 -0.2989,-0.209213 -0.4532,-0.204122 z m 2.17506,2.597774 c -0.34855,0.01026 -0.63232,0.363413 -0.4346,0.797368 h 5.2e-4 c 0.16955,0.372118 0.72384,0.326487 0.94981,-0.07803 0.14283,-0.255754 0.13925,-0.29935 -0.0393,-0.49661 -0.14631,-0.161672 -0.31803,-0.227391 -0.47646,-0.222726 z m 9.90327,0.536402 c -0.13476,-0.0033 -0.35945,0.106327 -0.59841,0.310575 -0.24276,0.207502 -0.47542,0.309542 -0.70745,0.309542 -0.43639,0 -0.65468,0.367837 -0.46509,0.783931 0.20975,0.460355 1.06454,0.241227 1.06454,-0.272851 0,-0.103343 0.18761,-0.339228 0.41754,-0.523999 0.22992,-0.184771 0.41806,-0.398307 0.41806,-0.474907 0,-0.08737 -0.0483,-0.130284 -0.12919,-0.132291 z m -4.8798,0.991671 c -0.0908,0.0029 -0.18387,0.03354 -0.27544,0.09353 -0.29351,0.192338 -0.3361,0.587358 -0.0899,0.833541 0.40311,0.402568 1.14861,-0.0664 0.88573,-0.557589 -0.13256,-0.247697 -0.32063,-0.375958 -0.52038,-0.369486 z m -13.47257,1.372009 c -0.09,-0.0027 -0.16357,0.0012 -0.19947,0.01292 -0.16633,0.05415 -0.17015,0.565713 -0.005,0.730705 0.1731,0.172584 0.65838,0.157713 0.81028,-0.02532 0.069,-0.08306 0.10975,-0.259729 0.0909,-0.392224 -0.0262,-0.185173 -0.1188,-0.254043 -0.39997,-0.298173 -0.10059,-0.01579 -0.20664,-0.02519 -0.29663,-0.02791 z m 23.33915,3.01842 c -0.10631,-0.0045 -0.29426,0.06111 -0.55914,0.195337 -0.41487,0.210231 -0.62416,0.256466 -0.93534,0.206706 -0.29858,-0.04775 -0.44555,-0.01955 -0.57568,0.110587 -0.24511,0.245152 -0.21754,0.640116 0.0579,0.833024 0.12775,0.08948 0.29247,0.162781 0.36587,0.162781 0.15878,0 0.55139,-0.373185 0.55139,-0.523999 0,-0.05821 0.25242,-0.217423 0.5612,-0.353983 0.60369,-0.266846 0.77748,-0.437939 0.61288,-0.602548 -0.0171,-0.01712 -0.0436,-0.02639 -0.0791,-0.02791 z m -18.12293,0.269234 c -0.48472,0.01719 -0.71831,0.513137 -0.36535,0.866097 0.40573,0.405728 1.11082,-0.01001 0.92398,-0.544669 -0.078,-0.223052 -0.17642,-0.291367 -0.45837,-0.318327 -0.0345,-0.0033 -0.0679,-0.0042 -0.10026,-0.0031 z m -42.363818,0.194821 c -0.292673,0.0056 -0.596863,0.225794 -0.596863,0.531233 0,0.111954 0.41659,0.802494 0.926041,1.534274 0.859086,1.233995 0.922712,1.36004 0.874882,1.740979 -0.06164,0.490912 0.168639,0.981663 0.58136,1.23765 0.803521,0.498376 1.90221,-0.121504 1.90221,-1.073319 0,-0.649167 -0.580758,-1.249022 -1.218014,-1.258322 -0.26032,-0.0038 -0.40144,-0.156144 -1.133264,-1.220597 -0.459845,-0.668854 -0.898141,-1.278419 -0.974101,-1.354439 -0.09837,-0.09845 -0.229219,-0.140009 -0.362251,-0.137459 z m 49.543228,2.458247 c -0.0607,0.0011 -0.12044,0.01515 -0.17518,0.04444 -0.3603,0.19282 -0.46743,0.502805 -0.27544,0.795817 0.30335,0.46297 0.99787,0.236389 0.99787,-0.325561 0,-0.281428 -0.28415,-0.519259 -0.54725,-0.514698 z m 6.10454,0.362769 c -0.36302,0 -0.54105,0.171835 -0.54105,0.522449 0,0.14945 0.0566,0.328411 0.12557,0.397391 0.22147,0.221473 0.69043,0.148768 0.87695,-0.135909 0.15859,-0.242032 0.15859,-0.280416 0,-0.522448 -0.11458,-0.174866 -0.26723,-0.261483 -0.46147,-0.261483 z m -20.92534,1.691886 c -0.0182,-6.29e-4 -0.0364,-3.97e-4 -0.0548,5.17e-4 -0.13336,0.0066 -0.26779,0.05485 -0.3762,0.152962 -0.23457,0.212275 -0.24508,0.48976 -0.0269,0.707968 0.36494,0.364947 0.98547,0.11534 0.98547,-0.396359 0,-0.275055 -0.25412,-0.455646 -0.52762,-0.465088 z m 24.44709,3.281971 c -0.19494,0.01054 -0.38996,0.133751 -0.51418,0.365869 -0.24498,0.457741 0.53284,0.987993 0.90433,0.6165 0.0709,-0.07088 0.32614,-0.05682 0.77877,0.04289 0.79181,0.174433 0.9865,0.166413 0.9865,-0.04082 0,-0.104173 -0.24703,-0.210219 -0.7767,-0.333313 -0.43276,-0.100573 -0.81661,-0.251755 -0.86661,-0.341065 -0.12244,-0.218775 -0.31718,-0.320603 -0.51211,-0.310058 z m -53.232413,0.08682 c -0.119777,-0.0042 -0.243917,0.01095 -0.369487,0.04858 -1.020101,0.30563 -1.254864,1.649444 -0.393774,2.252576 0.128279,0.08985 0.446252,0.163297 0.708484,0.163297 0.540119,0 0.871159,-0.189483 1.098124,-0.628385 0.429974,-0.83148 -0.20491,-1.80684 -1.043347,-1.836064 z m 34.140553,0.06873 c -0.39433,0.01301 -0.7322,0.444747 -0.41238,0.84801 0.0719,0.09059 0.20112,0.18698 0.28732,0.21394 0.49497,0.154792 0.9213,-0.478198 0.57774,-0.857828 -0.13569,-0.149945 -0.29838,-0.209213 -0.45268,-0.204122 z m 6.58254,2.082043 c -0.36302,0 -0.54105,0.171835 -0.54105,0.522449 0,0.14945 0.0561,0.327895 0.12506,0.396875 0.22147,0.221474 0.69042,0.149285 0.87695,-0.135392 0.15858,-0.242032 0.15858,-0.280934 0,-0.522966 -0.11458,-0.174875 -0.26671,-0.260966 -0.46096,-0.260966 z m 6.26835,0.765845 c -0.42802,0.0183 -0.73007,0.595427 -0.37465,0.950846 0.2469,0.246897 0.64101,0.203413 0.83457,-0.09198 0.20812,-0.317632 0.11637,-0.656687 -0.21962,-0.80977 -0.0673,-0.03064 -0.1342,-0.04635 -0.19844,-0.04909 -0.014,-5.99e-4 -0.0281,-5.91e-4 -0.0419,0 z m -22.73608,0.494543 c -0.20049,0.0044 -0.40065,0.05728 -0.58187,0.164331 -0.82043,0.484671 -0.83007,1.657373 -0.0176,2.161626 1.06545,0.661246 2.36256,-0.619197 1.72341,-1.701189 -0.24108,-0.408108 -0.68288,-0.634417 -1.12397,-0.624768 z m -14.108696,0.522449 c -0.200492,0.0044 -0.401175,0.0578 -0.582393,0.164848 -0.820488,0.484671 -0.82955,1.656855 -0.01705,2.161108 1.065457,0.661246 2.362557,-0.619196 1.723409,-1.701188 -0.241076,-0.408109 -0.68288,-0.634417 -1.123963,-0.624768 z m -24.258467,1.590084 c -0.115936,-5e-5 -0.169479,0.04541 -0.250631,0.118856 -0.242138,0.219136 -0.292016,0.710397 -0.08837,0.869714 0.07185,0.05621 0.796254,0.332095 1.609721,0.612882 1.307518,0.45132 1.498931,0.547435 1.651062,0.829924 0.09465,0.175749 0.298959,0.398233 0.454236,0.494543 0.803521,0.498377 1.902209,-0.121504 1.902209,-1.073319 0,-0.967528 -1.119607,-1.582584 -1.920296,-1.054716 l -0.300757,0.198437 -1.544091,-0.537951 c -0.953446,-0.331955 -1.319859,-0.458287 -1.513086,-0.45837 z m 50.908523,5.934521 c -0.20049,0.0044 -0.40066,0.0578 -0.58188,0.164848 -0.82053,0.484672 -0.83007,1.656856 -0.0176,2.161109 1.06546,0.661246 2.36256,-0.61868 1.72341,-1.700672 -0.24107,-0.408109 -0.68288,-0.634933 -1.12396,-0.625285 z m -39.400182,1.358574 c -0.200492,0.0044 -0.401175,0.0578 -0.582393,0.164848 -0.820487,0.484672 -0.830066,1.656855 -0.01757,2.161108 1.065457,0.661245 2.363074,-0.618679 1.723926,-1.700671 -0.241076,-0.408109 -0.68288,-0.634934 -1.123963,-0.625285 z m 12.540837,4.389912 c -0.200492,0.004 -0.400658,0.0573 -0.581877,0.16433 -0.820487,0.48467 -0.830066,1.65737 -0.01757,2.16162 1.065457,0.66125 2.362557,-0.6192 1.723409,-1.70119 -0.241075,-0.40811 -0.68288,-0.63441 -1.123962,-0.62476 z m 14.631665,0.10438 c -0.20049,0.004 -0.40117,0.0573 -0.58239,0.16433 -0.82043,0.48467 -0.82956,1.65738 -0.0171,2.16163 1.06545,0.66125 2.36256,-0.6192 1.72341,-1.70119 -0.24107,-0.40811 -0.68288,-0.63442 -1.12396,-0.62477 z m -33.746261,4.08864 c -0.469576,-0.0257 -0.956077,0.20099 -1.20096,0.73381 -0.193989,0.42208 -0.0276,0.33847 -2.775541,1.39423 -1.148635,0.4413 -1.372428,0.68552 -1.062468,1.15858 0.09131,0.13936 0.265076,0.24702 0.398426,0.24702 0.130079,0 1.026884,-0.30567 1.992643,-0.67903 1.622618,-0.6273 1.773021,-0.66687 1.979207,-0.52245 0.711116,0.49809 1.848466,-0.17725 1.848466,-1.09761 0,-0.75125 -0.576032,-1.2015 -1.179773,-1.23455 z m 43.444381,4.78782 c -0.58156,0 -1.19218,0.61273 -1.19218,1.19683 0,0.3396 0.0768,0.30202 0.87488,-0.4315 0.65215,-0.5994 0.72096,-0.76533 0.3173,-0.76533 z m -33.787606,0.31936 c -0.213895,-0.005 -0.43232,0.0454 -0.634586,0.16485 -0.820488,0.48467 -0.830067,1.65738 -0.01757,2.16163 0.795932,0.49397 1.894458,-0.13155 1.894458,-1.07849 0,-0.70861 -0.600615,-1.23199 -1.242302,-1.24799 z m 11.496456,4.59817 c -0.213895,-0.005 -0.432321,0.0459 -0.634587,0.16537 -0.820487,0.48467 -0.830067,1.65685 -0.01757,2.16111 0.795933,0.49397 1.894457,-0.13103 1.894457,-1.07797 0,-0.70862 -0.60061,-1.23251 -1.2423,-1.24851 z m 10.34614,0.10439 c -0.2139,-0.005 -0.43232,0.0459 -0.63459,0.16536 -0.82053,0.48467 -0.83006,1.65737 -0.0176,2.16163 h 5.2e-4 c 0.79593,0.49397 1.89446,-0.13155 1.89446,-1.07849 0,-0.70861 -0.60114,-1.2325 -1.24282,-1.2485 z m 5.74642,10.00921 c -2.99073,0.03 -3.45035,0.0567 -3.76721,0.21704 -0.28796,0.14568 -0.48962,0.41847 -0.99684,1.3503 -0.34962,0.64232 -0.74814,1.49248 -0.88574,1.88929 -0.23976,0.69145 -0.24289,0.73263 -0.0708,0.99529 l 0.17983,0.2744 3.42977,-0.008 c 3.06135,-0.007 3.46857,-0.028 3.78478,-0.19223 0.29761,-0.15456 0.49146,-0.45028 1.21181,-1.8495 0.89854,-1.74533 1.04236,-2.27826 0.6935,-2.56729 -0.14085,-0.11629 -0.8077,-0.13735 -3.57911,-0.10955 z m 15.82332,0.17518 c -1.18445,0 -1.64413,0.0381 -1.88102,0.15658 -0.19099,0.0955 -0.52461,0.48341 -0.85318,0.9927 -0.29666,0.45985 -0.76676,1.18816 -1.0449,1.61851 -0.69899,1.08151 -1.97168,2.48549 -2.42982,2.68046 -0.60549,0.25768 -1.73254,0.46079 -3.09904,0.55759 -0.7612,0.0539 -1.39658,0.15329 -1.5751,0.24649 -0.16458,0.0859 -0.482,0.39726 -0.70538,0.69195 -0.35767,0.47185 -0.41234,0.62132 -0.45734,1.25057 -0.045,0.62848 -0.0243,0.741 0.17105,0.93638 0.13096,0.13092 0.3547,0.22221 0.54571,0.22221 0.22798,0 0.42763,0.10362 0.67334,0.34933 0.46509,0.46508 0.52141,0.75262 0.28112,1.43609 -0.32405,0.92176 -2.81618,7.34672 -3.44217,8.87439 -1.14952,2.8052 -1.22276,3.0932 -1.22576,4.80746 -0.002,1.3281 0.0262,1.58763 0.23048,2.09703 0.12823,0.31968 0.38583,0.73843 0.57257,0.93069 0.42464,0.43722 1.41441,0.90899 2.16834,1.03353 0.31615,0.0523 1.1524,0.1 1.85777,0.10697 1.05739,0.0101 1.47902,-0.0357 2.40347,-0.26148 1.25155,-0.30572 2.02669,-0.62775 3.10472,-1.29036 1.65895,-1.01967 3.05555,-2.26831 3.437,-3.07217 0.22213,-0.46815 0.21527,-0.60837 -0.046,-0.94051 -0.33271,-0.42297 -0.80641,-0.36953 -2.0929,0.23616 -2.30866,1.08694 -3.33364,1.12405 -3.33364,0.12144 0,-0.64719 0.10161,-0.8939 3.42666,-8.31474 1.69248,-3.77726 1.74581,-3.87917 2.38332,-4.54752 0.33971,-0.35615 0.83989,-0.74456 1.16013,-0.90124 0.54922,-0.26869 0.59989,-0.27424 2.10013,-0.22324 0.8516,0.0289 1.63257,0.009 1.7508,-0.045 0.2808,-0.12781 1.18971,-1.62751 1.26401,-2.08566 0.0399,-0.24606 0.01,-0.39868 -0.0956,-0.48628 -0.10102,-0.0838 -0.88013,-0.15909 -2.26963,-0.21859 -1.59667,-0.0684 -2.13787,-0.12539 -2.20607,-0.23306 -0.22124,-0.34922 -0.0733,-0.86113 0.68471,-2.36575 0.42823,-0.85 0.90507,-1.92891 1.05937,-2.39726 l 0.2806,-0.85163 -0.19998,-0.34727 c -0.3643,-0.63297 -0.81349,-0.76481 -2.59778,-0.76481 z m -60.918244,0.12402 c -3.950266,0.0655 -3.748914,0.005 -4.487065,1.34721 -0.282161,0.51288 -0.674094,1.32439 -0.870748,1.80351 -0.352359,0.85849 -0.37276,1.13179 -0.10852,1.46141 0.08866,0.11051 0.80084,0.13118 3.585311,0.10438 3.290534,-0.0317 3.490545,-0.0444 3.769796,-0.24443 0.197198,-0.14124 0.56138,-0.74698 1.099674,-1.82883 0.644698,-1.2957 0.800831,-1.7006 0.783931,-2.03346 -0.03377,-0.66497 -0.07167,-0.67119 -3.772379,-0.60979 z m 18.758545,0.0217 c -0.668639,0.0644 -0.867347,0.21908 -1.256254,0.5271 -0.525043,0.41584 -1.157552,1.51155 -1.157552,2.00504 0,0.80074 0.590924,1.17562 1.701188,1.07952 0.66819,-0.0579 0.808022,-0.0368 1.21698,0.18294 1.017315,0.5465 1.139493,1.12556 0.582393,2.75745 -0.372161,1.09015 -0.694926,1.71514 -0.886251,1.71514 -0.04887,0 -0.340005,-0.21491 -0.646472,-0.47749 -0.832369,-0.71318 -2.239559,-1.37046 -3.483508,-1.62729 -2.792449,-0.57655 -5.452734,0.3097 -8.087362,2.6939 -1.373691,1.24312 -2.897807,3.69534 -3.836458,6.17275 -0.365232,0.96396 -0.851362,2.98074 -0.99012,4.10724 -0.283639,2.30271 0.26411,5.45005 1.209745,6.94996 0.468268,0.74274 1.469319,1.68476 2.141988,2.0159 0.533143,0.26245 0.665609,0.28233 1.828829,0.27233 1.087602,-0.009 1.958729,-0.1069 2.847888,-0.32091 0.169848,-0.0409 0.235128,-0.01 0.235128,0.11162 0,0.0925 0.09381,0.26177 0.208773,0.37673 0.114961,0.11492 0.244904,0.20928 0.288354,0.20928 0.675739,0 10.381079,-0.43025 10.538375,-0.46715 0.120392,-0.0283 0.43778,-0.28545 0.705383,-0.57154 0.432791,-0.46268 0.486792,-0.57288 0.486792,-0.99942 0,-0.36526 -0.0592,-0.53876 -0.248047,-0.72761 -0.265214,-0.26522 -0.861172,-0.47142 -1.372009,-0.47542 -0.558664,-0.004 -0.628296,-0.11831 -0.615466,-1.01441 0.0136,-0.94958 0.04316,-1.02762 2.08101,-5.51646 0.730665,-1.60946 1.603763,-3.54776 1.94045,-4.30775 0.336687,-0.75998 0.658038,-1.46564 0.714168,-1.56786 0.05613,-0.10223 0.288092,-0.60921 0.515214,-1.12654 0.227122,-0.51732 0.554176,-1.24592 0.726571,-1.61954 0.607802,-1.31726 0.985022,-2.15601 1.55236,-3.44889 0.315293,-0.71851 0.975498,-2.19411 1.467094,-3.27887 0.845975,-1.86681 0.890795,-2.0011 0.831995,-2.50837 -0.0462,-0.3982 -0.13199,-0.5963 -0.3328,-0.77102 -0.24653,-0.21453 -0.377611,-0.23574 -1.492416,-0.23874 -0.672191,-0.002 -3.075478,-0.0462 -5.34076,-0.0982 -2.267959,-0.0521 -3.406565,-0.0778 -4.075203,-0.0134 z m -55.797628,0.0114 c -6.79934,-4.3e-4 -6.639161,-0.0148 -6.969084,0.62321 -0.465063,0.89933 0.131731,1.88464 1.141533,1.88464 0.541074,0 1.371502,0.34949 1.779219,0.7488 0.49122,0.48108 0.726673,1.42043 1.00459,4.00647 0.123546,1.14962 0.313658,2.77199 0.422197,3.60546 0.309476,2.37646 0.591495,5.03143 0.716235,6.74068 0.06292,0.86221 0.230334,3.11989 0.371554,5.01675 0.141221,1.89686 0.257275,3.80698 0.257865,4.2447 8.72e-4,0.64646 0.04171,0.84756 0.218075,1.07177 0.378156,0.48075 0.565751,0.52106 2.761071,0.59066 1.149612,0.0364 2.808139,0.0742 3.685563,0.0842 l 1.595769,0.0181 0.361218,-0.34003 c 0.198937,-0.18681 0.769511,-1.02121 1.267623,-1.85467 0.498112,-0.83347 1.353454,-2.22132 1.900659,-3.08353 1.342626,-2.11552 12.937604,-19.44265 13.26379,-19.82101 0.08228,-0.0954 0.534105,-0.27713 1.004073,-0.4036 1.060563,-0.2854 1.314758,-0.41497 1.717208,-0.87333 0.407244,-0.46383 0.49946,-0.87805 0.301273,-1.35237 -0.322374,-0.77152 -0.112606,-0.74367 -6.071464,-0.80977 -5.902986,-0.0655 -5.696725,-0.0857 -6.167582,0.6072 -0.391984,0.57685 -0.371168,1.31274 0.05168,1.82573 0.173785,0.21083 0.403644,0.41083 0.51108,0.44493 0.255299,0.081 0.431516,0.52194 0.441316,1.10381 0.008,0.47692 -0.25658,1.65171 -0.457853,2.03192 -0.152352,0.2878 -2.819202,4.58578 -3.632336,5.8539 -0.43851,0.68387 -1.50345,2.40474 -1.608688,2.59984 -0.06615,0.12263 -0.241499,0.41139 -0.38964,0.64131 -0.14814,0.22992 -0.466575,0.74692 -0.707967,1.14928 -0.677724,1.12966 -1.565644,2.56842 -1.87017,3.03082 l -0.274919,0.41807 -0.07648,-0.41807 c -0.04205,-0.22993 -0.0797,-1.07629 -0.0832,-1.88102 -0.0035,-0.80472 -0.05345,-1.98047 -0.111104,-2.61276 -0.05765,-0.63229 -0.149392,-1.90184 -0.204122,-2.82153 -0.05473,-0.91969 -0.289436,-3.03613 -0.521415,-4.70307 -0.552067,-3.96696 -0.545983,-4.3589 0.06976,-4.50464 0.394762,-0.0934 0.945388,-0.51828 1.188041,-0.91622 0.373941,-0.61325 0.218559,-1.39385 -0.345715,-1.73788 -0.331897,-0.20207 -0.529938,-0.20839 -6.539653,-0.20877 z m 72.658097,5.63686 -0.43098,0.36897 c -0.67344,0.57644 -1.15427,1.71088 -0.89194,2.10375 0.1307,0.19574 0.47246,0.33141 1.017,0.40411 0.8893,0.11868 0.99283,0.21093 0.9927,0.88315 -1e-4,0.59798 -0.002,0.60202 -1.88257,4.55476 -3.53562,7.43022 -3.96896,8.22984 -5.29632,9.76426 -0.453971,0.52478 -1.192952,0.89798 -2.070158,1.04593 -0.402365,0.0679 -0.825441,0.14195 -0.940511,0.16485 -0.11507,0.0229 -0.486218,0.28841 -0.824756,0.59015 -0.632771,0.56398 -1.105426,1.361 -1.107426,1.86707 -0.0012,0.32245 0.260754,0.71638 0.546737,0.82217 0.116424,0.0431 3.396402,0.0726 7.288964,0.0656 l 7.07708,-0.0124 0.44752,-0.3545 c 0.56415,-0.44681 0.83261,-1.02453 0.83561,-1.79937 0.003,-0.73833 -0.20956,-0.98678 -1.12861,-1.32188 -0.72093,-0.26286 -1.06425,-0.61832 -1.0635,-1.10071 2.8e-4,-0.17906 0.21613,-0.79565 0.47955,-1.37046 0.26343,-0.5748 0.82204,-1.79746 1.24127,-2.71715 0.86252,-1.89217 2.57318,-5.59183 3.79357,-8.20415 0.2014,-0.43111 0.51806,-1.13675 0.70383,-1.56786 0.18576,-0.4311 0.57935,-1.27504 0.87437,-1.87585 0.29502,-0.60081 0.5364,-1.22164 0.5364,-1.37925 0,-0.1576 -0.11349,-0.41853 -0.25218,-0.57981 l -0.25218,-0.293 -4.84674,-0.0289 z m -44.893383,0.31988 -0.36742,0.28009 c -0.482,0.36764 -0.974868,1.23358 -0.976168,1.71514 -0.0013,0.51255 0.257714,0.71541 1.059367,0.82837 0.85168,0.12001 1.078952,0.35762 0.996322,1.04283 -0.0622,0.51578 -0.206612,0.86538 -1.312065,3.17603 -0.409389,0.85572 -0.744657,1.56904 -0.744657,1.58544 0,0.0164 -0.381494,0.82122 -0.84801,1.78852 -0.466516,0.9673 -1.003584,2.09112 -1.193209,2.49752 -0.941949,2.01877 -1.481255,2.99389 -2.217436,4.00647 -0.4429,0.60919 -0.900777,1.18708 -1.016992,1.28468 -0.461193,0.38742 -1.18918,0.69503 -1.935283,0.817 -0.942452,0.15406 -1.163434,0.26044 -1.78387,0.85783 -1.157282,1.11428 -1.233903,2.40118 -0.153479,2.57659 0.220628,0.0358 3.429277,0.0603 7.130831,0.0543 l 6.730338,-0.0109 0.43925,-0.31213 c 0.604207,-0.42931 0.909505,-1.05523 0.909505,-1.86448 0,-0.77848 -0.146474,-0.94739 -1.178739,-1.35858 -0.389584,-0.15519 -0.75388,-0.36736 -0.80977,-0.4718 -0.202222,-0.37785 -0.107087,-1.01711 0.274919,-1.84433 0.207187,-0.44866 0.67223,-1.47369 1.033012,-2.27842 0.360782,-0.80473 0.808393,-1.79284 0.994771,-2.19521 0.605232,-1.30661 2.05879,-4.47458 2.39727,-5.22501 0.181485,-0.40237 0.392779,-0.84952 0.469739,-0.99322 0.07696,-0.1437 0.330877,-0.70813 0.564306,-1.25419 0.668503,-1.56385 1.339711,-3.01803 1.458826,-3.16156 0.333618,-0.40198 0.176658,-1.18547 -0.286804,-1.4335 -0.129385,-0.0692 -1.882321,-0.10749 -4.91753,-0.10749 z m 99.744303,0.56586 c -0.46772,0.0186 -0.56144,0.0705 -0.68988,0.17156 -0.42496,0.33428 -0.8282,1.27053 -0.8382,1.94459 -0.01,0.66947 0.0354,0.72154 1.20665,1.4056 0.38979,0.22764 0.75235,0.49631 0.80615,0.59686 0.0538,0.10055 0.17288,0.95725 0.26458,1.90376 0.15761,1.62764 0.54651,5.26641 1.36219,12.74651 0.55192,5.06131 0.54706,4.92208 0.21653,5.90506 -0.44499,1.32339 -0.93645,2.17424 -1.4087,2.43965 -0.73013,0.41082 -3.42291,0.69191 -4.01939,0.42013 -0.34705,-0.15811 -0.38914,-0.30708 -0.26872,-0.94207 0.25245,-1.33114 0.0976,-1.66057 -0.92087,-1.96163 -1.63852,-0.48432 -2.8015,-0.74328 -3.07269,-0.68368 -0.40919,0.0899 -0.8429,0.63514 -1.3441,1.68982 -0.95413,2.00782 -1.50501,4.30728 -1.2547,5.23689 0.23945,0.88923 0.93066,1.36661 2.58692,1.78645 0.76988,0.19516 2.01317,0.38279 3.06183,0.46199 1.77053,0.13372 4.50164,-0.49925 6.49366,-1.50482 1.90314,-0.9607 3.99184,-2.79085 5.1232,-4.48861 0.56411,-0.84653 1.27895,-2.21506 3.46439,-6.63474 1.10496,-2.2346 3.2026,-6.35167 5.2126,-10.2309 2.31321,-4.46441 3.7681,-6.32277 5.62705,-7.18716 0.48599,-0.22598 0.66007,-0.37446 0.82889,-0.70538 0.37303,-0.73118 0.19213,-1.80296 -0.35347,-2.09496 -0.15679,-0.0839 -1.53916,-0.12626 -4.59197,-0.14056 l -4.36769,-0.0207 -0.24443,0.28319 c -0.27033,0.31326 -0.57727,1.23778 -0.65267,1.96526 -0.0614,0.59236 0.13795,0.85364 0.86144,1.13119 l 0.52245,0.20051 0.031,0.57981 c 0.035,0.65303 -0.20885,1.20626 -1.73375,3.93257 -0.43616,0.77981 -1.37132,2.5703 -2.07791,3.97857 -0.70659,1.40828 -1.29059,2.53708 -1.29759,2.50838 -0.007,-0.0287 -0.074,-0.7813 -0.1478,-1.67225 -0.0738,-0.89095 -0.27728,-3.0074 -0.45216,-4.70308 -0.17488,-1.69567 -0.36922,-3.74124 -0.43202,-4.54597 -0.20123,-2.57905 -0.42037,-3.38996 -0.97048,-3.59306 -0.12931,-0.0477 -1.7467,-0.11592 -3.59462,-0.15142 -1.62595,-0.0313 -2.46802,-0.046 -2.93573,-0.0274 z m -10.76782,0.0568 c -1.26891,-0.0663 -2.7396,0.0149 -4.3093,0.24908 -2.04874,0.30571 -2.69796,0.47296 -3.59978,0.92811 -1.69337,0.85462 -2.67064,1.99264 -2.67064,3.10989 0,0.76868 0.20591,1.17323 0.76378,1.50016 0.5613,0.32895 1.05813,0.35487 2.05104,0.10749 0.96699,-0.24092 1.62006,-0.54913 2.46341,-1.16324 1.26356,-0.92009 1.84369,-1.17408 2.68304,-1.17408 0.66639,0 0.75531,0.0261 1.03457,0.3054 0.1882,0.1882 0.3054,0.41519 0.3054,0.59067 0,0.44869 -0.90454,2.02157 -1.23661,2.15025 -0.19313,0.0749 -0.88852,0.0713 -2.26447,-0.0108 -2.27877,-0.13601 -2.81203,-0.0856 -4.94595,0.4656 -2.38882,0.61704 -3.75317,1.53709 -5.46581,3.68557 -0.94073,1.18013 -1.31609,1.93656 -1.62678,3.28093 -0.4874,2.1091 -0.33724,3.62389 0.51832,5.24103 0.42866,0.81022 1.74356,2.04412 2.65823,2.49442 0.60905,0.29987 0.81897,0.34672 1.71979,0.38292 0.82432,0.0331 1.20562,-0.005 1.94149,-0.19585 1.49765,-0.38798 1.98228,-0.32114 2.77141,0.38447 l 0.39222,0.35088 1.38441,-10e-4 c 3.27652,-0.002 7.35689,-0.37551 8.02638,-0.73381 0.21569,-0.11544 0.71085,-1.0229 0.93483,-1.71359 0.12405,-0.38256 0.117,-0.42381 -0.1018,-0.60099 -0.15036,-0.12171 -0.409,-0.19176 -0.71934,-0.19276 -0.91966,-0.004 -1.68672,-0.53789 -1.68672,-1.17357 0,-0.38989 0.31566,-1.30845 0.83251,-2.42207 0.23188,-0.4996 0.42116,-0.94642 0.42116,-0.99322 0,-0.0937 0.37158,-1.00234 0.52349,-1.28003 0.1098,-0.20073 0.8356,-2.04042 0.8356,-2.11822 0,-0.0283 0.12347,-0.32355 0.27492,-0.65577 0.15145,-0.33221 0.40402,-0.88605 0.56121,-1.23093 0.15718,-0.34488 0.57939,-1.33249 0.93793,-2.1947 0.54804,-1.31792 0.65988,-1.69232 0.70228,-2.35128 0.12334,-1.91681 -0.89293,-3.39743 -3.01015,-4.38474 -0.76375,-0.35616 -1.83116,-0.56984 -3.10007,-0.63614 z m -64.460667,4.2509 c 0.178404,-0.0113 0.343596,0.001 0.491443,0.0408 0.644792,0.17172 0.820621,0.36298 0.820621,0.89245 0,0.52062 -0.357292,1.39487 -1.513602,3.70158 -1.115008,2.22432 -2.049092,4.26695 -2.772958,6.0632 -0.335879,0.83346 -0.820277,1.96606 -1.07642,2.51664 -0.450322,0.96797 -0.483118,1.00839 -0.993221,1.22783 -0.290146,0.12482 -0.572652,0.22686 -0.627352,0.22686 -0.249925,0 -1.132872,-0.71396 -1.296561,-1.04851 -0.320473,-0.65499 -0.448078,-1.86187 -0.300757,-2.84221 0.411294,-2.73692 1.650932,-6.00557 2.976562,-7.8481 1.146227,-1.59318 3.043413,-2.85178 4.292245,-2.93057 z m 59.953447,4.8457 c 0.73496,0 1.03404,0.0632 1.03404,0.21911 0,0.0509 -0.3577,0.81022 -0.7953,1.68724 -1.21205,2.42916 -2.51704,5.59613 -2.97863,7.22901 -0.10506,0.37164 -0.23133,0.56597 -0.45837,0.70487 -0.52589,0.32175 -1.60877,0.21724 -2.08721,-0.20154 -0.39535,-0.34604 -0.49127,-0.68967 -0.50177,-1.80041 -0.0105,-1.10645 0.19611,-1.94755 0.80822,-3.29075 0.61228,-1.34356 1.82278,-2.99078 2.67683,-3.64216 0.84155,-0.64184 1.51163,-0.90537 2.30219,-0.90537 z M 33.607251,160.319 c -0.110204,0.007 -0.23138,0.0797 -0.335897,0.22893 -0.194814,0.27813 -0.207692,0.51682 -0.03721,0.6873 0.06898,0.069 0.16331,0.12557 0.20929,0.12557 0.139895,0 0.501261,-0.40846 0.501261,-0.56637 0,-0.31249 -0.153774,-0.4863 -0.337447,-0.47543 z m 114.430229,5.2e-4 c -0.0719,0.004 -0.15099,0.0358 -0.23358,0.10439 -0.1532,0.12711 -0.21109,0.73821 -0.0822,0.86713 0.11674,0.11674 0.23418,0.0795 0.45941,-0.14573 0.337,-0.337 0.16776,-0.8437 -0.14366,-0.82579 z m -71.750147,0.008 c -0.10476,1.7e-4 -0.229912,0.063 -0.296106,0.15348 -0.174355,0.23845 -0.178974,0.7415 -0.0072,0.8108 0.215632,0.087 0.247906,0.0773 0.436149,-0.13074 0.23893,-0.26402 0.183503,-0.77812 -0.0894,-0.82992 -0.0139,-0.003 -0.02844,-0.004 -0.04341,-0.004 z"
       style="fill:#a08246;fill-opacity:1"
       id="path1-4"
       sodipodi:nodetypes="sscsssccsssccsssssscsssssssssssssssssssssssssssssssssssssssscssssssssssssssssscsccsscssssscsssssssssssssssssssssccssssccssssssssssscssssccsccssssscccssscccccccsssscccscccccsssccccccccccccscccccsssssssssccccccscccscsssccccscccsssssscsccssssccccsssssssssscssscscscsssssssssssssssssssssscssssccsssssscssscsssssscssssscssscsssscccsssccssssssssssssscccsscsssccsssssccsscccssccsssssssssssssccsscccsscccccscccssscccssccccsssssssccsssscsscccssssssssccssssssccccccscsssscsssccssssssssscsssscssscsssssssscsccssssssssssssccccsssssssssccsssssccssssscscssccscscscsscsccccsssssssscccccccssssssscsssscssssssssssscsccccsscsscsssssssssssssssccsscccssssssscccccssssssssccssssssccccssscssssssssssccccsssssssssccsssssssssssssssssccssccccssccc" /><g
       id="g7"
       transform="translate(212.85504,-1.058903)"><path
         d="m -116.36016,157.5651 c -0.0951,-0.001 -0.25521,0.12106 -0.60151,0.39636 -0.21555,0.17136 -0.39171,0.39476 -0.39171,0.49661 0,0.17423 0.029,0.17529 0.4961,0.0212 0.6807,-0.22457 0.79317,-0.34376 0.65784,-0.6997 -0.0522,-0.13737 -0.0868,-0.21338 -0.16071,-0.21446 z m -35.26038,0.017 c -0.16837,0.008 -0.31006,0.15654 -0.42994,0.44597 -0.14444,0.34868 -0.0485,0.58364 0.1173,0.28732 0.13151,-0.235 0.25914,-0.22947 0.5824,0.0248 0.20012,0.15741 0.30956,0.18148 0.4594,0.10128 0.1707,-0.0914 0.51263,-0.60687 0.51263,-0.77308 0,-0.12943 -0.2957,-0.0459 -0.3514,0.0992 -0.0812,0.21178 -0.2434,0.197 -0.55759,-0.0501 -0.12093,-0.0951 -0.23177,-0.14043 -0.3328,-0.13539 z m 6.19498,1.28054 c -0.0282,-5e-4 -0.0602,0.003 -0.0977,0.003 -0.22951,0 -0.38085,0.2496 -1.45831,2.40295 -0.66127,1.32158 -1.20251,2.45329 -1.20251,2.51509 0,0.0618 0.11986,0.0973 0.26613,0.0791 0.22134,-0.0275 0.32204,-0.16468 0.60203,-0.81701 l 0.33642,-0.78341 0.6475,-0.031 0.64699,-0.031 0.031,0.81494 0.0305,0.81442 0.40566,0.0336 c 0.22313,0.0182 0.4417,-0.005 0.48576,-0.0522 0.0441,-0.047 -0.0342,-1.02648 -0.17415,-2.17609 -0.31554,-2.59245 -0.32208,-2.76841 -0.51935,-2.77193 z m 19.06033,0.002 c -0.20798,0 -0.3999,0.32158 -1.46038,2.44481 -0.67153,1.34451 -1.20248,2.46294 -1.17977,2.48564 0.0227,0.0227 0.1438,0.0413 0.26924,0.0413 0.18347,0 0.29977,-0.15927 0.59479,-0.8139 l 0.3669,-0.81339 h 0.59583 0.59583 l 0.0946,0.80409 0.0946,0.80408 0.4439,0.0222 c 0.24048,0.0119 0.43814,-0.008 0.44442,-0.045 3e-5,-2.9e-4 0,-10e-4 0,-0.002 8.6e-4,-0.19031 -0.53996,-4.68547 -0.57723,-4.79764 -0.0239,-0.0718 -0.15096,-0.13074 -0.28267,-0.13074 z m 42.32662,0 c -0.20798,0 -0.39991,0.32158 -1.46038,2.44481 -0.67153,1.34451 -1.20247,2.46294 -1.17977,2.48564 0.0227,0.0227 0.1438,0.0413 0.26923,0.0413 0.18348,0 0.29978,-0.15927 0.5948,-0.8139 l 0.3669,-0.81339 h 0.59583 0.59583 l 0.0946,0.80409 0.0946,0.80408 0.44391,0.0222 c 0.24048,0.0119 0.43814,-0.008 0.44441,-0.045 v -5.1e-4 h 5.2e-4 v -5.2e-4 -5.2e-4 c 8.7e-4,-0.19031 -0.54044,-4.68547 -0.57774,-4.79764 -0.0239,-0.0718 -0.15097,-0.13074 -0.28267,-0.13074 z m -84.47237,5.2e-4 c -0.23568,0 -0.37659,0.23179 -1.46296,2.40295 -0.66115,1.32136 -1.20233,2.44951 -1.20251,2.50786 0,0.058 0.1086,0.10542 0.24133,0.10542 0.20253,0 0.29818,-0.13445 0.5948,-0.83613 l 0.35346,-0.8356 h 0.60255 c 0.59831,0 0.60266,0.002 0.65888,0.33951 0.0311,0.18681 0.0686,0.5511 0.0832,0.80977 l 0.0264,0.47026 h 0.47025 c 0.40944,0 0.46694,-0.0268 0.4439,-0.20878 -0.10251,-0.80965 -0.54829,-4.61076 -0.54829,-4.67516 0,-0.044 -0.1175,-0.0801 -0.26096,-0.0801 z m -5.45754,0.003 c -0.56951,0.003 -1.18551,0.32034 -1.62833,0.83768 -1.13299,1.32365 -1.08676,3.59282 0.0832,4.07675 0.56735,0.23467 1.40356,-0.0102 1.91823,-0.56172 0.35952,-0.38525 0.17467,-0.57991 -0.20515,-0.21601 -0.24019,0.23007 -0.4037,0.29111 -0.79841,0.29611 -0.46422,0.006 -0.50879,-0.0171 -0.68574,-0.35915 -0.2812,-0.54358 -0.2024,-1.84023 0.15968,-2.63034 0.3139,-0.685 0.65174,-0.95173 1.14566,-0.90433 0.2788,0.0267 0.38813,0.11069 0.55604,0.42529 0.11496,0.2154 0.24226,0.39155 0.28267,0.39171 0.0757,2.9e-4 0.29046,-0.6773 0.29146,-0.91932 8.1e-4,-0.18828 -0.64274,-0.43967 -1.11931,-0.43667 z m 16.64497,0.0171 c -0.21283,0.005 -0.37549,0.29534 -1.44228,2.43292 -0.6754,1.35332 -1.22784,2.48703 -1.22784,2.51923 0,0.0326 0.125,0.0435 0.27802,0.0253 0.23738,-0.0282 0.32693,-0.14827 0.6103,-0.81701 l 0.33228,-0.78341 0.64389,-0.0315 0.64337,-0.031 0.002,0.44907 c 6.3e-4,0.24704 0.03,0.62574 0.0656,0.84129 0.0633,0.38292 0.075,0.39171 0.52141,0.39171 0.299,0 0.45472,-0.0447 0.45062,-0.13022 -0.004,-0.0718 -0.13484,-1.18922 -0.29145,-2.48254 -0.28253,-2.33313 -0.2865,-2.35135 -0.54209,-2.38125 -0.0149,-0.002 -0.0292,-0.003 -0.0434,-0.003 z m 17.09715,0.002 c -0.39466,-0.0186 -0.74485,0.12444 -1.03404,0.42426 -0.77267,0.80107 -0.72905,1.73761 0.1142,2.44533 0.19451,0.16324 0.40817,0.40153 0.47491,0.52968 0.21899,0.42048 -0.11349,1.17822 -0.51728,1.17822 -0.17235,0 -0.52084,-0.35009 -0.79272,-0.79633 -0.1121,-0.18401 -0.12724,-0.1778 -0.23409,0.0951 -0.27681,0.70687 -0.26708,0.79598 0.10748,0.9586 1.01252,0.43962 2.12516,-0.16441 2.34715,-1.27434 0.10796,-0.5398 -0.0407,-0.87044 -0.65733,-1.46296 -0.54428,-0.52296 -0.57694,-0.58244 -0.51883,-0.94051 0.078,-0.48047 0.38492,-0.8067 0.67335,-0.7152 0.11728,0.0372 0.28677,0.25423 0.37982,0.48679 0.19583,0.48944 0.32504,0.45725 0.48059,-0.1204 0.13726,-0.50976 0.0961,-0.58241 -0.41445,-0.73536 -0.14079,-0.0422 -0.27721,-0.0667 -0.40876,-0.0729 z m -24.15666,0.0832 v 0.34727 c 0,0.19105 -0.16469,1.2506 -0.36587,2.3549 -0.20118,1.1043 -0.36587,2.03412 -0.36587,2.06602 v 5.2e-4 5.1e-4 l 5.1e-4,5.2e-4 v 5.2e-4 l 5.2e-4,5.1e-4 5.2e-4,5.2e-4 c 0.0356,0.0294 0.50354,0.0379 1.0697,0.0191 1.22618,-0.0408 1.58569,-0.20819 1.90893,-0.88935 0.28174,-0.59373 0.24138,-1.13481 -0.11162,-1.50327 -0.2601,-0.27148 -0.27585,-0.32381 -0.13384,-0.43873 0.55735,-0.45105 0.67736,-1.27393 0.24856,-1.70274 -0.23653,-0.23652 -0.33436,-0.25632 -1.25419,-0.25632 z m 13.83843,0 -0.19276,1.3653 c -0.31972,2.26297 -0.22886,2.23146 -1.00975,0.34468 -0.63933,-1.54472 -0.70656,-1.66031 -0.9803,-1.69241 -0.3398,-0.0399 -0.46921,0.11302 -0.47181,0.55708 -0.001,0.17245 -0.18092,1.19548 -0.39998,2.27324 l -0.39842,1.95957 h 0.24495 c 0.28825,0 0.25547,0.0974 0.55087,-1.61954 0.12856,-0.74725 0.26356,-1.41394 0.30024,-1.48104 1.4e-4,-2.7e-4 8.5e-4,-10e-4 0.001,-0.002 l 5.1e-4,-5.2e-4 5.2e-4,-5.2e-4 5.2e-4,-5.1e-4 5.1e-4,-5.2e-4 c 2.1e-4,-1.1e-4 0.001,-4.3e-4 0.002,-5.2e-4 h 5.2e-4 l 5.2e-4,-5.1e-4 h 5.1e-4 5.2e-4 c 0.0611,7.5e-4 0.38338,0.64896 0.73949,1.49293 0.66563,1.57752 0.68563,1.61027 0.99942,1.61127 l 0.3204,0.001 0.3855,-2.16886 c 0.21199,-1.19272 0.41427,-2.27414 0.44959,-2.40347 0.0559,-0.20475 0.0245,-0.23513 -0.2403,-0.23513 z m 18.75906,0 c -1.63826,0 -1.66243,0.008 -1.66243,0.54106 0,0.19221 0.0447,0.20419 0.52245,0.13849 0.64471,-0.0887 0.63393,-0.20282 0.20619,2.17661 -0.36135,2.01008 -0.33917,1.8751 -0.32298,1.97766 0.0174,0.11015 0.71908,0.0982 0.78806,-0.0134 0.0312,-0.0505 0.19982,-0.93229 0.37466,-1.95957 0.42176,-2.47806 0.32694,-2.26881 0.99012,-2.18591 l 0.55242,0.0687 0.0434,-0.37155 0.0434,-0.37208 z m 10.83965,0 c -1.17332,0 -1.21247,0.007 -1.25471,0.23513 -0.024,0.12933 -0.19205,1.10496 -0.37362,2.16835 -0.18157,1.06339 -0.35728,2.06603 -0.39015,2.22777 -0.0589,0.28998 -0.0531,0.29326 0.39429,0.26096 l 0.45372,-0.0325 0.12815,-0.83613 c 0.0706,-0.45985 0.15663,-0.98789 0.19121,-1.17357 l 0.0625,-0.33796 0.60926,0.0636 0.60875,0.0641 0.0481,-0.32711 0.0481,-0.32712 h -0.62063 c -0.59096,0 -0.61755,-0.0111 -0.56173,-0.23512 0.0322,-0.12933 0.0904,-0.43526 0.1292,-0.67955 l 0.0708,-0.4439 h 0.77049 c 0.59544,0 0.7705,-0.0338 0.7705,-0.14831 0,-0.0815 0.0287,-0.22278 0.0636,-0.31368 0.0556,-0.14491 -0.0863,-0.16485 -1.14774,-0.16485 z m 3.60495,0 -0.0703,0.4961 c -0.0979,0.6922 -0.65831,3.79061 -0.73743,4.07624 -0.0606,0.21865 -0.0325,0.23512 0.40515,0.23512 h 0.47077 l 0.0698,-0.49661 c 0.12261,-0.87432 0.68164,-3.96978 0.74827,-4.14341 0.0532,-0.13875 -0.0178,-0.16744 -0.41082,-0.16744 z m 6.99905,0 -0.0512,0.33952 c -0.11701,0.78053 -0.69242,4.01606 -0.75292,4.23282 -0.0649,0.23315 -0.0547,0.23512 0.9958,0.23512 0.85,0 1.1417,-0.0412 1.46503,-0.20619 1.16956,-0.59668 1.7515,-2.48188 1.1498,-3.72483 -0.34565,-0.71402 -0.68628,-0.87597 -1.84485,-0.87644 z m 5.9924,0 -0.13177,0.96635 c -0.0725,0.53169 -0.26012,1.61363 -0.41703,2.40399 l -0.28526,1.43661 h 1.21853 c 1.17542,0 1.22078,-0.008 1.28158,-0.23513 0.12662,-0.47245 0.10776,-0.48313 -0.72554,-0.42013 l -0.79168,0.0599 0.0641,-0.35553 c 0.0351,-0.19543 0.0989,-0.56712 0.14211,-0.82579 l 0.0785,-0.47025 h 0.62321 c 0.602,0 0.62388,-0.01 0.65578,-0.28733 0.0326,-0.2834 0.0242,-0.28732 -0.54881,-0.28732 -0.65452,0 -0.64202,0.0231 -0.46302,-0.86816 l 0.11834,-0.59015 0.75603,0.0641 0.75603,0.0641 0.048,-0.32763 0.0481,-0.32763 h -1.21336 z m 5.5454,0 c -0.39966,0 -0.47151,0.033 -0.50901,0.23513 -0.024,0.12933 -0.19024,1.10496 -0.37001,2.16835 -0.17977,1.06339 -0.35514,2.04074 -0.38964,2.17196 l -0.0625,0.23874 1.24076,-0.0294 1.24126,-0.0295 0.0336,-0.35398 0.0341,-0.35399 -0.73949,0.0729 c -0.72686,0.0716 -0.73897,0.0687 -0.73897,-0.1726 0,-0.25619 0.58971,-3.58947 0.67541,-3.81734 0.0347,-0.0923 -0.0869,-0.13023 -0.41548,-0.13023 z m 7.41143,0 0.17725,1.38442 c 0.0976,0.76162 0.23468,1.867 0.30438,2.45618 0.19317,1.63238 0.2686,1.57374 1.72237,-1.3317 0.66127,-1.32157 1.20251,-2.42699 1.20251,-2.45619 0,-0.0292 -0.14122,-0.0527 -0.31367,-0.0527 -0.17244,0 -0.31368,0.0507 -0.31368,0.11266 0,0.27445 -1.39721,3.13587 -1.46761,3.0055 -0.0633,-0.11734 -0.30902,-2.47338 -0.30902,-2.96364 0,-0.11519 -0.12802,-0.15452 -0.50127,-0.15452 z m 11.58173,0 -0.0708,0.4961 c -0.12321,0.86012 -0.69111,3.99854 -0.75241,4.1584 -0.0495,0.12904 0.13893,0.15296 1.20664,0.15296 1.1777,0 1.26504,-0.0139 1.26504,-0.2005 0,-0.11026 0.0309,-0.28132 0.0687,-0.37982 0.0627,-0.16334 -0.001,-0.17279 -0.73122,-0.10439 -0.66367,0.0622 -0.80047,0.0496 -0.80047,-0.076 0,-0.18397 0.61118,-3.60719 0.68988,-3.86437 0.0475,-0.15519 -0.0148,-0.18242 -0.40979,-0.18242 z m 5.04,0 -0.18759,1.22784 c -0.10313,0.6754 -0.29194,1.75681 -0.41961,2.40347 l -0.23203,1.17615 h 1.23249 c 0.91533,0 1.23251,-0.0337 1.23351,-0.13074 7e-4,-0.0719 0.0311,-0.24292 0.0677,-0.37982 l 0.0667,-0.24856 -0.79943,0.0749 c -0.43979,0.0412 -0.7995,0.0356 -0.79944,-0.0124 1.4e-4,-0.11574 0.62077,-3.57421 0.69557,-3.87573 0.0538,-0.21695 0.0232,-0.23513 -0.39946,-0.23513 z m 5.01416,0 -0.13177,0.96635 c -0.0725,0.53169 -0.26011,1.61363 -0.41703,2.40399 l -0.28526,1.43712 h 1.21853 c 1.17541,0 1.22078,-0.009 1.28158,-0.23564 0.12662,-0.47245 0.10777,-0.48313 -0.72554,-0.42013 l -0.79168,0.0599 0.0641,-0.35553 c 0.0351,-0.19543 0.0989,-0.5666 0.14211,-0.82527 l 0.0786,-0.47077 h 0.62322 c 0.60201,0 0.62429,-0.01 0.65629,-0.28733 0.0326,-0.2834 0.0242,-0.28732 -0.54881,-0.28732 -0.65452,0 -0.64253,0.0231 -0.46354,-0.86816 l 0.11834,-0.59015 0.75603,0.0641 0.75603,0.0641 0.0481,-0.32763 0.048,-0.32763 h -1.21336 z m -39.26582,0.42375 c 0.2021,0.0112 0.41841,0.0732 0.55139,0.18087 0.31616,0.25602 0.375,0.92238 0.17518,1.98179 -0.19688,1.04388 -0.41479,1.52674 -0.75912,1.68362 -0.39122,0.17825 -0.97689,0.15092 -1.05369,-0.0491 -0.0793,-0.20662 0.4744,-3.49144 0.61909,-3.67265 0.0767,-0.096 0.26505,-0.13573 0.46715,-0.12454 z m -54.10574,0.0465 c 0.30499,0 0.37109,0.0407 0.40049,0.24856 0.0528,0.37311 -0.075,0.92558 -0.2558,1.1064 -0.0881,0.088 -0.2983,0.16019 -0.46663,0.16019 -0.35006,0 -0.36855,-0.11328 -0.16434,-0.9927 0.11708,-0.50415 0.13408,-0.52245 0.48628,-0.52245 z m 36.33577,0.75138 0.0687,0.50074 c 0.0378,0.27561 0.0687,0.61208 0.0687,0.74776 0,0.21809 -0.0484,0.24701 -0.41807,0.24701 -0.22992,0 -0.41569,-0.0354 -0.41289,-0.0785 0.003,-0.0431 0.15998,-0.37957 0.34933,-0.74775 z m 42.32661,0 0.0687,0.50074 c 0.0378,0.27561 0.0687,0.61208 0.0687,0.74776 0,0.21809 -0.0484,0.24701 -0.41806,0.24701 -0.22992,0 -0.4159,-0.0354 -0.4129,-0.0785 0.003,-0.0431 0.15998,-0.37957 0.34934,-0.74775 z m -61.49237,0.15658 c 0.0512,-0.006 0.0737,0.0849 0.0744,0.26768 6.3e-4,0.15807 0.0305,0.46399 0.0661,0.67954 l 0.0646,0.39171 h -0.48266 -0.48317 l 0.33486,-0.67903 c 0.21528,-0.43656 0.35098,-0.65151 0.42582,-0.6599 z m -11.75225,0.0134 c 0.002,-1.6e-4 0.004,2.6e-4 0.005,0.001 2.8e-4,2e-4 0.001,0.001 0.002,0.002 0.003,0.003 0.005,0.009 0.005,0.0165 0.003,0.11497 0.0356,0.45632 0.0718,0.75809 l 0.0661,0.54829 h -0.43253 c -0.23793,0 -0.43068,-0.0349 -0.42788,-0.078 0.013,-0.20036 0.61683,-1.24005 0.71055,-1.24747 z m -11.31042,0.11111 c 0.0849,-0.007 0.1266,0.21193 0.16795,0.6661 l 0.0496,0.54829 h -0.45372 -0.45424 l 0.33486,-0.67851 c 0.17203,-0.34886 0.28066,-0.53004 0.35554,-0.53588 z m 5.42189,0.90072 c 0.38104,0 0.58232,0.11187 0.68419,0.37982 0.12644,0.33256 -0.0635,1.30888 -0.28732,1.47536 -0.0966,0.0718 -0.36003,0.13074 -0.58549,0.13074 h -0.41031 l 0.0729,-0.49661 c 0.18243,-1.24649 0.26825,-1.48931 0.52606,-1.48931 z"
         style="fill:#475f1c;fill-opacity:1"
         id="path1-2"
         sodipodi:nodetypes="ssssssscssssscsccssscccccccccccccssscccccccscccccssscccccccccccssccsscsccssccssssscsssccsscsssccsssccccccscscccsssssscsssssssssscssscccccccssssscccscsccssscccccccccssscssccsscssssccccsccsscccccccccssccsssccccsscccsccccscscccsccsccccccsssccccccccssscccccccsssscccsssscsscccsssssssscccccssccssssccsccsccccscscsccccccccsssssssssscssscssscsccssssscssccccssscsscccssccscccccsscscscccc" /><path
         d="m -101.57449,29.073732 c -0.0905,0.0045 -0.20294,0.218576 -0.40618,0.733289 -0.26884,0.680816 -0.88612,1.362775 -2.25671,2.491838 -0.51733,0.426162 -1.23394,1.058018 -1.59215,1.404048 -0.75353,0.727905 -0.79909,0.476747 0.39274,2.154391 0.38794,0.546066 0.89684,1.376063 1.1312,1.844848 l 0.42633,0.852662 0.82475,-0.54312 c 0.45375,-0.298531 1.34825,-0.774816 1.98748,-1.05885 0.63922,-0.284033 1.26414,-0.593583 1.38906,-0.687813 0.21329,-0.160861 0.21965,-0.202635 0.0992,-0.681612 -0.0705,-0.280576 -0.4072,-1.224424 -0.74776,-2.097547 -0.66887,-1.714815 -0.97265,-2.825378 -0.89245,-3.259749 0.1912,-1.035968 0.19086,-1.088609 0.002,-1.015959 -0.10406,0.03993 -0.21697,0.01269 -0.26407,-0.06356 -0.0302,-0.04891 -0.0603,-0.0745 -0.093,-0.07286 z m -13.06742,5.17e-4 c -0.0298,0.0025 -0.0574,0.02722 -0.0853,0.07235 -0.0481,0.07783 -0.15996,0.103742 -0.26872,0.06201 -0.15941,-0.06117 -0.1778,-0.02784 -0.12609,0.23151 0.2517,1.262395 0.19712,1.574151 -0.72606,4.14135 -0.36636,1.018809 -0.69463,2.031407 -0.72967,2.250508 l -0.0641,0.398426 1.53893,0.723986 c 0.84625,0.398181 1.81997,0.920061 2.16421,1.15962 l 0.62631,0.435632 0.41186,-0.823206 c 0.2266,-0.452749 0.78732,-1.328996 1.24592,-1.947168 0.45861,-0.618173 0.86305,-1.239147 0.89865,-1.37976 0.0749,-0.295733 -0.0913,-0.459755 -2.11563,-2.096513 -1.50723,-1.218634 -2.16463,-1.925781 -2.40863,-2.58899 -0.16672,-0.453132 -0.2724,-0.647142 -0.36174,-0.639754 z m -11.61015,6.566011 c -0.0431,1.11e-4 -0.0597,0.04021 -0.0708,0.110587 -0.0184,0.11598 -0.1002,0.21084 -0.18242,0.21084 -0.21463,0 -0.19931,0.03667 0.31161,0.730705 0.49439,0.67158 0.75284,1.522948 0.99943,3.292822 0.14739,1.057955 0.41555,2.430362 0.53795,2.752287 0.0856,0.22513 0.13847,0.241982 0.58911,0.188102 0.27228,-0.03255 1.3929,-0.0908 2.49029,-0.129191 l 1.99522,-0.06976 -0.0434,-1.005107 c -0.0241,-0.5527 0.0278,-1.636015 0.11576,-2.407605 0.088,-0.771591 0.13709,-1.4398 0.10904,-1.48518 -0.0826,-0.133587 -0.71738,-0.282227 -2.60398,-0.608749 -2.35435,-0.407478 -2.99672,-0.616221 -3.71037,-1.205611 -0.31975,-0.264078 -0.46562,-0.374322 -0.53743,-0.374137 z m 36.39778,0.02584 c -0.0829,2.38e-4 -0.25628,0.11668 -0.63045,0.398942 -0.78919,0.595341 -1.21313,0.729367 -3.63544,1.14825 -0.9662,0.167081 -1.94461,0.365954 -2.17454,0.441834 -0.41797,0.137927 -0.41789,0.138208 -0.39739,0.659391 0.0113,0.286716 0.0526,1.402707 0.092,2.480469 l 0.0713,1.95957 1.47588,0.01137 c 0.81156,0.0062 1.75784,0.04738 2.10272,0.09147 0.34488,0.04409 0.81497,0.07438 1.04489,0.06718 0.41137,-0.01291 0.42026,-0.02116 0.55087,-0.535368 0.073,-0.287403 0.24909,-1.275008 0.39171,-2.194698 0.33155,-2.138134 0.55998,-2.888301 1.09709,-3.607015 0.31859,-0.426344 0.38809,-0.581975 0.27182,-0.606165 -0.086,-0.0179 -0.17072,-0.120009 -0.18862,-0.226859 -0.01,-0.05688 -0.0284,-0.08849 -0.0718,-0.08837 z m -0.23874,10.067102 -0.51005,1.1498 c -0.61394,1.382785 -0.95724,2.032632 -1.418,2.685625 l -0.34675,0.490926 0.75396,0.363802 c 0.41452,0.199862 1.3607,0.789955 2.10271,1.311548 0.74201,0.521592 1.38162,0.948262 1.42162,0.948262 0.12125,0 1.05486,-1.035637 1.93115,-2.142505 1.42746,-1.803067 1.94102,-2.231538 3.24115,-2.706811 0.19793,-0.07237 0.19885,-0.0821 0.0202,-0.182418 -0.1547,-0.08687 -0.16529,-0.134651 -0.0579,-0.264067 0.11578,-0.13951 0.0227,-0.149453 -0.80408,-0.08888 -1.10086,0.08065 -1.5268,-0.01837 -3.99924,-0.930176 -0.88052,-0.324727 -1.76609,-0.600692 -1.96784,-0.612882 z m -36.27118,0.02429 c -0.40745,0.0199 -1.26907,0.332451 -3.37395,1.091406 -1.20782,0.435501 -1.29542,0.451689 -2.38177,0.436149 -0.92529,-0.01324 -1.10755,0.0085 -1.01337,0.121956 0.0866,0.104315 0.0683,0.164343 -0.0739,0.243913 -0.16228,0.09081 -0.11833,0.13566 0.31626,0.321944 0.27772,0.119048 0.54677,0.216525 0.59738,0.216525 0.19943,0 1.51968,1.350651 2.39262,2.447912 0.50646,0.636607 1.10757,1.357677 1.33583,1.60197 0.22827,0.244292 0.45043,0.4439 0.49403,0.4439 0.0841,0 0.35219,-0.176644 1.93838,-1.275891 0.54607,-0.37843 1.27517,-0.821672 1.62006,-0.984953 0.34488,-0.163282 0.64542,-0.30746 0.66766,-0.32091 v -5.17e-4 h 5.2e-4 v -5.17e-4 h 5.1e-4 v -5.17e-4 l 5.2e-4,-5.17e-4 v -5.16e-4 c 0.007,-0.03457 -0.1627,-0.331645 -0.38861,-0.678512 -0.23509,-0.360966 -0.66524,-1.173288 -0.95601,-1.805574 -0.29077,-0.632287 -0.61234,-1.314488 -0.71417,-1.51567 -0.10247,-0.202441 -0.16226,-0.329794 -0.38654,-0.341581 -0.0234,-0.0012 -0.0483,-0.0013 -0.0755,0 z m -1.65157,10.16582 c -0.17804,0 -0.88531,0.755777 -2.05362,2.194698 -1.04904,1.292015 -1.87715,2.015731 -2.62103,2.291333 -0.58592,0.21708 -0.84865,0.425814 -0.53641,0.425814 0.0655,0 0.0925,0.09249 0.0615,0.21084 -0.0528,0.201987 -0.0214,0.207587 0.75757,0.142627 0.9831,-0.08199 1.50523,0.029 3.13986,0.666626 0.66103,0.257851 1.60173,0.600953 2.09031,0.762744 1.09158,0.361467 1.02307,0.411666 1.79679,-1.312581 0.30952,-0.689767 0.78709,-1.600393 1.06092,-2.023649 0.27383,-0.423255 0.48355,-0.780954 0.46612,-0.794784 -0.0174,-0.01383 -0.37849,-0.2058 -0.80253,-0.42633 -0.42404,-0.220531 -1.31383,-0.791548 -1.97714,-1.269174 -0.66331,-0.477625 -1.28534,-0.868164 -1.38235,-0.868164 z m 39.83116,0 c -0.0957,0.01166 -0.66487,0.388286 -1.27951,0.846977 -0.62439,0.465971 -1.52486,1.047466 -2.00091,1.292428 l -0.86558,0.445451 0.35088,0.510563 c 0.19288,0.280607 0.72205,1.274074 1.17615,2.208134 0.45409,0.93406 0.84197,1.698604 0.86197,1.698604 0.15572,0 1.40326,-0.424179 2.53008,-0.859896 2.20461,-0.852475 2.57519,-0.940484 3.64887,-0.866614 0.81115,0.05583 0.91497,0.04473 0.80408,-0.08888 -0.10263,-0.123705 -0.0906,-0.173789 0.0615,-0.258899 0.16228,-0.09082 0.1178,-0.136177 -0.31678,-0.322461 -0.27773,-0.119048 -0.53009,-0.216007 -0.56069,-0.216007 -0.23765,0 -1.26488,-0.970641 -2.14302,-2.024683 -1.30828,-1.570348 -2.06819,-2.364714 -2.26239,-2.364714 -0.001,0 -0.003,-1.85e-4 -0.005,0 z m 8.1256,5.637901 c -0.0138,0.0027 -0.0447,0.02413 -0.0925,0.06408 -0.14185,0.118469 -0.63952,0.531966 -1.10588,0.918807 -1.10661,0.917921 -1.42695,1.478612 -1.43815,2.514575 -0.009,0.877861 0.25025,1.476129 0.7922,1.823145 0.40741,0.26088 1.20601,0.29802 1.62987,0.07596 0.64826,-0.339616 1.21477,-1.161627 1.33997,-1.944584 0.0737,-0.460887 -0.35248,-2.952249 -0.49041,-2.867009 h -5.1e-4 l -5.2e-4,5.17e-4 c -0.0383,0.03443 -0.091,0.415018 -0.11731,0.854728 -0.0322,0.537338 -0.12567,0.971456 -0.27595,1.282609 -0.083,0.171767 -0.14485,0.27078 -0.16795,0.275953 -2.6e-4,3.4e-5 -0.001,-9e-6 -0.002,0 h -5.1e-4 -5.2e-4 -5.2e-4 -5.1e-4 l -5.2e-4,-5.17e-4 h -5.2e-4 l -5.2e-4,-5.17e-4 -5.1e-4,-5.17e-4 -5.2e-4,-5.17e-4 c -0.005,-0.0073 -0.005,-0.02919 0.003,-0.06511 0.0837,-0.389251 0.19456,-2.508374 0.13126,-2.508374 -0.0875,0 -1.09391,1.574299 -1.33635,2.090312 l -0.22066,0.470255 0.0651,-0.418062 c 0.0902,-0.579436 0.5963,-1.636867 1.06454,-2.22467 0.15755,-0.197786 0.23581,-0.310527 0.23461,-0.335897 v -5.17e-4 -5.17e-4 -5.16e-4 c -5e-5,-1.2e-4 -4.2e-4,-7.03e-4 -5.2e-4,-10e-4 v -5.17e-4 l -5.2e-4,-5.17e-4 h -5.1e-4 v -5.16e-4 h -5.2e-4 v -5.17e-4 c -2.3e-4,-9.7e-5 -0.001,-4.49e-4 -0.002,-5.17e-4 -0.001,-1.57e-4 -0.003,-3e-4 -0.005,0 z m -11.80238,3.998206 c -0.16433,-0.0052 -0.43927,0.02674 -0.94103,0.09147 -0.59873,0.07724 -1.70016,0.139276 -2.4474,0.137976 l -1.35857,-0.0026 v 1.469678 c 0,0.8083 -0.0235,1.939045 -0.0522,2.512508 l -0.0522,1.042314 0.37311,0.12454 c 0.20512,0.06829 1.00458,0.22426 1.77663,0.346749 2.8746,0.456066 3.44,0.625663 4.31757,1.295528 0.27432,0.209392 0.5143,0.380855 0.5333,0.380855 h 5.2e-4 v -5.16e-4 h 5.1e-4 5.2e-4 5.2e-4 l 5.1e-4,-5.17e-4 c 2.4e-4,-1.69e-4 10e-4,-8.25e-4 0.002,-10e-4 0.0126,-0.01512 0.003,-0.102786 -0.0243,-0.207222 -0.0423,-0.16192 -0.003,-0.208773 0.17363,-0.208773 h 0.22789 l -0.24184,-0.31781 c -0.60439,-0.792764 -0.72753,-1.012045 -0.92139,-1.639693 -0.11365,-0.367932 -0.30287,-1.242052 -0.42013,-1.942517 -0.29778,-1.778753 -0.51584,-2.742194 -0.6687,-2.951241 -0.0602,-0.08238 -0.1142,-0.124547 -0.27853,-0.129708 z m -32.46934,0.04806 c -0.09,0.0021 -0.14545,0.009 -0.15761,0.02119 -0.13551,0.135507 -0.35468,1.062403 -0.64544,2.7311 -0.41458,2.379296 -0.58885,2.865443 -1.37769,3.840592 -0.26702,0.330058 -0.26834,0.340031 -0.0522,0.340031 0.12802,0 0.22221,0.06634 0.22221,0.15658 0,0.223834 0.068,0.199842 0.55707,-0.195337 0.23959,-0.193584 0.53184,-0.401614 0.64957,-0.462504 0.36922,-0.19097 1.82655,-0.518845 3.11196,-0.700216 0.67963,-0.0959 1.54997,-0.252926 1.93373,-0.348816 l 0.69763,-0.17415 -0.0202,-0.365869 c -0.0112,-0.201182 -0.0536,-1.341292 -0.094,-2.533695 l -0.0734,-2.168343 -0.84698,0.06253 c -0.5066,0.03732 -1.47466,-0.0044 -2.41019,-0.103869 -0.64499,-0.0686 -1.22455,-0.10561 -1.49448,-0.09922 z m 20.42821,4.435386 c -2.5e-4,6.7e-5 -0.001,4.3e-4 -0.002,5.17e-4 l -5.1e-4,5.17e-4 -5.2e-4,5.16e-4 h -5.2e-4 v 5.17e-4 h -5.1e-4 c -0.014,0.02155 -0.20137,0.392101 -0.41652,0.823206 -0.21514,0.431104 -0.76407,1.300929 -1.22008,1.933215 -0.45602,0.632287 -0.83154,1.250665 -0.83354,1.374076 -0.004,0.229148 0.49068,0.701582 2.25671,2.155941 1.3018,1.072054 1.94665,1.820541 2.22364,2.580204 0.1742,0.477765 0.26938,0.622045 0.35398,0.537435 0.0636,-0.06364 0.20376,-0.115755 0.31109,-0.115755 0.13565,0 0.17928,-0.05601 0.14418,-0.182935 -0.26779,-0.969593 -0.12989,-1.828089 0.58239,-3.631302 0.59738,-1.512335 1.02216,-2.774451 1.02216,-3.038058 0,-0.188723 -0.16193,-0.298903 -0.91467,-0.621151 -1.25862,-0.538813 -2.27493,-1.054818 -2.93057,-1.488281 -0.28991,-0.191673 -0.54022,-0.334389 -0.57516,-0.328662 z m -8.3907,0.0062 c -0.0476,0.0052 -0.33233,0.178245 -0.66094,0.40256 -0.50098,0.341969 -3.44737,1.775085 -3.64939,1.775085 -0.13086,0 0.16142,1.041844 0.75551,2.693892 0.91953,2.557054 1.00846,3.086715 0.71985,4.293795 -0.0506,0.211482 -0.0283,0.237151 0.15555,0.178801 0.12606,-0.04001 0.24735,-0.01488 0.29455,0.06149 0.0516,0.08349 0.18538,-0.105807 0.37466,-0.529684 0.42908,-0.960906 0.76085,-1.324933 2.46806,-2.710945 0.84498,-0.685999 1.69085,-1.409448 1.87999,-1.607654 l 0.34417,-0.360702 -0.35089,-0.513147 c -0.19277,-0.282266 -0.62285,-0.889426 -0.95601,-1.349271 -0.33315,-0.459844 -0.7709,-1.164983 -0.97255,-1.567347 -0.20165,-0.402365 -0.37976,-0.746808 -0.39636,-0.765328 l -5.2e-4,-5.16e-4 h -5.1e-4 l -5.2e-4,-5.17e-4 h -5.2e-4 l -5.1e-4,-5.17e-4 h -5.2e-4 -5.2e-4 -5.1e-4 c -6.4e-4,-2e-6 -0.001,-8.2e-5 -0.002,0 z"
         style="fill:#cf9ce2;fill-opacity:1"
         id="path1-5"
         sodipodi:nodetypes="csssscccsscsccscccssssccccccscssccscssssscccccssssssssscccscsssscsscccccsssssssscccsssssssssssccccccccssscccsssscsssssssssscscccsssscsssssccccscssscccccssccccccccccsccssscccccccccccccssccscccssscccccccssccsscssccsssssssccccccscccccccccsscsssscssssccsssscsssssccssccccccccsss" /><path
         d="m -107.81649,32.532436 c -0.001,4e-5 -0.002,3.18e-4 -0.003,5.17e-4 -0.0248,0.0046 -0.058,0.05237 -0.11162,0.136426 -0.0921,0.14431 -0.1502,0.168748 -0.1881,0.07855 -0.12077,-0.28738 -0.22956,-0.09828 -0.30076,0.522449 -0.0941,0.820831 -0.22997,1.085463 -1.3839,2.693375 -1.0093,1.406384 -1.46452,2.172448 -1.74924,2.944523 l -0.18087,0.49041 0.69401,0.86713 c 1.38614,1.732459 2.01652,3.323769 2.42518,6.120557 0.0482,0.329568 0.0644,0.340031 0.555,0.340031 h 0.50592 l 0.0749,-0.7059 c 0.22792,-2.143353 1.1607,-4.341914 2.52284,-5.947441 0.25162,-0.296571 0.45734,-0.628917 0.45734,-0.738456 0,-0.357945 -0.9777,-2.145316 -1.84485,-3.372921 -1.01721,-1.440063 -1.28636,-1.952135 -1.30276,-2.477885 -0.007,-0.217843 -0.0434,-0.537075 -0.0816,-0.709517 -0.037,-0.167376 -0.0563,-0.243077 -0.0884,-0.241846 z m 10.35957,2.815332 c -0.0748,0.0072 -0.21921,0.173031 -0.45785,0.514181 -0.42564,0.608464 -1.05773,1.026747 -2.61534,1.730127 -1.711,0.772649 -2.47813,1.270133 -3.45044,2.236556 -1.71437,1.703993 -2.73384,3.876273 -3.00447,6.402193 l -0.0842,0.784965 0.58394,-0.05271 c 0.56695,-0.05141 0.59379,-0.04168 0.91623,0.325561 0.30571,0.348181 0.37805,0.378272 0.90434,0.378272 0.3145,0 0.60063,0.04691 0.63613,0.104386 h 5.2e-4 c 0.11332,0.183351 0.21766,0.115715 0.56276,-0.364835 0.5238,-0.72937 1.95065,-2.096584 2.71611,-2.602426 0.83509,-0.551862 1.96077,-1.12014 2.69492,-1.36064 0.29675,-0.09721 0.57235,-0.25686 0.61185,-0.3545 0.1706,-0.422208 0.17243,-2.436392 0.004,-3.981153 -0.18501,-1.692974 -0.15793,-2.17156 0.16071,-2.873209 0.23775,-0.523516 0.25013,-0.703772 0.0429,-0.624252 -0.0993,0.03809 -0.1571,-0.0017 -0.1571,-0.108003 0,-0.10614 -0.0197,-0.158862 -0.0646,-0.154513 z m -21.19509,0.07235 c -0.0218,6.03e-4 -0.0354,0.01858 -0.0419,0.05219 -0.0249,0.129218 -0.0953,0.165473 -0.23564,0.120923 -0.25451,-0.08078 -0.25326,-0.06323 0.0605,0.682129 0.31542,0.749422 0.33348,1.406787 0.0977,3.549137 -0.12753,1.158564 -0.13958,1.68029 -0.0553,2.369365 0.0595,0.486086 0.13146,0.921916 0.1602,0.968416 0.0287,0.0465 0.34746,0.191729 0.70848,0.322461 0.87513,0.316904 1.77538,0.774623 2.52956,1.286227 0.76361,0.517996 2.09132,1.775744 2.68046,2.539379 0.41163,0.533553 0.4526,0.559819 0.6258,0.403077 0.13138,-0.118899 0.34473,-0.159093 0.73277,-0.138493 0.46553,0.02471 0.55905,-0.002 0.62425,-0.178284 0.14232,-0.384718 0.37209,-0.482404 1.04852,-0.444934 l 0.64337,0.03566 -0.0672,-0.679029 c -0.23224,-2.357162 -1.35391,-4.818759 -2.92075,-6.408911 -0.89953,-0.912911 -1.40135,-1.237322 -3.67006,-2.370398 -1.92258,-0.960208 -2.00378,-1.013098 -2.45773,-1.616955 -0.25644,-0.341126 -0.39751,-0.493767 -0.46302,-0.49196 z m -7.99176,7.769037 c -0.0795,7.44e-4 -0.0745,0.06739 -0.0413,0.194303 0.0438,0.167452 0.0179,0.196073 -0.12815,0.140043 -0.31646,-0.121435 -0.12871,0.119737 0.4718,0.606165 0.60951,0.493713 0.69117,0.632528 2.08205,3.537252 0.37071,0.774199 0.81108,1.515881 1.08107,1.821077 l 0.45527,0.515214 0.74517,-0.12299 c 1.89234,-0.312513 4.25929,-0.08157 6.03529,0.589112 0.45985,0.173654 0.85958,0.317894 0.88832,0.320394 0.0287,0.0025 0.14679,-0.146648 0.26252,-0.331246 0.16621,-0.265137 0.29249,-0.342317 0.60099,-0.367937 l 0.39068,-0.03256 v -0.509013 c 0,-0.425031 0.0453,-0.544025 0.27543,-0.72502 0.15468,-0.121665 0.42929,-0.216524 0.62684,-0.216524 0.19343,0 0.35191,-0.02955 0.35191,-0.06563 0,-0.182808 -1.14143,-1.566961 -1.83709,-2.227771 -1.30598,-1.240555 -2.73722,-2.063834 -4.40335,-2.532662 -0.92727,-0.260924 -2.43271,-0.305802 -5.04672,-0.150379 -1.50173,0.08929 -1.52119,0.08774 -2.12959,-0.183968 -0.39193,-0.175036 -0.59094,-0.258709 -0.68109,-0.257865 z m 37.12849,0.0026 c -0.0804,-0.0034 -0.2781,0.07985 -0.69505,0.256315 -0.6434,0.272307 -0.66532,0.274031 -2.16524,0.183451 -2.70654,-0.163446 -4.09743,-0.105811 -5.17333,0.214457 -1.66905,0.496834 -3.26387,1.480569 -4.57957,2.824634 -0.56953,0.581814 -1.53427,1.824363 -1.53427,1.976107 0,2.8e-4 -2e-5,7.55e-4 0,0.001 0.006,0.03505 0.19381,0.06408 0.42271,0.06408 0.5812,0 0.93586,0.354658 0.93586,0.93586 0,0.389091 0.0223,0.422714 0.28061,0.422714 0.29829,0 0.76429,0.361848 0.76429,0.593245 h 5.2e-4 c 0,0.192175 0.11159,0.176198 0.86093,-0.121956 1.75554,-0.698516 4.05427,-0.956709 6.06733,-0.681612 l 0.95756,0.130741 0.31575,-0.367936 c 0.4914,-0.572149 0.93567,-1.366252 1.65312,-2.954342 0.78451,-1.736531 1.02781,-2.115225 1.67535,-2.60966 0.48243,-0.368365 0.64705,-0.627009 0.31936,-0.501261 -0.1343,0.05151 -0.15385,0.01856 -0.0971,-0.160197 0.042,-0.132413 0.0622,-0.202655 -0.009,-0.205672 z m -6.7815,7.04815 c -1.30543,0.02698 -2.64612,0.292371 -3.91707,0.79375 -1.09073,0.430283 -1.10894,0.453576 -0.67593,0.861963 0.29353,0.276872 0.36225,0.419484 0.36225,0.750342 0,0.224715 -0.0684,0.506974 -0.15244,0.626835 -0.13897,0.198403 -0.12974,0.239465 0.10438,0.459404 0.18485,0.17368 0.25735,0.352265 0.25735,0.635103 0,0.390432 0.003,0.394094 0.49609,0.459404 2.23071,0.295732 4.56964,1.326592 6.1402,2.706811 0.22992,0.202058 0.45396,0.369354 0.49816,0.371554 0.18205,0.0089 1.39763,-0.540012 1.89446,-0.855245 0.29342,-0.186174 0.95699,-0.649927 1.47432,-1.030945 1.37927,-1.015857 1.97927,-1.324527 2.74299,-1.409217 0.62956,-0.06981 0.78456,-0.160697 0.53537,-0.314709 -0.0786,-0.04861 -0.0524,-0.110785 0.0786,-0.186035 0.17816,-0.102393 0.16723,-0.118951 -0.11731,-0.181901 -0.17244,-0.03815 -0.48481,-0.07485 -0.69453,-0.08165 -0.48544,-0.01574 -1.33112,-0.461227 -2.59364,-1.366325 -1.24961,-0.895855 -1.86538,-1.257693 -2.72852,-1.603003 -1.12925,-0.451774 -2.39925,-0.663116 -3.70468,-0.636137 z m -24.18354,0.0052 c -0.88896,0.03692 -1.75255,0.190754 -2.56366,0.462504 -1.10525,0.370292 -1.59306,0.637345 -3.13366,1.716174 -1.50095,1.05106 -2.1802,1.406622 -2.71302,1.419552 -0.2362,0.0057 -0.54669,0.04335 -0.69039,0.08372 -0.25234,0.07088 -0.25458,0.07758 -0.0527,0.191719 0.1922,0.108679 0.19449,0.123523 0.0269,0.188103 -0.31925,0.122999 -0.0968,0.238836 0.60203,0.313676 0.76388,0.08181 1.27312,0.349162 2.7621,1.45004 1.18611,0.876953 1.69991,1.192407 2.51406,1.541508 0.37363,0.160208 0.71925,0.292439 0.76791,0.294039 0.0487,0.0016 0.30101,-0.184891 0.56121,-0.413928 1.42469,-1.254067 3.72773,-2.321522 5.52059,-2.559017 1.11301,-0.147436 1.09296,-0.136988 1.09296,-0.572058 0,-0.245366 0.0848,-0.503113 0.22272,-0.678512 0.16523,-0.210045 0.19199,-0.312892 0.10439,-0.400492 -0.0649,-0.06488 -0.11782,-0.340644 -0.11782,-0.612366 0,-0.438564 0.0411,-0.528241 0.36948,-0.798917 0.44593,-0.367569 0.4235,-0.393609 -0.73535,-0.842326 -1.50301,-0.58198 -3.0561,-0.844943 -4.53771,-0.783415 z m 20.12332,5.052405 c -0.37229,-0.0015 -0.39793,0.01695 -0.32763,0.233577 0.0419,0.129331 0.0994,0.411546 0.12765,0.626835 0.045,0.343104 0.005,0.437707 -0.32557,0.767912 -0.31882,0.318811 -0.37672,0.447832 -0.37672,0.838192 0,0.253695 -0.0563,0.552033 -0.12557,0.663009 -0.10882,0.174243 -0.0838,0.234248 0.18293,0.438732 0.64211,0.49222 1.861,1.733523 2.34456,2.387452 0.63362,0.856851 1.1683,1.844098 1.47123,2.717146 0.35782,1.031231 0.27541,0.993654 2.16628,0.988054 0.90334,-0.0027 2.3005,-0.0433 3.10523,-0.09043 1.43342,-0.08395 1.47499,-0.08069 2.03812,0.178801 0.70781,0.326183 0.76183,0.332787 0.68213,0.08165 -0.0447,-0.140932 -0.008,-0.211265 0.12351,-0.237195 0.13932,-0.02746 0.0367,-0.148572 -0.40101,-0.472839 -0.68756,-0.509398 -1.05966,-1.074325 -1.81126,-2.748153 -1.10413,-2.458934 -2.20166,-3.743148 -4.19509,-4.910294 -1.30829,-0.765994 -3.52104,-1.457743 -4.67879,-1.462443 z m -15.27348,0.01292 c -0.16528,-5.2e-4 -0.42053,0.02486 -0.78497,0.07338 -2.42662,0.323082 -4.86697,1.561002 -6.381,3.236495 -0.69757,0.771954 -1.25332,1.694023 -1.96371,3.257683 -0.67535,1.486527 -1.0828,2.12989 -1.51877,2.399336 -0.18565,0.114737 -0.42396,0.304346 -0.52968,0.421163 -0.17761,0.196255 -0.17873,0.212391 -0.0124,0.212391 0.13285,0 0.16247,0.055 0.11317,0.210323 -0.0654,0.20594 -0.0549,0.205671 0.48937,-0.02584 0.62064,-0.263997 1.28902,-0.284308 4.58009,-0.138492 0.94843,0.04202 1.91057,0.03568 2.13837,-0.01447 0.39097,-0.08607 0.42741,-0.127875 0.64802,-0.74414 0.71105,-1.986297 1.99443,-3.772427 3.7238,-5.182113 0.34787,-0.283564 0.46747,-0.441511 0.39171,-0.517281 -0.06,-0.05999 -0.11045,-0.370347 -0.11265,-0.689364 -0.004,-0.537723 -0.0289,-0.595452 -0.34004,-0.790649 -0.30003,-0.188228 -0.33891,-0.269658 -0.36741,-0.766362 -0.0186,-0.324443 0.0204,-0.618357 0.0935,-0.706417 0.1341,-0.161584 0.10803,-0.234778 -0.16744,-0.235644 z m 13.41313,3.538802 c -0.0479,0.0056 -0.0868,0.18746 -0.0868,0.408761 0,0.519785 -0.45328,0.949812 -1.00097,0.949812 -0.28336,0 -0.3576,0.04184 -0.3576,0.201022 0,0.28323 -0.49955,0.844393 -0.75189,0.844393 -0.1613,0 -0.19269,0.04307 -0.13229,0.182934 0.7625,1.765043 1.03934,3.294317 0.94774,5.241024 -0.0368,0.781737 -0.091,1.633212 -0.1204,1.891874 l -0.0537,0.470256 0.6041,0.454236 c 0.33215,0.249818 1.09764,0.688963 1.70119,0.976167 3.15825,1.502893 3.00837,1.414067 3.53312,2.091346 0.40864,0.527409 0.4962,0.596042 0.524,0.410827 0.0277,-0.184724 0.0675,-0.203935 0.23512,-0.114205 0.25796,0.138031 0.25562,0.116623 -0.0734,-0.660425 -0.27449,-0.648318 -0.27516,-0.654087 -0.18396,-2.321822 0.15077,-2.756913 0.10077,-3.931785 -0.21239,-4.994527 -0.47337,-1.606414 -1.30981,-3.056157 -2.49494,-4.324284 -0.6209,-0.66438 -1.88831,-1.707389 -2.07481,-1.707389 -7.7e-4,0 -10e-4,-8.9e-5 -0.002,0 z m -11.73003,0.04186 c -0.23881,0.01208 -1.17695,0.75057 -1.96991,1.561662 -1.18472,1.211823 -2.22166,2.996505 -2.65048,4.562512 -0.21282,0.777195 -0.25377,2.801541 -0.10284,5.068941 0.0886,1.331367 0.085,1.371669 -0.18448,2.008663 -0.31928,0.754748 -0.35025,0.953144 -0.11834,0.760677 0.12839,-0.106554 0.15658,-0.09908 0.15658,0.03979 0,0.292314 0.18631,0.186981 0.57877,-0.327112 0.46926,-0.614679 0.99935,-0.949841 2.63499,-1.666565 0.7041,-0.308532 1.45666,-0.663358 1.67224,-0.788065 0.46598,-0.269542 1.45456,-0.981582 1.52136,-1.096057 0.0259,-0.04439 -0.0214,-0.457412 -0.1049,-0.917257 -0.22941,-1.26309 -0.12394,-3.576998 0.22014,-4.829163 0.14548,-0.529441 0.33636,-1.13468 0.42426,-1.345137 0.19187,-0.459157 0.20338,-0.67076 0.0362,-0.67076 -0.24078,0 -0.60771,-0.452735 -0.60771,-0.749825 0,-0.278053 -0.0261,-0.29559 -0.447,-0.29559 -0.65487,0 -0.91157,-0.220506 -0.91157,-0.783414 0,-0.252011 -0.0495,-0.48844 -0.10956,-0.52555 -0.009,-0.0058 -0.0218,-0.0086 -0.0377,-0.0078 z m 2.98741,2.336808 -0.17931,0.346232 c -0.59942,1.159146 -0.98954,2.987653 -0.98754,4.628658 0.003,2.312019 0.59693,4.023706 2.09031,6.023922 1.1384,1.524749 1.456,2.096998 1.5782,2.842204 0.0594,0.362244 0.13558,0.729234 0.16898,0.815454 0.0501,0.129601 0.0682,0.125366 0.10439,-0.02584 0.055,-0.230191 0.12727,-0.231168 0.29404,-0.0031 0.11315,0.154738 0.14167,0.09238 0.20257,-0.4439 0.106,-0.932939 0.21484,-1.199436 0.90278,-2.209168 1.91013,-2.80363 2.2205,-3.410638 2.5399,-4.968689 0.21124,-1.032286 0.21243,-2.944033 0.002,-4.052982 -0.1594,-0.840293 -0.55214,-2.06606 -0.84698,-2.64325 l -0.14831,-0.290422 -0.26613,0.316777 c -0.2354,0.279751 -0.33141,0.31626 -0.82579,0.31626 -0.30764,0 -0.5894,-0.048 -0.6258,-0.10697 -0.0399,-0.06452 -0.19102,-0.0023 -0.37983,0.156579 -0.43299,0.364319 -1.10447,0.36741 -1.44332,0.0067 -0.21994,-0.234114 -0.261,-0.243354 -0.4594,-0.104386 -0.11987,0.08395 -0.41615,0.152445 -0.65784,0.152445 -0.3779,0 -0.48314,-0.05284 -0.75138,-0.378271 z"
         style="fill:#a963c3;fill-opacity:1"
         id="path1-8" /></g></g></svg>
