<?xml version="1.0" encoding="UTF-8" standalone="no"?>
<!-- Created with Inkscape (http://www.inkscape.org/) -->

<svg
   width="210mm"
   height="210mm"
   viewBox="0 0 210 210"
   version="1.1"
   id="svg1"
   xml:space="preserve"
   inkscape:version="1.4.2 (f4327f4, 2025-05-13)"
   sodipodi:docname="Viditay - Favicon.svg"
   xmlns:inkscape="http://www.inkscape.org/namespaces/inkscape"
   xmlns:sodipodi="http://sodipodi.sourceforge.net/DTD/sodipodi-0.dtd"
   xmlns="http://www.w3.org/2000/svg"
   xmlns:svg="http://www.w3.org/2000/svg"><sodipodi:namedview
     id="namedview1"
     pagecolor="#ffffff"
     bordercolor="#000000"
     borderopacity="0.25"
     inkscape:showpageshadow="2"
     inkscape:pageopacity="0.0"
     inkscape:pagecheckerboard="0"
     inkscape:deskcolor="#d1d1d1"
     inkscape:document-units="mm"
     inkscape:zoom="0.70710678"
     inkscape:cx="479.4184"
     inkscape:cy="333.04729"
     inkscape:window-width="1920"
     inkscape:window-height="1057"
     inkscape:window-x="1592"
     inkscape:window-y="-5"
     inkscape:window-maximized="1"
     inkscape:current-layer="g7"
     showgrid="false" /><defs
     id="defs1" /><g
     inkscape:label="Layer 1"
     inkscape:groupmode="layer"
     id="layer1"><g
       id="g7"
       transform="translate(212.85504,-1.058903)"><rect
         style="fill:#ffffff;fill-opacity:1;stroke-width:0.264583"
         id="rect1"
         width="210.00058"
         height="209.99925"
         x="-212.85504"
         y="1.0588422"
         ry="104.99963"
         rx="104.99963" /><path
         d="m -85.882574,21.654544 c -0.304159,0.01512 -0.682054,0.734605 -1.365117,2.464486 -0.903535,2.288131 -2.97813,4.580103 -7.584498,8.374732 -1.738677,1.432273 -4.147106,3.555856 -5.351001,4.718817 -2.53251,2.44639 -2.68563,1.602282 1.319945,7.240618 1.303814,1.835254 3.014159,4.624762 3.801811,6.200286 l 1.432838,2.865682 2.771874,-1.825353 c 1.524992,-1.003323 4.531287,-2.604053 6.679653,-3.558653 2.148332,-0.954596 4.248604,-1.994952 4.668443,-2.311647 0.716839,-0.540632 0.738214,-0.681029 0.333398,-2.290806 -0.236941,-0.942978 -1.368544,-4.115124 -2.513121,-7.049573 -2.247982,-5.763263 -3.268945,-9.495715 -2.999404,-10.955578 0.642598,-3.481749 0.641455,-3.658668 0.0067,-3.414501 -0.349732,0.134199 -0.729207,0.04265 -0.887504,-0.213617 -0.101498,-0.16438 -0.20266,-0.250384 -0.31256,-0.244873 z m -43.917836,0.0017 c -0.10016,0.0084 -0.19292,0.09148 -0.28668,0.243158 -0.16166,0.261577 -0.53761,0.348663 -0.90314,0.208408 -0.53575,-0.205584 -0.59756,-0.09357 -0.42377,0.778074 0.84593,4.242739 0.6625,5.290509 -2.44019,13.91852 -1.23128,3.42408 -2.33455,6.827285 -2.45232,7.563654 l -0.21543,1.339057 5.17214,2.433219 c 2.84413,1.338233 6.11667,3.092201 7.27361,3.897327 l 2.10495,1.4641 1.3842,-2.766684 c 0.76158,-1.521629 2.64608,-4.466577 4.18737,-6.54417 1.54133,-2.077596 2.9006,-4.164606 3.02025,-4.637188 0.25172,-0.993918 -0.30685,-1.545174 -7.11035,-7.046098 -5.0656,-4.095665 -7.27503,-6.472291 -8.09508,-8.701247 -0.56033,-1.522915 -0.9155,-2.174957 -1.21576,-2.150127 z m -39.02015,22.067479 c -0.14486,3.73e-4 -0.20065,0.135141 -0.23795,0.371668 -0.0618,0.389794 -0.33676,0.708605 -0.61309,0.708605 -0.72134,0 -0.66986,0.123243 1.04728,2.455801 1.66158,2.25709 2.53019,5.118424 3.35895,11.066732 0.49536,3.555644 1.3966,8.16812 1.80797,9.250066 0.28769,0.756632 0.46538,0.813269 1.97992,0.632186 0.9151,-0.109396 4.68135,-0.305167 8.36953,-0.434194 l 6.70567,-0.234454 -0.14586,-3.378029 c -0.081,-1.85755 0.0934,-5.498426 0.38905,-8.091637 0.29576,-2.593213 0.46074,-4.838974 0.36647,-4.99149 -0.27761,-0.448968 -2.41102,-0.948527 -8.75163,-2.045923 -7.91265,-1.369479 -10.07157,-2.071036 -12.47005,-4.051896 -1.07464,-0.887531 -1.56489,-1.258046 -1.80623,-1.257425 z m 122.328035,0.08684 c -0.278616,8e-4 -0.861323,0.392146 -2.118858,1.340791 -2.652361,2.000861 -4.077167,2.451304 -12.218225,3.859114 -3.247268,0.561536 -6.535572,1.229922 -7.308336,1.484944 -1.404741,0.463554 -1.404472,0.464499 -1.335574,2.216125 0.03798,0.963613 0.176781,4.714309 0.309199,8.336522 l 0.23963,6.585851 4.960234,0.03821 c 2.727544,0.02084 5.907864,0.159238 7.066959,0.307418 1.159095,0.148181 2.739005,0.249981 3.511735,0.225783 1.382559,-0.04339 1.412437,-0.07112 1.8514,-1.7993 0.245343,-0.965922 0.837158,-4.28513 1.316484,-7.376084 1.114295,-7.185981 1.882018,-9.707191 3.687172,-12.122692 1.070738,-1.432885 1.304318,-1.95594 0.913551,-2.037239 -0.289035,-0.06016 -0.573767,-0.403334 -0.633927,-0.762443 -0.03361,-0.191166 -0.09545,-0.297403 -0.24131,-0.296999 z m -0.802373,33.834175 -1.71421,3.864323 c -2.06337,4.647355 -3.217155,6.831403 -4.765707,9.026025 l -1.16538,1.649936 2.533958,1.222689 c 1.393146,0.67171 4.57313,2.654933 7.066925,4.407937 2.493796,1.753005 4.643439,3.186982 4.777874,3.186982 0.407505,0 3.545242,-3.480638 6.490335,-7.200672 4.797501,-6.059866 6.523507,-7.499899 10.893069,-9.097228 0.665216,-0.243226 0.668308,-0.275927 0.06789,-0.613082 -0.519926,-0.291959 -0.555518,-0.452544 -0.194594,-0.887494 0.389121,-0.468874 0.07629,-0.502291 -2.702405,-0.298714 -3.699842,0.271054 -5.131369,-0.06174 -13.440908,-3.126196 -2.959309,-1.091364 -5.93559,-2.018845 -6.613645,-2.059814 z m -121.902552,0.08164 c -1.36939,0.06688 -4.26517,1.117323 -11.33939,3.668068 -4.05932,1.463661 -4.35374,1.518066 -8.00481,1.465839 -3.10978,-0.0445 -3.72233,0.02857 -3.4058,0.409877 0.29105,0.350589 0.22955,0.552335 -0.24837,0.819759 -0.5454,0.3052 -0.39769,0.455935 1.06291,1.08201 0.93338,0.400105 1.83762,0.727712 2.00771,0.727712 0.67026,0 5.10744,4.539356 8.04128,8.227103 1.70214,2.13955 3.72239,4.562969 4.48954,5.384007 0.76718,0.821027 1.51383,1.491887 1.66037,1.491887 0.28265,0 1.18366,-0.59368 6.51463,-4.288098 1.83527,-1.271853 4.28568,-2.761529 5.44481,-3.310295 1.15909,-0.548769 2.16917,-1.033332 2.24391,-1.078535 v -0.0017 h 0.002 v -0.0017 h 0.002 v -0.0017 l 0.002,-0.0017 v -0.0017 c 0.0235,-0.116185 -0.54681,-1.114614 -1.30606,-2.280387 -0.79011,-1.213158 -2.23579,-3.943263 -3.21303,-6.068292 -0.97723,-2.125031 -2.05799,-4.417817 -2.40022,-5.093962 -0.34439,-0.680377 -0.54534,-1.108394 -1.29911,-1.148008 -0.0787,-0.004 -0.16233,-0.0044 -0.25375,0 z m -5.55071,34.165952 c -0.59836,0 -2.9754,2.54007 -6.90194,7.37609 -3.52568,4.34228 -6.30884,6.7746 -8.80893,7.70086 -1.96919,0.72957 -2.85219,1.4311 -1.8028,1.4311 0.22014,0 0.31088,0.31085 0.2067,0.70861 -0.17746,0.67885 -0.0719,0.69767 2.54609,0.47935 3.30406,-0.27556 5.05887,0.0975 10.55264,2.24044 2.22164,0.8666 5.3832,2.01972 7.02525,2.56348 3.66866,1.21484 3.43841,1.38355 6.03877,-4.41141 1.04026,-2.31822 2.64531,-5.37871 3.56561,-6.80121 0.92031,-1.42251 1.62515,-2.62469 1.56657,-2.67117 -0.0585,-0.0465 -1.27205,-0.69166 -2.6972,-1.43283 -1.42514,-0.74118 -4.4156,-2.66029 -6.6449,-4.26553 -2.22929,-1.60523 -4.31985,-2.91778 -4.64589,-2.91778 z m 133.867171,0 c -0.321635,0.0392 -2.234539,1.30498 -4.300261,2.84658 -2.098491,1.56606 -5.124849,3.52039 -6.724789,4.34367 l -2.909098,1.4971 1.17926,1.71594 c 0.648244,0.94308 2.426713,4.28199 3.952882,7.42124 1.526135,3.13925 2.829748,5.70878 2.896965,5.70878 0.523354,0 4.716168,-1.42561 8.503259,-2.89 7.409397,-2.86505 8.654867,-3.16084 12.263361,-2.91257 2.726166,0.18764 3.075091,0.15033 2.702405,-0.29871 -0.344926,-0.41576 -0.304495,-0.58409 0.206693,-0.87013 0.545401,-0.30523 0.39591,-0.45767 -1.064655,-1.08375 -0.933413,-0.4001 -1.781561,-0.72597 -1.884404,-0.72597 -0.79871,0 -4.251091,-3.26219 -7.202402,-6.80468 -4.396953,-5.27773 -6.950908,-7.94749 -7.603588,-7.94749 -0.0034,0 -0.01008,-6.2e-4 -0.0168,0 z m -12.357163,32.38566 c -0.552291,-0.0175 -1.476327,0.0899 -3.162675,0.30742 -2.012251,0.25959 -5.714009,0.46809 -8.225382,0.46372 l -4.565971,-0.009 v 4.93939 c 0,2.71658 -0.07898,6.51686 -0.175437,8.44419 l -0.175438,3.50308 1.253973,0.41856 c 0.689381,0.22951 3.376258,0.75371 5.971014,1.16538 9.661144,1.53277 11.561377,2.10277 14.510772,4.35409 0.921953,0.70374 1.728493,1.28 1.79235,1.28 h 0.0017 v -0.002 h 0.0017 0.0017 0.0017 l 0.0017,-0.002 c 8.06e-4,-5.6e-4 0.0034,-0.003 0.0067,-0.003 0.04235,-0.0508 0.01008,-0.34545 -0.08167,-0.69644 -0.142164,-0.54419 -0.01008,-0.70166 0.583547,-0.70166 h 0.765908 l -0.812792,-1.06812 c -2.031273,-2.66437 -2.44513,-3.40134 -3.096667,-5.51079 -0.381963,-1.23657 -1.017906,-4.17436 -1.412001,-6.52853 -1.000798,-5.97815 -1.733669,-9.21614 -2.247411,-9.91872 -0.202324,-0.27687 -0.38381,-0.41859 -0.936101,-0.43593 z m -109.125078,0.16152 c -0.30248,0.007 -0.48884,0.0302 -0.52971,0.0712 -0.45543,0.45542 -1.19203,3.5706 -2.16923,9.17886 -1.39335,7.99649 -1.97905,9.63037 -4.63024,12.90771 -0.89741,1.10928 -0.90185,1.1428 -0.17543,1.1428 0.43026,0 0.74682,0.22296 0.74682,0.52625 0,0.75227 0.22853,0.67164 1.87223,-0.65651 0.80523,-0.6506 1.78745,-1.34977 2.18312,-1.55441 1.2409,-0.64182 6.13879,-1.74377 10.45888,-2.35333 2.28414,-0.32231 5.20924,-0.85005 6.499,-1.17232 l 2.34465,-0.5853 -0.0679,-1.22964 c -0.0377,-0.67614 -0.18015,-4.5079 -0.31593,-8.5154 l -0.24668,-7.28751 -2.84659,0.21015 c -1.70261,0.12543 -4.95613,-0.0148 -8.10032,-0.34909 -2.16773,-0.23055 -4.11555,-0.35494 -5.02275,-0.33346 z m 68.65646,14.90674 c -8.4e-4,2.2e-4 -0.0034,0.001 -0.0067,0.002 l -0.0017,0.002 -0.0017,0.002 h -0.0017 v 0.002 h -0.0017 c -0.04705,0.0724 -0.676777,1.3178 -1.399868,2.76668 -0.723056,1.44888 -2.567936,4.37225 -4.100524,6.49728 -1.532628,2.12503 -2.794698,4.20331 -2.801418,4.61808 -0.0134,0.77014 1.64911,2.35792 7.584501,7.24583 4.375174,3.60303 6.542428,6.11859 7.473354,8.67172 0.585463,1.6057 0.90535,2.09061 1.18968,1.80624 0.213751,-0.21388 0.68481,-0.38903 1.045531,-0.38903 0.455902,0 0.602536,-0.18824 0.48457,-0.61482 -0.900006,-3.25867 -0.436543,-6.14396 1.957334,-12.20432 2.007714,-5.08275 3.435342,-9.32456 3.435342,-10.2105 0,-0.63428 -0.544224,-1.00458 -3.074082,-2.08761 -4.230053,-1.81088 -7.645734,-3.5451 -9.849252,-5.00191 -0.974348,-0.64419 -1.815607,-1.12384 -1.933035,-1.10459 z m -28.20001,0.0208 c -0.15998,0.0175 -1.11692,0.59905 -2.22133,1.35295 -1.68373,1.14931 -11.58615,5.96582 -12.26511,5.96582 -0.4398,0 0.54251,3.5015 2.53917,9.05381 3.09041,8.59391 3.3893,10.37403 2.41932,14.43086 -0.17006,0.71077 -0.0951,0.79704 0.52278,0.60093 0.42367,-0.13447 0.83131,-0.05 0.98994,0.20666 0.17342,0.2806 0.62304,-0.3556 1.25918,-1.7802 1.44208,-3.22947 2.55712,-4.45292 8.29482,-9.11112 2.83987,-2.30555 5.68272,-4.73696 6.3184,-5.40311 l 1.1567,-1.21227 -1.17929,-1.72462 c -0.64787,-0.94865 -2.09331,-2.98924 -3.21302,-4.53471 -1.11967,-1.54548 -2.59089,-3.91535 -3.26861,-5.26765 -0.67772,-1.35229 -1.27632,-2.50992 -1.33211,-2.57216 l -0.002,-0.002 h -0.002 l -0.002,-0.002 h -0.002 l -0.002,-0.002 h -0.002 -0.002 -0.002 c -0.002,-1e-5 -0.003,-2.8e-4 -0.007,0 z"
         style="fill:#cf9ce2;fill-opacity:1;stroke-width:3.36087"
         id="path1-5"
         sodipodi:nodetypes="csssscccsscsccscccssssccccccscssccscssssscccccssssssssscccscsssscsscccccsssssssscccsssssssssssccccccccssscccsssscsssssssssscscccsssscsssssccssccscccssscccccccssccsscssccsssssssccccccscccccccccsscsssscssssccsssscsssssccssccccccccsss" /><path
         d="m -106.86109,33.278783 c -0.003,1.34e-4 -0.007,0.0011 -0.0101,0.0017 -0.0833,0.01546 -0.19493,0.176008 -0.37514,0.458509 -0.30953,0.485006 -0.5048,0.567139 -0.63217,0.263996 -0.4059,-0.965846 -0.77152,-0.330306 -1.01082,1.755881 -0.31626,2.758702 -0.7729,3.648095 -4.6511,9.052071 -3.39212,4.726667 -4.92205,7.301305 -5.87896,9.896145 l -0.60788,1.648202 2.33247,2.914308 c 4.65863,5.822561 6.77726,11.17074 8.15071,20.570368 0.16199,1.107634 0.21644,1.142799 1.86528,1.142799 h 1.70033 l 0.25173,-2.372435 c 0.766,-7.203521 3.90095,-14.592589 8.478919,-19.988549 0.845661,-0.996735 1.537058,-2.113706 1.537058,-2.481851 0,-1.203005 -3.285918,-7.210119 -6.200287,-11.335934 -3.41871,-4.839858 -4.32329,-6.560863 -4.3784,-8.327838 -0.0235,-0.732141 -0.14587,-1.805037 -0.27425,-2.384591 -0.12435,-0.562529 -0.18922,-0.81695 -0.2971,-0.812812 z m 34.817115,9.461952 c -0.251393,0.0242 -0.736736,0.581534 -1.538773,1.728093 -1.430518,2.044966 -3.554888,3.450759 -8.789806,5.814724 -5.75044,2.59677 -8.328661,4.268746 -11.596464,7.516764 -5.761765,5.726891 -9.188062,13.027632 -10.097612,21.516909 l -0.28299,2.638162 1.96254,-0.177151 c 1.90545,-0.172782 1.99565,-0.140081 3.079327,1.094166 1.02745,1.17019 1.270575,1.271322 3.039365,1.271322 1.056992,0 2.018637,0.157658 2.137948,0.350827 h 0.0017 c 0.380853,0.616218 0.731526,0.388903 1.891361,-1.226161 1.760421,-2.451315 6.555872,-7.046337 9.12848,-8.746404 2.806625,-1.854734 6.589884,-3.76464 9.057264,-4.572928 0.997336,-0.32671 1.923591,-0.863272 2.056345,-1.191427 0.573364,-1.418984 0.579514,-8.188385 0.01344,-13.380119 -0.621794,-5.689858 -0.530782,-7.298321 0.540124,-9.656469 0.799046,-1.759467 0.840654,-2.365283 0.144181,-2.098027 -0.333734,0.128015 -0.527992,-0.0057 -0.527992,-0.362984 0,-0.356722 -0.06621,-0.533913 -0.217111,-0.519297 z m -71.233845,0.243159 c -0.0733,0.002 -0.11897,0.06244 -0.14082,0.175403 -0.0837,0.434285 -0.32029,0.556133 -0.79195,0.406406 -0.85538,-0.271491 -0.85118,-0.212507 0.20333,2.292544 1.06008,2.518706 1.12078,4.728022 0.32836,11.928172 -0.42861,3.893778 -0.46911,5.647228 -0.18586,7.963117 0.19997,1.633669 0.44182,3.098435 0.53841,3.254716 0.0965,0.15628 1.16777,0.644375 2.38111,1.083748 2.94119,1.065071 5.96681,2.603403 8.50151,4.322836 2.56639,1.740914 7.02864,5.968036 9.00866,8.534511 1.38344,1.7932 1.52113,1.881476 2.10323,1.354687 0.44155,-0.399603 1.15859,-0.53469 2.46274,-0.465456 1.56459,0.08305 1.8789,-0.0067 2.09802,-0.599189 0.47832,-1.292985 1.25055,-1.621295 3.52394,-1.495363 l 2.16228,0.119849 -0.22585,-2.282126 c -0.78053,-7.922104 -4.55031,-16.1952 -9.81625,-21.539487 -3.0232,-3.068171 -4.70975,-4.158473 -12.33458,-7.966589 -6.46153,-3.22713 -6.73443,-3.404886 -8.2601,-5.434368 -0.86186,-1.146479 -1.33597,-1.659484 -1.55614,-1.653411 z m -26.85923,26.110688 c -0.26719,0.0025 -0.25038,0.226488 -0.1388,0.653026 0.1472,0.562784 0.0602,0.658975 -0.4307,0.470666 -1.06358,-0.408127 -0.43257,0.40242 1.58566,2.037239 2.04848,1.659303 2.32293,2.125841 6.99749,11.888228 1.24591,2.601978 2.72593,5.094672 3.63333,6.120394 l 1.5301,1.731565 2.50442,-0.413353 c 6.3599,-1.050314 14.3149,-0.274145 20.2838,1.979927 1.54549,0.583627 2.88893,1.068399 2.98552,1.076801 0.0965,0.0084 0.49334,-0.492864 0.88229,-1.113273 0.55861,-0.89109 0.98302,-1.150482 2.01985,-1.236587 l 1.31302,-0.10943 v -1.710724 c 0,-1.428472 0.15225,-1.828395 0.92569,-2.436695 0.51985,-0.4089 1.44278,-0.727708 2.10672,-0.727708 0.65009,0 1.18272,-0.09931 1.18272,-0.220574 0,-0.614393 -3.83619,-5.266345 -6.17421,-7.487238 -4.38922,-4.169339 -9.19943,-6.936268 -14.79907,-8.511936 -3.11643,-0.876931 -8.17601,-1.02776 -16.96134,-0.505404 -5.04712,0.300092 -5.11252,0.294882 -7.15727,-0.618292 -1.31722,-0.588272 -1.98607,-0.869486 -2.28905,-0.866649 z m 124.783858,0.0087 c -0.270214,-0.01143 -0.934657,0.268365 -2.33597,0.86144 -2.16238,0.915187 -2.236051,0.920981 -7.27708,0.616554 -9.096317,-0.54932 -13.770911,-0.355616 -17.386866,0.720761 -5.609452,1.669793 -10.969428,4.975994 -15.391318,9.493215 -1.914114,1.955399 -5.156475,6.131439 -5.156475,6.64143 0,9.41e-4 -6.8e-5,0.0025 0,0.0034 0.02016,0.117798 0.651369,0.215364 1.420671,0.215364 1.953335,0 3.1453,1.191958 3.1453,3.1453 0,1.307682 0.07495,1.420684 0.943092,1.420684 1.002513,0 2.568676,1.216123 2.568676,1.993817 h 0.0017 c 0,0.645874 0.375039,0.592178 2.89347,-0.409878 5.900134,-2.347618 13.625856,-3.21537 20.39148,-2.290806 l 3.21823,0.439403 1.061194,-1.236583 c 1.651529,-1.922916 3.144661,-4.591789 5.555914,-9.929146 2.636632,-5.836247 3.454331,-7.108987 5.630626,-8.770716 1.621382,-1.238026 2.174648,-2.107293 1.073326,-1.684671 -0.451365,0.173118 -0.51707,0.06238 -0.326341,-0.538401 0.141157,-0.445022 0.209046,-0.681096 -0.03025,-0.691236 z m -22.791709,23.687884 c -4.387375,0.09068 -8.893253,0.982619 -13.164745,2.667687 -3.665797,1.446123 -3.726998,1.524408 -2.27171,2.896941 0.986515,0.930532 1.217473,1.409829 1.217473,2.521796 0,0.75523 -0.229883,1.70387 -0.51233,2.10671 -0.467059,0.6668 -0.436039,0.80481 0.350807,1.54399 0.621256,0.58372 0.864919,1.18392 0.864919,2.1345 0,1.31219 0.01008,1.32449 1.667292,1.54399 7.497116,0.99392 15.357945,4.4585 20.636386,9.09723 0.77273,0.67909 1.525698,1.24135 1.674249,1.24874 0.611845,0.0299 4.697246,-1.81491 6.367025,-2.87436 0.986145,-0.62571 3.216314,-2.18432 4.954991,-3.46487 4.635541,-3.41416 6.65206,-4.45156 9.21882,-4.73619 2.115867,-0.23462 2.636801,-0.54008 1.799307,-1.05769 -0.264164,-0.16337 -0.17611,-0.37234 0.264164,-0.62524 0.598771,-0.34413 0.562037,-0.39978 -0.394263,-0.61135 -0.579548,-0.12821 -1.629382,-0.25156 -2.334222,-0.27441 -1.631499,-0.0529 -4.473716,-1.55012 -8.716875,-4.59203 -4.199771,-3.010848 -6.269292,-4.226936 -9.170189,-5.387477 -3.795257,-1.518351 -8.063556,-2.228643 -12.450931,-2.137971 z m -81.277619,0.01748 c -2.98768,0.124083 -5.89009,0.641099 -8.61612,1.554414 -3.71459,1.244502 -5.35406,2.142031 -10.53181,5.76782 -5.04449,3.53248 -7.32736,4.72747 -9.11809,4.77093 -0.79384,0.0192 -1.83735,0.14569 -2.32031,0.28137 -0.84808,0.23822 -0.85561,0.26074 -0.17712,0.64434 0.64596,0.36526 0.65366,0.41515 0.0904,0.63219 -1.07296,0.41338 -0.32533,0.8027 2.02334,1.05422 2.5673,0.27496 4.27879,1.17349 9.28305,4.87339 3.98635,2.94732 5.71317,4.00752 8.44941,5.1808 1.25572,0.53844 2.41731,0.98285 2.58085,0.98823 0.16367,0.005 1.01165,-0.6214 1.88615,-1.39116 4.78819,-4.21475 12.5284,-7.80232 18.55396,-8.60051 3.74067,-0.49551 3.67329,-0.4604 3.67329,-1.92261 0,-0.82464 0.285,-1.69089 0.74853,-2.28039 0.55532,-0.70593 0.64525,-1.05159 0.35084,-1.346 -0.21812,-0.21805 -0.39597,-1.14486 -0.39597,-2.05808 0,-1.473947 0.13813,-1.775334 1.24177,-2.685044 1.49871,-1.23535 1.42332,-1.322866 -2.47141,-2.830944 -5.05142,-1.955956 -10.27115,-2.83974 -15.25064,-2.632952 z m 67.631766,16.980444 c -1.251217,-0.005 -1.337389,0.057 -1.10112,0.78502 0.14082,0.43467 0.33407,1.38316 0.429014,2.10671 0.151239,1.15313 0.0168,1.47108 -1.094197,2.58085 -1.071511,1.07148 -1.266105,1.50511 -1.266105,2.81705 0,0.85264 -0.189217,1.85531 -0.422024,2.22829 -0.365729,0.5856 -0.281641,0.78727 0.614803,1.47452 2.158045,1.65428 6.254571,5.82613 7.879751,8.0239 2.129511,2.87976 3.926499,6.19777 4.944606,9.13196 1.202585,3.46583 0.925616,3.33954 7.280575,3.32072 3.036005,-0.009 7.731671,-0.14553 10.436261,-0.30392 4.817531,-0.28215 4.957243,-0.27119 6.849847,0.60092 2.378854,1.09626 2.560408,1.11845 2.292547,0.27442 -0.150231,-0.47366 -0.02689,-0.71004 0.4151,-0.79718 0.468236,-0.0923 0.123344,-0.49933 -1.34774,-1.58915 -2.310797,-1.71202 -3.561375,-3.61066 -6.087401,-9.23617 -3.710833,-8.26415 -7.399483,-12.58022 -14.099133,-16.50284 -4.396987,-2.5744 -11.833742,-4.89928 -15.724784,-4.91508 z m -51.332106,0.0434 c -0.55549,-0.002 -1.41335,0.0836 -2.63818,0.24662 -8.15554,1.08584 -16.35723,5.24632 -21.44568,10.87743 -2.34444,2.59443 -4.21224,5.69338 -6.59977,10.94863 -2.26976,4.99602 -3.63914,7.15828 -5.10438,8.06385 -0.62394,0.38561 -1.42487,1.02286 -1.78018,1.41547 -0.59693,0.65959 -0.60069,0.71382 -0.0417,0.71382 0.44649,0 0.54604,0.18485 0.38035,0.70687 -0.2198,0.69213 -0.18451,0.69123 1.64471,-0.0868 2.08589,-0.88726 4.33222,-0.95552 15.39306,-0.46546 3.18755,0.14123 6.42117,0.11992 7.18678,-0.0486 1.314,-0.28927 1.43647,-0.42977 2.17791,-2.50095 2.38974,-6.67568 6.70301,-12.67862 12.51519,-17.41639 1.16914,-0.95302 1.5711,-1.48385 1.31648,-1.73851 -0.20165,-0.20162 -0.37121,-1.24468 -0.3786,-2.31686 -0.0134,-1.80721 -0.0971,-2.00123 -1.14283,-2.65726 -1.00836,-0.63261 -1.13903,-0.90629 -1.23481,-2.57564 -0.0625,-1.09041 0.0686,-2.07822 0.31424,-2.37417 0.45069,-0.54307 0.36307,-0.78906 -0.56275,-0.79197 z m 45.07972,11.89344 c -0.160986,0.0188 -0.291723,0.63003 -0.291723,1.37379 0,1.74693 -1.523413,3.19219 -3.364126,3.19219 -0.952335,0 -1.201845,0.14062 -1.201845,0.67561 0,0.9519 -1.678921,2.83789 -2.527001,2.83789 -0.542108,0 -0.647606,0.14475 -0.444609,0.61482 2.56266,5.93207 3.493082,11.07175 3.185226,17.61438 -0.123679,2.62731 -0.305838,5.48899 -0.404648,6.35832 l -0.180478,1.58047 2.030299,1.52663 c 1.116311,0.8396 3.68902,2.31551 5.71747,3.28076 10.614453,5.05102 10.110727,4.75249 11.874341,7.02873 1.373384,1.77255 1.667662,2.00322 1.761094,1.38074 0.0931,-0.62083 0.226858,-0.6854 0.790206,-0.38383 0.866969,0.4639 0.859105,0.39196 -0.246687,-2.2196 -0.922524,-2.17891 -0.924776,-2.1983 -0.618265,-7.80333 0.506718,-9.26561 0.338674,-13.21419 -0.713814,-16.78593 -1.590933,-5.39894 -4.402095,-10.27133 -8.385158,-14.53333 -2.086761,-2.2329 -6.346356,-5.73831 -6.973157,-5.73831 -0.0026,0 -0.0034,-3e-4 -0.0067,0 z m -39.42305,0.14069 c -0.80261,0.0406 -3.95557,2.52256 -6.6206,5.24853 -3.98169,4.07278 -7.4667,10.07085 -8.90791,15.33399 -0.71526,2.61205 -0.85289,9.4156 -0.34563,17.03602 0.29777,4.47455 0.28567,4.61 -0.62001,6.75085 -1.07306,2.53661 -1.17715,3.20339 -0.39773,2.55653 0.4315,-0.35811 0.52625,-0.33299 0.52625,0.13373 0,0.98243 0.62616,0.62842 1.94516,-1.09938 1.57712,-2.06585 3.35869,-3.19228 8.85585,-5.6011 2.36639,-1.03693 4.89564,-2.22945 5.62018,-2.64858 1.56609,-0.90589 4.88858,-3.29896 5.11308,-3.6837 0.087,-0.14919 -0.0719,-1.5373 -0.35255,-3.08278 -0.77102,-4.24506 -0.41655,-12.0218 0.73986,-16.23016 0.48894,-1.77938 1.13046,-3.8135 1.42588,-4.52082 0.64485,-1.54317 0.68353,-2.25433 0.12166,-2.25433 -0.80923,0 -2.04243,-1.52159 -2.04243,-2.52007 0,-0.93449 -0.0877,-0.99343 -1.50231,-0.99343 -2.20093,0 -3.06366,-0.74109 -3.06366,-2.63295 0,-0.84698 -0.16636,-1.64158 -0.36822,-1.76631 -0.0302,-0.0195 -0.0733,-0.0289 -0.1267,-0.0262 z m 10.04028,7.85369 -0.60263,1.16364 c -2.01457,3.89574 -3.32571,10.0411 -3.31899,15.5563 0.0101,7.77038 2.0062,13.52313 7.02525,20.24559 3.82601,5.12447 4.89342,7.04772 5.30412,9.55226 0.19963,1.21745 0.45566,2.45086 0.56792,2.74063 0.16837,0.43557 0.22921,0.42134 0.35084,-0.0868 0.18484,-0.77364 0.42773,-0.77693 0.98822,-0.0104 0.38029,0.52005 0.47614,0.31048 0.68082,-1.49189 0.35625,-3.13548 0.72204,-4.03114 3.03412,-7.42472 6.419684,-9.42262 7.462796,-11.46269 8.536256,-16.69909 0.70995,-3.46937 0.713949,-9.89449 0.0067,-13.62152 -0.535722,-2.82411 -1.855668,-6.94375 -2.846586,-8.88361 l -0.49845,-0.97607 -0.894427,1.06465 c -0.791146,0.9402 -1.113823,1.0629 -2.775363,1.0629 -1.03394,0 -1.98089,-0.16132 -2.10323,-0.35951 -0.1341,-0.21684 -0.64199,-0.008 -1.27656,0.52624 -1.45522,1.22443 -3.71197,1.23482 -4.8508,0.0225 -0.73919,-0.78682 -0.87719,-0.81788 -1.54398,-0.35082 -0.40287,0.28214 -1.39863,0.51234 -2.21092,0.51234 -1.27007,0 -1.62376,-0.17759 -2.52528,-1.27132 z"
         style="fill:#a963c3;fill-opacity:1;stroke-width:3.36087"
         id="path1-8" /><path
         d="m -107.87537,82.738665 c -1.83691,0 -2.78733,4.014207 -1.43805,6.073504 0.75643,1.154423 1.98873,1.244222 2.92298,0.211902 0.4957,-0.547875 0.66868,-1.266636 0.66868,-2.773631 0,-2.288629 -0.75021,-3.511762 -2.15361,-3.511762 z m -5.9085,0.467193 c -0.75556,0.03942 -1.43903,0.614925 -1.75589,1.877454 -0.29979,1.194925 0.73344,4.199495 1.67079,4.856024 1.70998,1.197708 3.1123,0.102405 3.1123,-2.429748 0,-2.529979 -1.51663,-4.248151 -2.87439,-4.30373 -0.0507,-0.0021 -0.1025,-0.0026 -0.15291,0 z m 12.00457,0.211903 c -0.4852,-0.01378 -1.03094,0.233614 -1.57352,0.812812 -1.4893,1.589847 -1.91711,4.062809 -0.94306,5.453475 1.15479,1.648723 3.24861,0.499018 3.97547,-2.183128 0.62394,-2.302492 -0.21879,-4.047803 -1.45889,-4.083159 z m -17.62999,2.167496 c -0.27929,0.01277 -0.541,0.08698 -0.77286,0.234454 -1.28712,0.818747 -0.67537,3.638812 1.19488,5.509053 1.91291,1.912897 3.97601,0.686797 3.46139,-2.056342 -0.37588,-2.003795 -2.3762,-3.755481 -3.88341,-3.687175 z m 23.15294,0.149357 c -0.36896,-8.47e-4 -0.8048,0.126839 -1.30432,0.418562 -2.15996,1.261494 -3.27637,4.886043 -1.83056,5.943247 0.91556,0.669464 1.37076,0.599874 2.5357,-0.380356 2.61785,-2.202792 2.5916,-5.976889 0.59918,-5.981453 z m -27.44103,3.32766 c -1.00202,-0.0017 -1.86879,0.892192 -1.86879,1.927823 0,0.976365 1.46574,2.822139 2.96816,3.735803 1.04939,0.638198 2.0061,0.594615 2.91431,-0.131981 1.58125,-1.265067 -1.51145,-5.527262 -4.01368,-5.531631 z m 31.83509,0.243159 c -0.83628,-0.01311 -1.79403,0.510519 -2.84484,1.561364 -1.42285,1.422866 -1.82747,3.200538 -0.93267,4.095315 0.90027,0.900305 2.42298,0.477458 4.01371,-1.113273 1.75236,-1.752345 2.06354,-3.324538 0.82671,-4.190838 -0.32634,-0.22864 -0.6828,-0.34663 -1.06291,-0.352568 z m -35.15582,4.321098 c -1.02792,0 -2.06155,0.971619 -2.06155,1.938241 0,0.923586 1.51392,2.54188 2.98551,3.190456 1.28807,0.567691 1.63796,0.586424 2.78753,0.149357 1.06409,-0.40456 1.22722,-1.845397 0.35081,-3.096671 -0.65624,-0.936905 -2.97342,-2.18139 -4.0623,-2.18139 z m 38.58246,0.352565 c -1.89869,0.0017 -3.60043,1.038178 -4.37666,2.665949 -0.59514,1.248182 -0.59211,1.278097 0.2188,1.93477 1.00789,0.816136 1.84276,0.840394 3.31028,0.09726 3.50011,-1.772376 4.02813,-4.700799 0.84754,-4.697979 z m -40.08825,5.206854 c -1.07986,-0.03697 -2.06047,0.237714 -2.50443,0.91528 -0.6999,1.06818 -0.2654,2.03829 1.35643,3.02719 2.50192,1.52553 5.89658,0.51549 5.36663,-1.5961 -0.34122,-1.35953 -2.41885,-2.284775 -4.21863,-2.34637 z m 41.67915,0.03647 c -1.8718,0.0242 -4.05301,1.00131 -4.24296,2.65205 -0.078,0.6789 0.0938,1.17922 0.50715,1.48147 0.73375,0.53653 2.8802,0.59897 4.14045,0.11984 1.21271,-0.46107 2.32035,-1.62874 2.32035,-2.4471 0,-1.265958 -1.26917,-1.824997 -2.72499,-1.806247 z m -0.36301,5.35968 c -0.61013,0.0131 -1.20682,0.13715 -1.71071,0.39772 -2.14975,1.11168 -2.36679,2.56651 -0.53317,3.56213 2.34128,1.27129 6.03352,0.19338 6.03352,-1.76109 0,-1.27658 -1.95915,-2.23785 -3.78964,-2.19876 z m -41.32135,0.0138 c -1.10524,0.003 -2.21716,0.31148 -2.9473,0.9917 -0.98876,0.92115 -0.9637,1.56852 0.099,2.63121 1.81296,1.81296 6.5129,0.77523 6.5129,-1.43805 0,-1.35345 -1.82252,-2.19061 -3.66459,-2.18486 z m 40.01532,5.20164 c -1.50738,-9.5e-4 -2.70301,0.77924 -2.5635,2.21613 0.0887,0.91575 0.38048,1.24326 1.67599,1.89656 1.83325,0.92445 3.40795,1.01098 4.50171,0.24487 1.0009,-0.70134 0.9964,-1.93817 -0.0101,-2.88131 -1.06993,-1.00229 -2.43138,-1.47552 -3.60379,-1.47626 z m -38.11355,0.0175 c -0.70463,-0.0161 -1.51813,0.16321 -2.4558,0.5384 -2.17683,0.871 -2.81745,2.73789 -1.313,3.82438 0.57601,0.416 1.21867,0.51687 2.3707,0.36994 1.87341,-0.23896 3.20538,-1.13234 3.68022,-2.46622 0.2928,-0.82247 0.22179,-1.06624 -0.47761,-1.63258 -0.5037,-0.40787 -1.09987,-0.61793 -1.80451,-0.63392 z m 35.78279,4.63025 c -1.22534,-0.002 -2.40716,0.74259 -2.40716,1.62214 0,0.93126 1.26345,2.40295 2.75279,3.20609 2.14638,1.15746 4.5742,0.22273 4.07273,-1.56831 -0.30752,-1.09831 -2.56911,-2.96449 -3.89387,-3.21303 -0.17342,-0.0326 -0.34943,-0.0466 -0.52449,-0.0469 z m -33.38951,0.20494 c -1.33724,0.006 -3.08917,0.72437 -4.11095,2.02335 -0.88515,1.12526 -0.92455,1.80105 -0.15282,2.65379 0.80095,0.88504 2.06588,0.80429 3.85912,-0.24662 1.65914,-0.9723 2.23351,-1.76614 2.23351,-3.08973 0,-0.91905 -0.78876,-1.34535 -1.82884,-1.34079 z m 29.8239,3.71149 c -0.33979,-0.0131 -0.65729,0.0472 -0.93264,0.19453 -0.52073,0.27862 -0.71903,0.7344 -0.71903,1.6482 0,1.02318 0.29072,1.55512 1.53357,2.79795 2.29312,2.29311 4.43748,2.07175 4.43748,-0.45678 0,-1.92573 -2.48452,-4.11357 -4.31938,-4.18389 z m -26.60741,0.26921 c -0.0682,-0.002 -0.13813,-3.8e-4 -0.20837,0.003 -1.23562,0.0677 -2.74751,1.01064 -3.64027,2.4749 -0.9113,1.49466 -0.88443,2.55497 0.0799,3.2304 1.25916,0.88195 3.26251,-0.0696 4.75181,-2.2578 0.93015,-1.36678 0.9972,-2.20541 0.23795,-2.96468 -0.31794,-0.31801 -0.74319,-0.47321 -1.22097,-0.4863 z m 22.69099,2.80663 c -0.54806,-0.0252 -1.05424,0.20293 -1.43109,0.77807 -0.82896,1.26515 0.10923,3.94853 1.88612,5.39443 0.93489,0.76078 2.47944,0.5428 2.91431,-0.41162 1.06754,-2.34298 -1.41197,-5.67104 -3.36934,-5.76088 z m -18.79191,0.11464 c -2.26112,-0.0141 -4.94377,4.94618 -2.99594,6.37049 0.91529,0.66928 1.37083,0.60155 2.5357,-0.37862 2.13109,-1.7932 2.75238,-4.95678 1.1428,-5.8182 -0.21913,-0.11736 -0.44864,-0.17221 -0.68256,-0.17369 z m 14.24678,1.61867 c -0.42031,0.009 -0.8377,0.23153 -1.2696,0.66345 -1.29017,1.29016 -0.64452,4.88224 1.09591,6.10129 0.95395,0.66815 1.18373,0.69291 2.05981,0.22403 1.43159,-0.7662 1.30939,-4.15199 -0.21544,-5.96408 -0.58529,-0.69559 -1.13036,-1.0362 -1.67075,-1.0247 z m -9.851,0.34735 c -1.23717,0.0252 -2.3838,1.59105 -2.57739,3.92512 -0.11998,1.44561 -0.0202,2.02008 0.43248,2.47317 0.82889,0.82887 1.70574,0.73614 2.73366,-0.29179 1.42568,-1.42567 1.78731,-4.55616 0.6461,-5.58895 -0.40045,-0.36239 -0.82247,-0.52601 -1.23485,-0.51756 z m 4.84734,0.66692 c -1.83691,0 -2.78733,4.01421 -1.43805,6.07351 v 0.002 c 0.75643,1.15442 1.98873,1.24248 2.92298,0.21015 0.4957,-0.54787 0.66868,-1.26663 0.66868,-2.77363 0,-2.28862 -0.75021,-3.51176 -2.15361,-3.51176 z"
         style="fill:#a08246;fill-opacity:1;stroke-width:3.36087"
         id="path1" /></g></g></svg>
