<?xml version="1.0" encoding="UTF-8" standalone="no"?>
<!-- Created with Inkscape (http://www.inkscape.org/) -->

<svg
   width="210mm"
   height="80mm"
   viewBox="0 0 210 80"
   version="1.1"
   id="svg1"
   xml:space="preserve"
   inkscape:version="1.4.2 (f4327f4, 2025-05-13)"
   sodipodi:docname="Viditay - Marca.svg"
   xmlns:inkscape="http://www.inkscape.org/namespaces/inkscape"
   xmlns:sodipodi="http://sodipodi.sourceforge.net/DTD/sodipodi-0.dtd"
   xmlns="http://www.w3.org/2000/svg"
   xmlns:svg="http://www.w3.org/2000/svg"><sodipodi:namedview
     id="namedview1"
     pagecolor="#ffffff"
     bordercolor="#000000"
     borderopacity="0.25"
     inkscape:showpageshadow="2"
     inkscape:pageopacity="0.0"
     inkscape:pagecheckerboard="0"
     inkscape:deskcolor="#d1d1d1"
     inkscape:document-units="mm"
     inkscape:zoom="0.8000088"
     inkscape:cx="491.2446"
     inkscape:cy="311.87157"
     inkscape:window-width="1920"
     inkscape:window-height="1057"
     inkscape:window-x="1592"
     inkscape:window-y="-5"
     inkscape:window-maximized="1"
     inkscape:current-layer="layer1" /><defs
     id="defs1" /><g
     inkscape:label="Layer 1"
     inkscape:groupmode="layer"
     id="layer1"><path
       d="m 170.20402,66.1398 c -1.3177,-0.0995 -2.87988,-0.33518 -3.84727,-0.58041 -2.08118,-0.52755 -2.94973,-1.12733 -3.25062,-2.24469 -0.31452,-1.16811 0.37779,-4.05753 1.5767,-6.58046 0.62978,-1.32526 1.17463,-2.01025 1.68879,-2.12318 0.34077,-0.0749 1.80186,0.25015 3.86075,0.85872 1.27981,0.3783 1.47441,0.7929 1.15719,2.46554 -0.15131,0.7979 -0.098,0.98462 0.33808,1.1833 0.74951,0.3415 4.13261,-0.0113 5.05006,-0.52753 0.5934,-0.3335 1.21091,-1.40314 1.77006,-3.06605 0.41533,-1.23516 0.42175,-1.05992 -0.27176,-7.41972 -1.02495,-9.39914 -1.51358,-13.97173 -1.71163,-16.016945 -0.11522,-1.189339 -0.2647,-2.265789 -0.33232,-2.392135 -0.0676,-0.126347 -0.52367,-0.463756 -1.01346,-0.749797 -1.47176,-0.859557 -1.52808,-0.925187 -1.51593,-1.766411 0.0126,-0.846991 0.51946,-2.023488 1.05345,-2.443529 0.32279,-0.253911 0.46914,-0.259729 4.55532,-0.181144 2.32201,0.04461 4.35476,0.130279 4.51724,0.190267 0.69125,0.255206 0.96644,1.274206 1.2193,4.514917 0.0789,1.011185 0.32324,3.581827 0.54298,5.712527 0.21975,2.13071 0.47544,4.78999 0.56821,5.90951 0.0927,1.11953 0.17617,2.06506 0.18535,2.10117 0.009,0.0361 0.7431,-1.38217 1.63096,-3.15175 0.88787,-1.76956 2.06272,-4.0191 2.61078,-4.99898 1.91611,-3.425746 2.2227,-4.12116 2.17867,-4.941726 l -0.0391,-0.728461 -0.65661,-0.251888 c -0.9091,-0.348756 -1.15936,-0.677545 -1.08226,-1.421877 0.0948,-0.914116 0.48042,-2.075346 0.82011,-2.468973 l 0.30707,-0.355843 5.48826,0.02563 c 3.83601,0.01797 5.57309,0.07099 5.77011,0.17647 0.68557,0.366914 0.91285,1.714239 0.44411,2.633005 -0.21213,0.415818 -0.43112,0.602064 -1.04179,0.88602 -2.33587,1.086151 -4.16413,3.421251 -7.07079,9.031013 -2.52567,4.87446 -5.16149,10.04786 -6.54993,12.85575 -2.74612,5.55356 -3.64409,7.27346 -4.35292,8.33717 -1.42162,2.13333 -4.04606,4.43257 -6.43746,5.63973 -2.50308,1.26356 -5.93494,2.05879 -8.15971,1.89076 z M 20.168068,63.87006 c -1.470121,-0.60809 -1.52844,-3.45981 -0.104772,-5.12304 0.556429,-0.65007 1.330386,-1.04812 2.045995,-1.05228 0.598835,-0.004 1.407782,0.31196 1.406766,0.54854 -0.0013,0.30411 -0.271512,1.15579 -0.366576,1.15542 -0.05078,-2e-4 -0.21051,-0.2218 -0.354965,-0.49246 -0.210985,-0.39532 -0.348419,-0.50034 -0.698737,-0.53395 -0.620636,-0.0596 -1.04533,0.27565 -1.43977,1.13639 -0.454973,0.99281 -0.55376,2.62172 -0.200421,3.30475 0.222348,0.42983 0.278225,0.4591 0.861541,0.45138 0.495974,-0.006 0.701538,-0.0828 1.003344,-0.3719 0.47727,-0.45726 0.709745,-0.21275 0.257988,0.27134 -0.646715,0.69299 -1.697492,1.00068 -2.410393,0.70581 z m 5.449883,-0.008 c 0,-0.0729 0.679841,-1.49112 1.510756,-3.15175 1.365078,-2.72818 1.542361,-3.01932 1.838516,-3.01932 0.180267,0 0.327759,0.0452 0.327759,0.10053 0,0.0809 0.560206,4.85724 0.689019,5.8746 0.02895,0.22867 -0.04321,0.26265 -0.557697,0.26265 h -0.590952 l -0.03332,-0.59095 c -0.01833,-0.32503 -0.06533,-0.78302 -0.104445,-1.01775 -0.07064,-0.42393 -0.07622,-0.4268 -0.828034,-0.4268 H 27.11264 l -0.444109,1.05057 c -0.372714,0.8817 -0.492859,1.05059 -0.747345,1.05059 -0.166779,0 -0.303236,-0.0596 -0.303236,-0.13241 z m 2.9191,-3.31481 C 28.439251,59.473 28.34073,59.44848 27.879576,60.38364 l -0.420657,0.85305 h 0.570447 0.570448 z m 11.132407,3.391 c 0,-0.0405 0.694368,-1.465 1.54304,-3.16551 1.429847,-2.86506 1.566784,-3.08909 1.866733,-3.05398 0.321162,0.0376 0.326491,0.0609 0.681496,2.99264 0.196793,1.62513 0.36138,3.02863 0.36575,3.11892 0.0052,0.10743 -0.190119,0.16415 -0.565823,0.16415 -0.561003,0 -0.57558,-0.0113 -0.655167,-0.49247 -0.04477,-0.27085 -0.08205,-0.74643 -0.08284,-1.05684 l -0.0015,-0.56438 -0.80891,0.0391 -0.808909,0.0391 -0.417351,0.98491 c -0.356071,0.84031 -0.468687,0.99103 -0.766961,1.02648 -0.192285,0.0229 -0.349609,0.009 -0.349609,-0.0322 z m 2.97419,-3.391 c -0.04555,-0.37919 -0.0862,-0.80763 -0.09032,-0.95209 -0.0067,-0.23081 -0.890063,1.2711 -0.907656,1.54304 -0.0035,0.0542 0.23824,0.0985 0.53721,0.0985 h 0.543582 z M 54.5089,63.87078 c 0,-0.0777 0.67984,-1.49984 1.510756,-3.16047 1.353882,-2.7058 1.544172,-3.01932 1.832564,-3.01932 0.376221,0 0.322117,-0.24286 0.775245,3.48005 0.175822,1.44454 0.27438,2.67479 0.21902,2.73389 -0.05536,0.0591 -0.330049,0.0886 -0.610419,0.0657 l -0.509765,-0.0419 -0.03846,-1.02386 -0.03846,-1.02388 -0.813297,0.039 -0.813298,0.0389 -0.422752,0.98491 c -0.351826,0.81969 -0.47882,0.9919 -0.756939,1.02648 -0.183802,0.0229 -0.334185,-0.022 -0.334185,-0.0996 z m 2.973384,-3.12654 c -0.04477,-0.27085 -0.08205,-0.65498 -0.08284,-0.8536 -0.0023,-0.56523 -0.173054,-0.43143 -0.628645,0.49246 l -0.420927,0.85359 h 0.606908 0.606907 z m 4.661834,3.04842 c -0.470655,-0.20434 -0.483197,-0.3159 -0.135376,-1.20412 0.134272,-0.34289 0.153565,-0.35071 0.294428,-0.1195 0.341634,0.56073 0.779099,1.00017 0.995657,1.00017 0.507387,0 0.925663,-0.95173 0.650484,-1.48008 -0.08386,-0.16103 -0.352459,-0.46062 -0.596869,-0.66574 -1.059593,-0.88928 -1.114662,-2.06631 -0.143767,-3.07289 0.484517,-0.50232 1.105535,-0.65355 1.813178,-0.44153 0.6415,0.19219 0.692927,0.2835 0.520445,0.92404 -0.195447,0.72585 -0.357827,0.7666 -0.603903,0.15159 -0.116923,-0.29222 -0.329328,-0.56465 -0.476697,-0.61144 -0.362419,-0.11497 -0.748574,0.29488 -0.846544,0.89862 -0.07302,0.44993 -0.032,0.52425 0.651914,1.18138 0.774871,0.74453 0.961546,1.16005 0.825887,1.83834 -0.278938,1.39468 -1.676563,2.15359 -2.948837,1.60118 z m 11.390992,0.10329 c -0.02034,-0.12888 -0.0481,0.041 0.405952,-2.48481 0.537477,-2.98988 0.551041,-2.84668 -0.259079,-2.73526 -0.600297,0.0825 -0.656612,0.0676 -0.656612,-0.17392 0,-0.66982 0.03028,-0.67967 2.08884,-0.67967 h 1.929418 l -0.05455,0.46717 -0.05453,0.46718 -0.693894,-0.0867 c -0.833319,-0.10416 -0.71427,-0.36693 -1.244229,2.74688 -0.219693,1.29083 -0.43152,2.39885 -0.470726,2.4623 -0.08668,0.14024 -0.968737,0.15525 -0.99059,0.0168 z m 5.072746,-0.0101 c -0.02854,-0.0285 0.638518,-1.43415 1.482333,-3.1236 1.332537,-2.66795 1.573761,-3.07171 1.835104,-3.07171 0.165492,0 0.325439,0.0739 0.355435,0.16414 0.04683,0.14095 0.726625,5.78925 0.725542,6.02838 -2.15e-4,0.0474 -0.251544,0.0735 -0.558511,0.0583 l -0.55812,-0.0278 -0.118769,-1.0104 -0.118769,-1.01039 h -0.748834 -0.748833 l -0.460783,1.02245 c -0.370709,0.82257 -0.516802,1.02244 -0.747352,1.02244 -0.157613,0 -0.309913,-0.0234 -0.338444,-0.0519 z m 2.953478,-2.95959 c 0,-0.17049 -0.03884,-0.59333 -0.08631,-0.93965 l -0.0863,-0.62967 -0.432611,0.84116 c -0.237937,0.46264 -0.435479,0.88548 -0.438984,0.93965 -0.0035,0.0542 0.230008,0.0985 0.518919,0.0985 0.464478,0 0.52529,-0.0359 0.52529,-0.30998 z m 4.637569,2.71499 c 0.0413,-0.20323 0.261771,-1.46277 0.489922,-2.79898 0.22815,-1.3362 0.439471,-2.56242 0.469599,-2.72493 0.05308,-0.28628 0.102196,-0.29548 1.576537,-0.29548 1.333689,0 1.511905,0.0256 1.442046,0.20772 -0.04384,0.11422 -0.07972,0.29153 -0.07972,0.39397 0,0.14393 -0.219933,0.18624 -0.968134,0.18624 h -0.968135 l -0.08872,0.55813 c -0.0488,0.30696 -0.121848,0.69107 -0.162343,0.85358 -0.07014,0.28151 -0.03675,0.29548 0.705809,0.29548 h 0.779427 l -0.0603,0.41086 -0.0603,0.41086 -0.765085,-0.0799 -0.765086,-0.0799 -0.079,0.42421 c -0.04345,0.23332 -0.151538,0.89697 -0.240195,1.47479 l -0.161196,1.05058 -0.570115,0.0412 c -0.562179,0.0406 -0.56907,0.0361 -0.495013,-0.32832 z m 40.276317,-0.99329 c -0.0876,-0.74033 -0.25963,-2.12906 -0.38227,-3.08608 l -0.22299,-1.74002 h 0.63014 c 0.46901,0 0.63015,0.0498 0.63015,0.1945 0,0.61604 0.30854,3.57637 0.38812,3.72382 0.0885,0.16381 1.84435,-3.43173 1.84435,-3.77659 0,-0.0779 0.17729,-0.14173 0.39397,-0.14173 0.21669,0 0.39397,0.03 0.39397,0.0667 0,0.0367 -0.67983,1.42546 -1.51075,3.08608 -1.82674,3.65084 -1.92196,3.72445 -2.16469,1.67328 z m 5.31825,1.23789 c -0.0285,-0.0285 0.63852,-1.43415 1.48233,-3.1236 1.33254,-2.66795 1.57377,-3.07171 1.83511,-3.07171 0.16549,0 0.32543,0.0739 0.35544,0.16414 0.0469,0.14095 0.72663,5.78925 0.72553,6.02838 -2.1e-4,0.0474 -0.25153,0.0735 -0.55851,0.0583 l -0.55811,-0.0278 -0.11874,-1.0104 -0.11875,-1.01039 h -0.74884 -0.74883 l -0.46078,1.02245 c -0.3707,0.82257 -0.5168,1.02244 -0.74736,1.02244 -0.15761,0 -0.3099,-0.0234 -0.33844,-0.0519 z m 2.95348,-2.95959 c 0,-0.17049 -0.0388,-0.59333 -0.0863,-0.93965 l -0.0863,-0.62967 -0.43261,0.84116 c -0.23794,0.46264 -0.43548,0.88548 -0.43899,0.93965 -0.004,0.0542 0.23002,0.0985 0.51892,0.0985 0.46447,0 0.52529,-0.0359 0.52529,-0.30998 z M 33.234657,63.81361 c 0,-0.0401 0.206832,-1.20828 0.459627,-2.59589 0.252796,-1.38761 0.45963,-2.71933 0.45963,-2.9594 v -0.43646 h 1.253532 c 1.155816,0 1.278661,0.0251 1.575871,0.32233 0.538814,0.53882 0.387725,1.57296 -0.312615,2.13973 -0.178439,0.14441 -0.158381,0.21005 0.168442,0.55118 0.443571,0.46299 0.493945,1.14313 0.139921,1.88918 -0.406162,0.85592 -0.857593,1.06628 -2.398353,1.11753 -0.740331,0.0246 -1.346055,0.0126 -1.346055,-0.0282 z m 2.402928,-0.64036 c 0.281185,-0.20919 0.520431,-1.43582 0.361554,-1.8537 -0.128014,-0.3367 -0.381366,-0.47728 -0.860165,-0.47728 -0.323954,0 -0.431701,0.30507 -0.66094,1.87135 l -0.0913,0.62379 h 0.515102 c 0.283304,0 0.614391,-0.0739 0.735746,-0.16416 z m 0.274643,-3.05747 c 0.227207,-0.22721 0.387703,-0.92146 0.321402,-1.3903 -0.03694,-0.26123 -0.119686,-0.31268 -0.502918,-0.31268 -0.442564,0 -0.464066,0.0231 -0.611176,0.65661 -0.256604,1.10504 -0.232967,1.24757 0.2069,1.24757 0.211523,0 0.475129,-0.0906 0.585792,-0.2012 z m 11.792083,1.28461 c 0.275252,-1.35426 0.501509,-2.63957 0.502793,-2.85626 0.0033,-0.55799 0.166059,-0.75008 0.593024,-0.69995 0.343976,0.0403 0.428198,0.18583 1.231541,2.12685 0.981238,2.37084 0.866886,2.40991 1.268642,-0.43363 l 0.242382,-1.71554 h 0.382179 c 0.332694,0 0.37173,0.0382 0.301482,0.29548 -0.04438,0.16251 -0.298634,1.52169 -0.565006,3.02041 l -0.484313,2.72495 -0.402397,-10e-4 c -0.394292,-10e-4 -0.419591,-0.0425 -1.255992,-2.02471 -0.469478,-1.11264 -0.891309,-1.95396 -0.937401,-1.86961 -0.04609,0.0843 -0.215978,0.92159 -0.377524,1.86055 -0.37118,2.15741 -0.329736,2.0355 -0.691946,2.0355 h -0.307921 z m 44.545356,2.16683 c 0.09942,-0.35891 0.804197,-4.2518 0.927227,-5.12158 l 0.08823,-0.62378 h 0.596955 c 0.493895,0 0.582999,0.0363 0.516118,0.21066 -0.08372,0.21818 -0.786117,4.10776 -0.940188,5.20639 l -0.08748,0.62379 h -0.591357 c -0.54996,0 -0.585628,-0.0207 -0.509512,-0.29548 z m 8.799233,0 c 0.076,-0.27237 0.79963,-4.33778 0.94666,-5.31856 l 0.064,-0.4268 1.20879,4.9e-4 c 1.4558,5.9e-4 1.88354,0.20375 2.31786,1.10095 0.75607,1.56183 0.0248,3.9308 -1.44486,4.68056 -0.40628,0.20727 -0.77305,0.25884 -1.84112,0.25884 -1.32006,0 -1.33293,-0.003 -1.25131,-0.29548 z m 2.62778,-0.37934 c 0.43267,-0.19713 0.70612,-0.80383 0.95351,-2.11552 0.25108,-1.33121 0.17701,-2.16852 -0.22026,-2.49022 -0.3342,-0.2706 -1.08652,-0.31226 -1.27929,-0.0709 -0.18181,0.2277 -0.8779,4.35538 -0.77827,4.61501 0.0965,0.25132 0.83272,0.28555 1.32431,0.0616 z m 5.22283,-1.13087 c 0.19717,-0.99313 0.43307,-2.35232 0.52422,-3.02042 l 0.16572,-1.21473 h 1.52492 1.52492 l -0.0604,0.41175 -0.0604,0.41176 -0.94991,-0.0803 -0.94991,-0.0803 -0.14882,0.74101 c -0.22492,1.11994 -0.24026,1.09119 0.58218,1.09119 0.71998,0 0.73037,0.005 0.68944,0.36114 -0.0401,0.34894 -0.068,0.36114 -0.82442,0.36114 h -0.78288 l -0.0986,0.59094 c -0.0543,0.32504 -0.13478,0.79187 -0.17886,1.03744 l -0.0802,0.44649 0.99456,-0.0753 c 1.04709,-0.0792 1.0709,-0.0653 0.91179,0.52832 -0.0764,0.285 -0.13348,0.29548 -1.61046,0.29548 h -1.53126 z m 6.06361,1.51452 c 0.0434,-0.16489 0.26356,-1.39305 0.48945,-2.72926 0.22589,-1.3362 0.43536,-2.56242 0.46549,-2.72493 0.0471,-0.25395 0.13691,-0.29548 0.63911,-0.29548 0.41284,0 0.5662,0.0481 0.52258,0.16414 -0.10768,0.28633 -0.84928,4.47431 -0.84928,4.79622 0,0.30326 0.0156,0.3069 0.92892,0.21691 l 0.92892,-0.0915 -0.0425,0.44472 -0.0425,0.44472 -1.55948,0.0372 -1.55948,0.0372 z m 24.42576,0.099 c 0.077,-0.20087 0.79058,-4.14409 0.9454,-5.22488 l 0.0893,-0.62378 h 0.58489 c 0.4963,0 0.57423,0.0348 0.51453,0.22982 -0.0989,0.32316 -0.86659,4.62404 -0.86659,4.85521 0,0.1578 0.1717,0.17418 1.00563,0.096 0.91718,-0.0859 0.99804,-0.0744 0.91926,0.13086 -0.0475,0.12377 -0.0863,0.33845 -0.0863,0.477 0,0.23446 -0.11007,0.25191 -1.58991,0.25191 -1.34164,0 -1.57841,-0.03 -1.51618,-0.19217 z m 6.60459,-1.2852 c 0.16042,-0.81256 0.39772,-2.17175 0.52731,-3.02042 l 0.23563,-1.54304 h 0.57564 c 0.5311,0 0.56996,0.0229 0.50235,0.29548 -0.094,0.37888 -0.87415,4.7247 -0.87433,4.87013 -8e-5,0.0603 0.45201,0.0674 1.00463,0.0156 l 1.00476,-0.0941 -0.0837,0.31276 c -0.046,0.17202 -0.0846,0.38664 -0.0854,0.47692 -0.001,0.12189 -0.39998,0.16416 -1.55014,0.16416 h -1.54833 z m 6.37378,-0.32831 c 0.19718,-0.99313 0.43307,-2.35232 0.52422,-3.02041 l 0.16573,-1.21474 h 1.52491 1.52492 l -0.0604,0.41175 -0.0604,0.41176 -0.94991,-0.0803 -0.9499,-0.0803 -0.14883,0.74102 c -0.22491,1.11994 -0.24025,1.09119 0.58219,1.09119 0.71997,0 0.73037,0.005 0.68944,0.36113 -0.0402,0.34894 -0.068,0.36115 -0.82443,0.36115 h -0.78287 l -0.0988,0.59094 c -0.0543,0.32503 -0.13477,0.79187 -0.17885,1.03743 l -0.0802,0.44649 0.99456,-0.0753 c 1.0471,-0.0792 1.0709,-0.0653 0.91179,0.52831 -0.0764,0.285 -0.13348,0.29548 -1.61045,0.29548 H 152.0087 Z M 15.007094,61.99792 c -0.214223,-0.21421 -0.197949,-0.51428 0.04684,-0.86376 0.350216,-0.50001 0.846149,-0.31843 0.846149,0.30982 0,0.19843 -0.454562,0.71153 -0.630348,0.71153 -0.05778,0 -0.175971,-0.0709 -0.262646,-0.15759 z m 53.717465,0.0706 c -0.2158,-0.0871 -0.210416,-0.71882 0.0087,-1.01845 0.09506,-0.13 0.287117,-0.21465 0.426798,-0.18813 0.342918,0.0651 0.412363,0.71077 0.112135,1.04252 -0.236537,0.26137 -0.276658,0.27339 -0.54761,0.16406 z m 90.141961,-5.8e-4 c -0.162,-0.16199 -0.0893,-0.92939 0.10316,-1.08911 0.55351,-0.45937 0.99507,0.38488 0.47389,0.90606 -0.28301,0.28301 -0.43033,0.32974 -0.57702,0.18305 z m -65.617485,-4.8887 c 0,-0.12798 0.221607,-0.40886 0.492459,-0.62418 0.773596,-0.61498 0.807726,-0.62312 0.957731,-0.22858 0.170048,0.44726 0.02893,0.59748 -0.826409,0.87966 -0.586899,0.19364 -0.623781,0.19204 -0.623781,-0.0269 z M 50.529716,57.03103 c -0.406189,-0.31952 -0.566803,-0.32633 -0.73205,-0.031 -0.208377,0.37234 -0.328859,0.0773 -0.147364,-0.36085 0.241031,-0.5819 0.55321,-0.70901 0.958433,-0.39026 0.394789,0.31053 0.598845,0.32881 0.700936,0.0627 0.06999,-0.18239 0.441457,-0.28741 0.441457,-0.12478 0,0.20885 -0.42944,0.85682 -0.643938,0.97162 -0.188281,0.10077 -0.32601,0.0704 -0.577474,-0.12743 z M 153.03399,52.65357 c -0.99158,-0.88664 -1.60022,-0.97117 -3.48209,-0.48365 -0.92466,0.23955 -1.40402,0.28795 -2.43983,0.24635 -1.13192,-0.0455 -1.39535,-0.10405 -2.16065,-0.48085 -1.14933,-0.56582 -2.80216,-2.11675 -3.34079,-3.13483 -1.07506,-2.03202 -1.26312,-3.9354 -0.65067,-6.58559 0.3904,-1.68927 0.86154,-2.63972 2.04362,-4.12261 2.15202,-2.69968 3.86647,-3.85569 6.86815,-4.631035 2.68138,-0.692624 3.35174,-0.75569 6.21513,-0.584787 1.72895,0.103163 2.60267,0.10731 2.84535,0.01319 0.41726,-0.161693 1.55395,-2.138086 1.55395,-2.701888 0,-0.2205 -0.14738,-0.505298 -0.38386,-0.741781 -0.35091,-0.350904 -0.46254,-0.383876 -1.29989,-0.383876 -1.05469,0 -1.78384,0.319038 -3.37157,1.475179 -1.05971,0.771661 -1.87999,1.159081 -3.09507,1.46181 -1.24764,0.310846 -1.87232,0.278062 -2.57762,-0.13528 -0.701,-0.410805 -0.95969,-0.918867 -0.95969,-1.884753 0,-1.403883 1.22796,-2.833814 3.35577,-3.907688 1.13318,-0.57192 1.94922,-0.782342 4.52357,-1.166483 3.94481,-0.588631 7.39053,-0.408593 9.30991,0.486462 2.6604,1.240606 3.93748,3.100705 3.7825,5.509277 -0.0533,0.828017 -0.19388,1.298722 -0.88252,2.954757 -0.45052,1.083416 -0.98074,2.324416 -1.17824,2.757766 -0.19752,0.43336 -0.51482,1.12949 -0.70513,1.54693 -0.1903,0.41746 -0.346,0.78808 -0.346,0.8236 0,0.0978 -0.91144,2.40983 -1.04941,2.66205 -0.19088,0.34894 -0.65778,1.49041 -0.65778,1.60813 0,0.0588 -0.23839,0.62048 -0.52976,1.24826 -0.64945,1.39932 -1.04612,2.55318 -1.04612,3.0431 0,0.79877 0.96385,1.46956 2.11945,1.47503 0.38996,0.001 0.71547,0.089 0.9044,0.2419 0.27494,0.22263 0.28371,0.2744 0.12783,0.75511 -0.28144,0.86789 -0.90365,2.00872 -1.17467,2.15378 -0.84125,0.45022 -5.96867,0.91887 -10.08579,0.92183 l -1.73965,0.001 z m -0.62417,-4.26631 c 0.28529,-0.17454 0.44427,-0.41895 0.57628,-0.88593 0.58002,-2.0518 2.21953,-6.03104 3.74253,-9.08341 0.54987,-1.10202 0.99975,-2.05599 0.99975,-2.11994 0,-0.19592 -0.37587,-0.27566 -1.29939,-0.27566 -0.99338,0 -1.83514,0.33101 -2.89259,1.13752 -1.07316,0.81849 -2.59459,2.88837 -3.36396,4.57663 -0.76914,1.6878 -1.02872,2.74472 -1.01553,4.13503 0.0132,1.3957 0.13357,1.82757 0.63035,2.26239 0.60119,0.52622 1.96176,0.65766 2.62256,0.25337 z m -29.08793,4.03167 c -0.94735,-0.15649 -2.19118,-0.74936 -2.72476,-1.29875 -0.23465,-0.24158 -0.55846,-0.7679 -0.71959,-1.1696 -0.25675,-0.64008 -0.29255,-0.96571 -0.28963,-2.63453 0.004,-2.15406 0.096,-2.51596 1.54043,-6.04084 0.78659,-1.9196 3.9179,-9.992854 4.32509,-11.151094 0.30193,-0.858815 0.23112,-1.220639 -0.35329,-1.805037 -0.30875,-0.308747 -0.55938,-0.438762 -0.84585,-0.438762 -0.24002,0 -0.52166,-0.114598 -0.68622,-0.279106 -0.24549,-0.245505 -0.27138,-0.387257 -0.21487,-1.176974 0.0566,-0.790686 0.12515,-0.978214 0.57459,-1.571118 0.28068,-0.370293 0.67955,-0.761608 0.88635,-0.869584 0.22432,-0.11711 1.0227,-0.242163 1.97919,-0.309941 1.71708,-0.121634 3.13344,-0.376325 3.89427,-0.700113 0.57567,-0.24499 2.17495,-2.009227 3.05327,-3.3682 0.34949,-0.540757 0.94045,-1.455954 1.31322,-2.03378 0.41286,-0.639949 0.83176,-1.127567 1.07175,-1.247555 0.29766,-0.148839 0.87548,-0.19699 2.3638,-0.19699 2.24205,0 2.80648,0.16628 3.26425,0.96164 l 0.25113,0.43635 -0.35253,1.070004 c -0.19388,0.588506 -0.79279,1.943874 -1.33089,3.011943 -0.95251,1.890633 -1.13876,2.533849 -0.86076,2.972662 0.0857,0.135293 0.766,0.207218 2.77229,0.293116 1.74598,0.07477 2.72508,0.168919 2.85201,0.274255 0.13256,0.110074 0.1703,0.302088 0.12013,0.611275 -0.0934,0.57569 -1.23564,2.460254 -1.58848,2.620854 -0.14857,0.0676 -1.13,0.09273 -2.20008,0.05642 -1.88512,-0.06408 -1.94894,-0.0573 -2.63907,0.280324 -0.4024,0.196876 -1.03055,0.684997 -1.45741,1.132518 -0.80106,0.839816 -0.86828,0.968085 -2.99497,5.714403 -4.1781,9.32468 -4.30592,9.63484 -4.30592,10.44807 0,1.25983 1.28791,1.21279 4.18886,-0.15301 1.61654,-0.76108 2.21231,-0.82832 2.63038,-0.29683 0.32829,0.41735 0.33692,0.59408 0.0578,1.18234 -0.47931,1.01009 -2.23442,2.57864 -4.31898,3.85991 -1.3546,0.8326 -2.32864,1.23748 -3.90128,1.62163 -1.16162,0.28375 -1.69175,0.34147 -3.02041,0.3288 -0.88634,-0.009 -1.93654,-0.069 -2.3338,-0.13466 z M 74.995208,52.17498 c -0.144454,-0.14445 -0.262644,-0.35769 -0.262644,-0.47387 0,-0.15256 -0.08205,-0.19146 -0.295476,-0.14009 -1.117274,0.26891 -2.211909,0.39238 -3.578538,0.40363 -1.461646,0.0126 -1.628222,-0.0128 -2.298144,-0.3426 -0.845244,-0.41609 -2.102915,-1.59985 -2.691319,-2.53315 -1.188239,-1.88471 -1.876722,-5.83947 -1.520314,-8.73294 0.174356,-1.41551 0.785317,-3.94969 1.24425,-5.16095 1.179464,-3.112997 3.09459,-6.194402 4.820704,-7.756447 3.310547,-2.995871 6.65383,-4.109453 10.162687,-3.384988 1.563087,0.322721 3.331282,1.14879 4.377196,2.044938 0.385092,0.329946 0.750412,0.599903 0.811824,0.599903 0.240409,0 0.646266,-0.785194 1.113905,-2.155024 0.700025,-2.050555 0.546235,-2.7785 -0.732074,-3.465206 -0.513877,-0.276052 -0.689606,-0.302452 -1.529222,-0.229761 -1.395104,0.120755 -2.137452,-0.350339 -2.137452,-1.35651 0,-0.620096 0.794928,-1.99685 1.454672,-2.519375 0.977364,-0.774086 0.99959,-0.776235 6.699207,-0.645365 2.846444,0.06534 5.866426,0.120881 6.711069,0.123394 1.400811,0.0038 1.565544,0.03053 1.875322,0.300102 0.252328,0.219545 0.359676,0.468556 0.417691,0.968915 0.07388,0.637411 0.01797,0.806002 -1.045043,3.151746 -0.617716,1.363058 -1.447268,3.216987 -1.84345,4.119832 -0.71289,1.624571 -1.187362,2.678441 -1.951097,4.333647 -0.216624,0.469473 -0.627364,1.385449 -0.912755,2.035489 -0.28539,0.650052 -0.576601,1.286998 -0.647136,1.415455 -0.07053,0.128445 -0.474389,1.014879 -0.897454,1.969835 -0.423064,0.95497 -1.520396,3.39096 -2.438515,5.41333 -2.560669,5.64046 -2.597516,5.73813 -2.614606,6.93132 -0.01612,1.126 0.07131,1.27017 0.7733,1.27505 0.641893,0.005 1.39071,0.2638 1.723966,0.59707 0.237299,0.2373 0.311533,0.45511 0.311533,0.91408 0,0.53596 -0.06755,0.67476 -0.611377,1.25615 -0.336257,0.35948 -0.735148,0.68265 -0.886427,0.71816 -0.197651,0.0464 -12.393269,0.58681 -13.24237,0.58681 -0.0546,0 -0.217458,-0.11824 -0.361913,-0.26264 z m -0.239407,-4.09352 c 0.640971,-0.27573 0.68222,-0.32673 1.248073,-1.54303 0.321857,-0.69183 0.930507,-2.11476 1.352557,-3.16205 0.909575,-2.25708 2.083613,-4.82402 3.484678,-7.61899 1.452964,-2.898501 1.902126,-3.996766 1.902126,-4.650952 0,-0.665306 -0.221022,-0.905659 -1.031237,-1.121435 -1.486213,-0.395813 -4.365279,1.34333 -6.011329,3.631235 -1.665723,2.315232 -3.223436,6.422212 -3.740248,9.861292 -0.185117,1.23185 -0.02455,2.74816 0.378137,3.57119 0.205684,0.42038 1.315354,1.31791 1.629398,1.31791 0.06873,0 0.423262,-0.12832 0.787845,-0.28517 z m -57.214182,4.09635 c -2.758534,-0.0875 -2.99469,-0.13789 -3.469863,-0.74198 -0.221613,-0.28173 -0.273081,-0.53458 -0.274177,-1.34689 -7.41e-4,-0.55001 -0.146534,-2.95018 -0.323986,-5.33368 -0.17745,-2.38351 -0.387328,-5.22007 -0.466395,-6.30348 -0.156743,-2.1472 -0.511323,-5.483579 -0.900195,-8.469725 C 11.970618,28.934757 11.732012,26.895976 11.57677,25.451419 11.227553,22.201925 10.931603,21.021746 10.314358,20.417244 9.8020406,19.91549 8.7583561,19.47625 8.0784685,19.47625 c -1.2688687,0 -2.0187702,-1.238043 -1.4343943,-2.368098 0.4145654,-0.801693 0.2133072,-0.783686 8.7570318,-0.783146 7.55152,4.78e-4 7.800405,0.0088 8.217451,0.262707 0.70904,0.432292 0.90409,1.413307 0.434214,2.183888 -0.304906,0.500032 -0.996673,1.0333 -1.492712,1.1507 -0.773717,0.18313 -0.781346,0.675748 -0.08764,5.66044 0.291494,2.094597 0.586255,4.753875 0.655025,5.909514 0.06877,1.155638 0.184307,2.751205 0.256748,3.545715 0.07244,0.7945 0.13532,2.27188 0.139729,3.28305 0.0044,1.01119 0.05126,2.0749 0.104093,2.36382 l 0.09608,0.52529 0.345946,-0.52529 c 0.382653,-0.58103 1.498041,-2.38888 2.349637,-3.80836 0.303321,-0.50559 0.703797,-1.15564 0.889943,-1.44455 0.186146,-0.2889 0.406455,-0.65137 0.489574,-0.80546 0.132237,-0.24515 1.470088,-2.40779 2.021098,-3.267108 1.021745,-1.593459 4.372893,-6.993918 4.564331,-7.355554 0.25291,-0.477754 0.585688,-1.953876 0.575584,-2.55315 -0.01231,-0.73115 -0.233886,-1.285152 -0.554682,-1.38697 -0.134999,-0.04285 -0.424119,-0.294649 -0.642489,-0.559568 -0.531327,-0.644598 -0.557512,-1.569257 -0.06496,-2.294099 0.591656,-0.870703 0.332633,-0.845207 7.750042,-0.762903 7.487615,0.08306 7.224259,0.048 7.629339,1.017455 0.249032,0.596008 0.132932,1.117012 -0.378792,1.699838 -0.505699,0.575954 -0.825225,0.738401 -2.157878,1.097021 -0.590539,0.158916 -1.158298,0.387055 -1.261687,0.506981 -0.40987,0.475429 -14.979551,22.248407 -16.666631,24.906667 -0.687591,1.08341 -1.76227,2.82673 -2.388173,3.87403 -0.625904,1.04728 -1.342533,2.09623 -1.592508,2.33096 l -0.454501,0.42681 -2.004596,-0.0226 c -1.102529,-0.0126 -3.186499,-0.0601 -4.631047,-0.1058 z m 19.562079,-0.15032 c -1.357609,-0.22041 -1.261216,-1.83788 0.192969,-3.23804 0.77961,-0.75065 1.057229,-0.88413 2.241469,-1.07771 0.937517,-0.15327 1.852818,-0.53944 2.432331,-1.02626 0.146031,-0.12264 0.72085,-0.84932 1.277377,-1.6148 0.92505,-1.27236 1.603068,-2.49712 2.786676,-5.03381 0.238273,-0.51067 0.912845,-1.92296 1.499046,-3.13842 0.586202,-1.21546 1.065821,-2.22676 1.065821,-2.24732 0,-0.0206 0.420889,-0.917116 0.935307,-1.992372 1.389059,-2.903452 1.570577,-3.342831 1.648736,-3.990935 0.103829,-0.861002 -0.181398,-1.159647 -1.251579,-1.310446 -1.007318,-0.14194 -1.332912,-0.396404 -1.331231,-1.04045 0.0016,-0.605105 0.620845,-1.693317 1.226503,-2.155276 l 0.461932,-0.352324 h 5.926908 c 3.813898,0 6.016981,0.04825 6.17956,0.135217 0.582364,0.311663 0.779032,1.296222 0.359824,1.80133 -0.149675,0.180353 -0.992739,2.007908 -1.832748,3.972967 -0.293316,0.686152 -0.612426,1.3953 -0.709134,1.575867 -0.0967,0.180566 -0.362415,0.741968 -0.59046,1.247567 -0.425318,0.942955 -2.251842,4.924285 -3.012347,6.566115 -0.234194,0.5056 -0.796722,1.74659 -1.250063,2.75778 -0.453342,1.01118 -1.037264,2.29978 -1.297605,2.86354 -0.480011,1.03945 -0.599759,1.84212 -0.345656,2.31691 0.07023,0.13123 0.528216,0.39814 1.017749,0.59314 1.297095,0.51668 1.481009,0.72865 1.481009,1.70685 0,1.01686 -0.383709,1.80343 -1.142926,2.34288 l -0.551975,0.39221 -8.456719,0.0138 c -4.651195,0.008 -8.683543,-0.023 -8.960774,-0.068 z m 55.914138,-0.26055 c -0.359353,-0.13293 -0.688342,-0.62772 -0.686776,-1.0329 0.0025,-0.6359 0.596495,-1.63735 1.391605,-2.34602 0.42539,-0.37915 0.891738,-0.71288 1.03633,-0.74163 0.144591,-0.0288 0.676559,-0.12201 1.182151,-0.20731 1.102255,-0.18591 2.030214,-0.65487 2.600652,-1.31428 1.667892,-1.92808 2.212952,-2.93284 6.655652,-12.269302 2.36343,-4.966824 2.36548,-4.971774 2.36561,-5.723167 1.6e-4,-0.84468 -0.12998,-0.960433 -1.24743,-1.109561 -0.68425,-0.09135 -1.11415,-0.262205 -1.27838,-0.508162 -0.32963,-0.493662 0.27477,-1.918717 1.12098,-2.643044 l 0.54169,-0.463668 6.08996,0.03657 6.08996,0.03656 0.31685,0.368459 c 0.17427,0.202657 0.31685,0.530491 0.31685,0.728524 0,0.198045 -0.3033,0.977761 -0.67401,1.73271 -0.37071,0.754949 -0.865,1.815843 -1.09842,2.357543 -0.23343,0.541712 -0.63146,1.428134 -0.88453,1.969846 -1.53349,3.282516 -3.68307,7.931202 -4.76687,10.308812 -0.52679,1.15564 -1.22861,2.69212 -1.55962,3.41438 -0.331,0.72228 -0.6021,1.49732 -0.60246,1.72232 -9.4e-4,0.60615 0.43059,1.05272 1.33647,1.38301 1.15484,0.42107 1.42136,0.73334 1.41778,1.66109 -0.004,0.97363 -0.34065,1.69936 -1.04953,2.2608 l -0.56233,0.44538 -8.8931,0.0157 c -4.891207,0.009 -9.012791,-0.0285 -9.159084,-0.0827 z M 55.074034,22.079135 c -0.332031,-0.414185 -0.306543,-0.757827 0.136214,-1.836564 0.247106,-0.602039 0.73937,-1.621907 1.09392,-2.266368 0.927526,-1.685928 0.674911,-1.610108 5.638625,-1.692424 4.650138,-0.07715 4.697525,-0.06949 4.73996,0.766082 0.02123,0.418256 -0.174823,0.92687 -0.98492,2.554985 -0.676394,1.3594 -1.134181,2.12067 -1.381971,2.298145 -0.350893,0.251311 -0.601942,0.267608 -4.736669,0.307466 -3.498833,0.03367 -4.393753,0.0075 -4.505159,-0.131322 z M 111.41871,21.50195 c -0.21625,-0.330046 -0.21256,-0.38208 0.0887,-1.250923 0.1729,-0.498612 0.67382,-1.56692 1.11313,-2.374028 0.63735,-1.170893 0.89042,-1.513819 1.25226,-1.696873 0.39815,-0.201426 0.97573,-0.234649 4.73374,-0.272333 3.48242,-0.03493 4.32081,-0.0088 4.49779,0.137329 0.43836,0.363181 0.25737,1.033011 -0.87169,3.226109 -0.90516,1.758193 -1.14883,2.130119 -1.52279,2.324332 -0.39734,0.206364 -0.90862,0.232274 -4.75536,0.240994 l -4.31016,0.01005 z"
       style="fill:#a963c3;stroke-width:1.25655;fill-opacity:1"
       id="path1" /></g></svg>
